<mxfile host="Electron" modified="2024-04-17T01:07:18.127Z" agent="Mozilla/5.0 (Windows NT 10.0; Win64; x64) AppleWebKit/537.36 (KHTML, like Gecko) draw.io/24.0.4 Chrome/120.0.6099.109 Electron/28.1.0 Safari/537.36" etag="QNcunR62wuDtIdMuJvDt" version="24.0.4" type="device">
  <diagram name="第 1 页" id="wqaIVa56vnLchRPBPSfe">
    <mxGraphModel dx="1050" dy="629" grid="1" gridSize="10" guides="1" tooltips="1" connect="1" arrows="1" fold="1" page="1" pageScale="1" pageWidth="1169" pageHeight="827" math="0" shadow="0">
      <root>
        <mxCell id="0" />
        <mxCell id="1" parent="0" />
        <mxCell id="itkO7vl6pDOI8YGB0cx5-2" value="B" style="shape=image;verticalLabelPosition=bottom;labelBackgroundColor=default;verticalAlign=top;aspect=fixed;imageAspect=0;image=data:image/png,iVBORw0KGgoAAAANSUhEUgAAA9QAAAJsCAYAAAAcOusoAAAgAElEQVR4Aey9h7cUxRb2zb/g+5qzYhbFnAhiFnPOCRUxe81ZzFkMmMWEOV9FwQRmQb2KigEVIyomMHKvN9a3fvV+e1adZkJP95wz3TVPrzWn+3RXd1ftemrXfmrvqu7ltEkCkoAkIAlIApKAJCAJSAKSgCQgCUgCkkDTEug1fvx4p59kIAwIA8KAMCAMCAPCgDAgDAgDwoAwIAw0h4FeV199tRs5cqR+koEwIAwIA8KAMCAMCAPCgDAgDAgDwoAw0AQGen333XduxowZ+jUpg6+++so99thjkluTchPWitnWhOdi1ovaS7Z6EZ6zyU14K6bchOdi1ovaS7Z6EZ6zyU14K6bcDM+9Zs6c6fRrXgYAe+zYsZKd8BMFBoTn5nWA9GZxZSY8F7du1G6arxvhuXmZCWfFlZnwXNy6Ubtpvm4Mz71mzZrl9GteBnj2x40bJ9kJP1FgQHhuXgdIbxZXZsJzcetG7ab5uhGem5eZcFZcmQnPxa0btZvm68bwLEKdkRCaAAW+5sEnmRVPZsJz8epE7SR7nQjP2WUn3BVPdsJz8epE7SR7nQjP2WUn3BVPdoZnEWoR6ig8rFIy+ZSMKQTJMZ8cJb9iyE94LkY9qD20ph6E59bIUXgshhyF52LUg9pDa+rB8CxCLUItQp0RAzEpI1MIMZVJZWlNZ1FGOQrPnVv3ZcRrozwLz8JzI4yU6brwLDyXCa+N8mp4FqHOSKZMgI0EretSHGXAgPAsnJYBp2nzKDwLz2mxUoZ0wrPwXAacps2j8Cw8p8VKGdIZnkWoRajloc6IgTI09LR5NIWQNr3SqUMsMgaEZ+GzyPhsNm/Cs/DcLGaKnF54Fp6LjM9m82Z4FqHOSKZMgM0KXumlSIqIAeFZuCwiLrPmSXgWnrNip4j3Cc/CcxFxmTVPwrPwnBU7RbzP8CxCLUItD3VGDBSxYWfNkymErPfrPnWQRcKA8Cw8FgmPefMiPAvPeTFUpPuFZ+G5SHjMmxfDswh1RjJlAsxbEbpfiqUIGBCehcMi4LBVeRCehedWYakIzxGeheci4LBVeRCehedWYakIzzE8i1CLUMtDnREDRWjIrcqDKYRWPU/PUYfZTgwIz8JfO/HX6ncLz8JzqzHVzucJz8JzO/HX6ncbnkWoM5IpE2CrK0bPk6JpBwaEZ+GuHbjrrncKz8Jzd2GrHc8VnoXnduCuu94pPAvP3YWtdjzX8CxCLUItD3VGDLSj4XbXO00hdNfz9Vx1oD2JAeFZeOtJvHX3u4Rn4bm7MdaTzxeeheeexFt3v8vwLEKdkUyZALu7ovR8KZ6ewIDwLJz1BM566h3Cs/DcU1jrifcIz8JzT+Csp94hPAvPPYW1nniP4VmEWoRaHuqMGOiJhtpT7zCF0FPv03vUoXYnBoRn4as78dXTzxaeheeexlx3vk94Fp67E189/WzDswh1RjJlAuzpitP7pIi6AwPCs3DVHbiyZ86cOdN9+eWX7ptvvumRATzhWXg27BVh/9VXX7lvv/02M/aF5/jw/P3337vPP//c/fjjj5lxUQRsZ8mD8BwfnrPgIJZ7DM8i1CLUHafMY2nErSyHKYRWPlPPUqdpGPj666/d4MGD3TnnnNMj+kZ4FvYMe0XYg/1LL700M/aF5/jw/Nhjj7n55pvPvffee5lxkRfbV155pdfLX3zxRY/mQXiOD895sdiK+9uNZxFqEeoeVaStaDQxPWPGjBnujjvucJ999lnL6uGnn35yEyZMcI8//njqZ6qDUwfXne1KhFr46k58FeXZRGI8+OCD7rXXXuuie0Wohf8kRnuaUH/66afuxhtvdHjGLS9PPfWUO++889wPP/xQOWfXunMve0PtoTvw1W48i1CLUPeoIu2ORlTmZ77++uuuT58+7uOPP25ZPRh5ueaaa1I/Ux2cOrjubEeGSXmohbPuxFm7n40eHTBggHv++ee76F4RauE+ic2eJtT333+/23bbbbsQ6mSeeup/2RtqDz2FtZ54j+FZhFqEukvH3xPgK8s7ILl//etf3W233ebuuusu9/bbbzs8EOSfEd0XXnjB3X777f76E0884aZPn16RJdeffPJJ99FHH7n333/f3XnnnT7tyy+/7PAg8wzI9MiRI91SSy3lbrnlFkcHa3NMGU22d+PBxuNh7zb54dXmveRv9OjRPs20adN8XtdZZx13xBFHeG/J5MmTK/mye5N7UwjJ8/pfHV8WDBB5MW7cOI/Ne++917edZMg3YYaGX9rRSy+9VGkb4P2ZZ56ZY37hm2++6V588cU52kIyj8Jz5+GW+ajoXOYrgx304iOPPOIYzAEPXOPcAw884OeuhphBJ6OP0dN2X3KQE31PGnTzQw895NPxHtPnH374oQPrq6yyirvkkku87uUc7zFCTX9AGt7x3HPPVe4N81LtWHguN57pu+mH7777bm8HgCX69zDkG6yAUcMTOAjtCP5nvvXYsWPdBx984N544w0f3QbueT72yT333OOxxR6sGZaeffZZd9ppp7n+/ft7/KGb8VS/++67PpottC04z4AQNgU4JW1o2/BMnsf7QjxzT/gce3e1vfBcbDyDRSJtqH8wa3oMbE6aNKmLngynC2C/gmHwQn9Ov85Ajq0VAEY4l8QnOhpdjW61dgL+6OvD6AnWoSD60rDJu7A1DGPV8ExesK0py8MPP+w++eQTn0crUyvxLEItQl0Bo4FS+1m+o1l77bXdiiuu6I4++mi3ww47uJNOOsl3diiNgw8+2C2++OJu7733doceeqhbZpll3BZbbFEJ3caoo/O6+OKL3VZbbeWOO+44t9566/l0KBpkfMIJJ7i55pqr8lt66aV9J4UC2WOPPdygQYN8mu23394tuuiivgO2uoE4r7/++p6MH3744T79vvvu6xVH+EyOL7zwwoZ1rA6u2B2c1XsZ9rSPvfbayy255JJu6NChbuedd3ZrrrmmGzhwYJc51Icccohj4OfYY491e+65p1tkkUXcrbfe6o2y6667zt+P4WhlpuPcdddd3VlnnVU5Z9eSe+G58/CMoYWOPf30093+++/vMTX33HO7E0880WNm6623dgcccIBbeOGF3ZAhQyqGGkbiiBEjvI7dcsst3fHHH+9WXnllHzkEaTBs7bbbbg7MQo7ZkxZCdNNNN3nMYijOM888FX2O7sXw437u4bn0EUceeaTbYIMN3Pzzz+8NS3t+vb3wXG48Y/j37t3bRy9gC6y++upeR84777yVOdRgBZshXLzO7AhICfiAHHDvmWee6bAXwBgkhYFGBubRj9gVq666qrcfsBMMf6FdsNZaa3nywpzT0GuN7h42bJhbbLHFfP4YlOc94BdSZBithmf0N4MElqbeXnguLp5fffVVt9pqq/mBwWOOOcahNy3aEYLLgOE+++zjcYZ9vPnmm/tBTOobfYkORp9iwx500EFeR5Ke6QabbLKJt5eXWGIJ/1xwwH3gF718wQUXeOzyXjC24IILumuvvbaCqSuuuMKttNJK7rDDDvM/bPCTTz65MvCexDNOJ3QuGMZmpyzkAbsDfW0YbRWeRahFqCugMnB1+p6OgwZGZ0KHhjwYebWRYIx+GjUeBpPVO++849Zdd1136qmn+nPWEdJ4jRRwjs6L59rKntVCvrnGCLalQelgzEFOOGeEBdJiHSb5YKSQfFp4rSlBy2O9vTq44nZw9eqtiNeItujbt68fobb84dFbYIEFuhDqcPSZQSTaxXbbbec9J7QnpkLgTbRnTJw40XeMr7zySuWcXUvuhefOwzOEGqN++PDhXk9ClEeNGuWJ8lFHHVUJdcXoX2655SrznPHAMWCJ59g8bBhiGIQYgjbnFB0Mrg1/PB9yjHHGCvZgENzVCvnG0MRwJB14ZzCW/gB9nsRv8n/hubx4xm7ADmAg0Lxp4ItBxP/zf/5PJkINbqZMmeLxCg7x7GFLGG7wHDMoRMSFnasW8p0kINgMyy+/fBfdDWbBOHOt7VnYR+DZot8MzzvuuGOXAQFLn9wLz8XEM7ihrhmUMb2HTjQvNNdDzy4ROpBe7FXqGEJt5BW9xr3oW4gvgz32HJxK9O9mQxuhRsfawA0YYYpYv379Kve99dZbFX3Js8HrGmusUdG/STwzuMrgUTgwyj0MfCYJdSvwLEItQl1Rkkml16n/E4bKaNnf/va3OWQDod19993dKaecMse1yy+/3HecpDFCHY6uIU+8xYzomRFVjVCTDmVBGjpeVgHFC77xxht7JUfYOEqMkelqdSRCXczOqlpdxXbO2gejxmHZaA8bbrhhF0INxvHG0IHSSdP5mYeG50BWDjzwwArJueyyy9w222xTaTvh85PHMtg6rw1AqBnoNCMfTGCA4RlksRrDCKHcGHMQac6BVaKITCdbOvQr3kAGdziHsYeHG/JgaSDhePNs0BTc1SLUDLZCfuxeDDuiOMyAtPPV9sJzefFMmCm4JNQ0rFsGGcOQ72Y81Oeee25FL9ozze5gkJ1wcKKC8OihZ0mThlATiYdtE+KUe5maht1i3nMItfBcXkwaZpJ7wq6JdCB0OnnN/kf/MYAInp9++mmPYUKquQ5xJTqCwW9Lj37Dq21RFpw3PUnoN/8boWZqpd3HnncwiAlxt/PcCzGH3OPcCtcgCgk17QGbmTZg97JH/6PXk4S6FXgWoRah7gK2EHidenzDDTc4QlJC76/JgpArQrGTDZ/rKAeMKRq8EepQiZAmDaFGYdFh4vHmeYz6cmyEGq8dRlytz22IUMfX0Rn+ir639sG8/zCvhklblAyD7aqrrvL4hkQzrQHCbYSaexk4YtSYNQhoE3hlaGNmIIbPTx6LgHReG7CQ79CDYoQ69N4lCTWeQkIMMcBCHCXvhVATPh6SjWYIdfKzWSLU8WMUXQUZpf9ODtgkFyVrhlAzHzTEKgM6++23nyczeMOJfmCwphlCjUcS28amKYTPx45BN2PXcB5CLTzHh18GrbEz6cfD+rdjdOJOO+3kB2s222wz73VmUCgk1PTZoUfYCHXoAKpFqG2Q095HRAc2sBFvCL+FbDMISkRbLUIN6SZ0HdJvz2NPNAd5TBLqVuBZhFqEugvYQuB16jEhq4SoMAKWlAGdIg36+uuvn+Mao2XMjaNjykqo6YAJU0RJQCj4HwMOL4oRapQKoY2hJybMp5EXDLbwfL1jEZD4Osd69d1d18AexJj5UuE7aA8Ya0aoCQNj/hWeQzDOD+MvJNR0prS1m2++2TGvi/lPPD98bq1j4bnz8JyVUDPfmuk0FuJomIKEr7DCCt7LzTkR6s7DlGEhz55+mLDTJEmp5qFOEm/ICGu52MA8z8C7FpJeBhsh0xAdi3bAk4wubYZQ8xxsjKuvvnqOQUveh143/StCHWdboO7BjeEoxD1eafDBmkKGA5w6rSTUyU+94tQC7+h2SDrHOLzAKnmDgNci1OSXcPBHH320i82A1xuiLUKdkfyGoGjVsQy2OBUK+GA+CAvG1FpgwxaXMaXCPeCB+XaEqPJ/M4Qao81CBo08Mz/alAZ7jDkj1IwSMucP4l8Nz+SLDo/wl2rXq50TnuPFc7X67s5zkJNddtmlMl+QdxGCyCAQhNrIM4NP4I7reAeZ5xoSatIxjYJFzVi4rNo0i1rlEJ47D89ZCTUL4BEWTiREiCewx4I2FubaDKFOekVEQDoPj4YlVsQm4s3m3nMe3cbiZCwUZpFmhIYzyBgO5INpFtarR6iNPIeDmBARQmWThBo82zxu8hGGyPI/OhishuSfgSYIO2tcWJmE5zjxDFYXWmghv5K81bXt0Y9MNQzDr5kD3UpCnfQSM5jO1AW8zZBnQseN7NOGcGzVItRcZxCeBczMlqYsrJLPYoAi1CLUFYVmINe+9YqNDuSMM87wDZnPn+BFw/sMgYXwMreakTI6GTpBRtUIGaTh40mjTtISaog0SoL38RzmTBMixqrhKBMaP9cgGkaoyQMdJfdBUFA0hKDTOaI4IBOs+E3nyTMhM41wIgLSehw1knms12kvTElg9XnWI6DjAo8MHJmHmlBZ5moxIg5+WQ0ffIeEGvkwl4tR5mWXXdaPUqeVmfDceXjOSqgJASd8kFW7WcQJ/LKAFOQm9G6kIdQMDKF3CbkdM2ZMZR0OEZDOw6PpKggsc+/xPrMiPH06UwdYDwKybIQaIs2CUNgVDOYT5ooOZZGneoQae4UBTOY4cx+fO4JEQOJDQg1Zgnywrgu4hognCTVzX7FtyC+2DXmFSHMutCOE5zjxTAQmq7yDQ7DD6vRglqhIbFPOo9uwK+nDcSC1klBDgC+66CJvE/B+7GBsA9oSEUPoZNZawWYgX0Rl1CLU3ENkBeshcQ9Y5h6cVSxKKUItQt2QGJkS1z6fwsMworNhMREMfzqUcP4mRhidGJ0dP1YwnDp1aqV+GOGlwwwNMuqEeaMsamZeD84RwsLKmszroHOFFDN6jTLh/RBriAieOgtLhFQzjwpSjXeFdJATzvNMVgBl7glEBA9MIzyIgOTDSyP5dtJ1RobpgBlgApsYegw0gXs+p4EsaF+sGkvHBtFmZBr80mZCDwrPooOH7IQRIY3kKTx3Hp5ZORZiHHr4GJDBCCSqxzCD945PDkIw7BzYMvKCvmdwx1autTTgED1sOpbz4JwBn/CdzCdEd/OD3JCOFcOTC1QyQEs4r618a++ptheey41nyAgYAFv09UQ/QArot8M5/+PHj/erc5MO0gqJDe0IcLrpppu6++67r4Jd8ALOwb5hF28492FboENJg+3A597AJfoU3OHVZrAz9OCRH+ammm1DvrF3QlwKz+XGY1iXyWP0G2v9gBPwRD9uETfgETuV82AIvIJhiDfPwe4Eh+ztueBso4026hKhgT5jTRQGbUhni5KxPhCDOTyf5+JcwlawZ2GDQ6rBJgM92NfoclvvKIlnyoIzjGgNnsmie9gi9AnhtIlW4VlzqDOSdHVw8SoUa7zs6WjwNoeN2q7TUWH8Q46t07Jrzey5l84u7NQ4x3ONQNd6Hvkif+G9lpZr3J8mb8JzZ+DZsNETe2s7IQEJ3wsuaT8hgQ6vc8zAFB0vo+HJa/X+F56F53r4qHUN3OClqYXZWvclz4P9Rro7eU+9/4Xn8uMZfQe2qMt6dU2/DXFuFoOkR19Ws1XsfeQBXDZ6NumwP9DNHNv9rdoLz8XHMzgBr0k8ZcVnPewYoWaQCbyB/1r6k/PN2tzcwzN5NhGmRNAxGFAvT81cMzyLUItQtwxUzQBQaYulUE0hqF6KVS+dXB90fowuMyJu86bSykN4Fo7TYqUM6YRn4bkMOE2bR+FZeA6xEhLq8HzeYzzX4XoAEHE+j0VUUTLqIs+7DM8i1CLUItQZMZCnARbtXlMIRcuX8tOZHS+f3eJzcSxkxpSHZr0kwnNn4iZWfSE8C88xYVt4Fp5DPHcXoWbRMsLDiXJjiiZTzJhzTdh3szZFmN/kseFZhDojmTIBJgWr/6UoyogB4Vm4LRJumb/KYnzMzcrS8QnPwnOR8Jw3L8Kz8JwXQ0W6X3gWnkM8ssYAa6qEc6/D61mPeS6Lj5155pnenmCOtX1RJ+szq91neBahFqGWhzojBqo1rLKeM4VQ1vwr3+qgQwwIz8JDiIeyHwvPwnPZMRzmX3gWnkM8lP3Y8CxCnZFMmQDLDgTlX4oNDAjPwkFMukB4Fp6FZ2EgJgzEVBbpZ7XNGPEsQi1CLQ91RgzEqBBiKpPK0rmdtgy2zq37GNu98Cw8x4Rr4Vl4jhHPItQZyZQUghRCjAohpjKpLJ3bRqWfO7fuY2z3wrPwHBOuhWfhOUY8i1CLUMtDnREDMSqEmMqksnRupy2DrXPrPsZ2LzwLzzHhWngWnmPEswh1RjIlhSCFEKNCiKlMKkvntlHp586t+xjbvfAsPMeEa+FZeI4RzyLUItTyUGfEQIwKIaYyqSyd22nLYOvcuo+x3QvPwnNMuBaehecY8SxCnZFMSSFIIcSoEGIqk8rSuW1U+rlz6z7Gdi88C88x4Vp4Fp5jxLMItQi1PNQZMRCjQoipTCpL53baMtg6t+5jbPfCs/AcE66FZ+E5RjyLUGckU1IIUggxKoSYyqSydG4blX7u3LqPsd0Lz8JzTLgWnoXnGPHcC2Dr17wMpk+f7saMGSPZCT9RYEB4bl4HSG8WV2bCc3HrRu2m+boRnpuXmXBWXJkJz8WtG7Wb5uvG8Nxr3LhxTr/mZQCZHjFihGQn/ESBAeG5eR0gvVlcmQnPxa0btZvm60Z4bl5mwllxZSY8F7du1G6arxvDs0K+c4Z8z5492+knGZQdA7/++qubMmWKsKz2HAUGhGfp5LLr5DD/wrPwHOKh7MfCs/BcdgyH+Tc8i1CLUEdhQIfg1nHzytoUgmTXvOwks+LJTHguXp2onWSvE+E5u+yEu+LJTnguXp2onWSvE8OzCLUItQi1vJLOFIKUanalKtkVR3bCc3HqQu0if10Iz/llKBwWR4bCc3HqQu0if10YnkWoRahFqEWoRaiFgaj0gHVwMhbyGwuSYftlKDy3vw7UDlpXB8Jz62QpXLZfloZnEWoR6qgMaSmXbMrFFILkl01+klux5CY8F6s+1D7y1YfwnE9+wl+x5Cc8F6s+1D7y1YfhWYRahFqEWt5JeaiFgaj0gHVwMhTyGQqSXzHkJzwXox7UHlpTD8Jza+QoPBZDjoZnEWoR6qgMaSmYbArGFILkl01+klux5CY8F6s+1D7y1YfwnE9+wl+x5Cc8F6s+1D7y1YfhWYRahFqEWt5JeaiFgaj0gHVwMhTyGQqSXzHkJzwXox7UHlpTD8Jza+QoPBZDjoZnEWoR6qgM6e5UMH/88Yfj153vaNezTSG06/16bzE6hljqQXgWnmLBMuUQnoVn4VkYiAkDMZXF9LMI9axZ7ocffnBPPvmk+/HHH92slAT7u+++c+PGjYuSXMUE9FaW5aabbnIXX3xxlHVuCqGV8tKzZABkxQADV+jl77//vsvvl19+SdX+hGdhLyv2inif8Cw8txKXP/30k5s8ebJ755133M8//1xTp3Lt7bffdm+99ZbXw9XyADYnTJjgB32qXa92TngWnqvhogjn8uC5owk1BHrSpEnukEMOcVtuuaX75ptvRKgV+lqzczn55JPd/vvvX/N6EZRB1jyog1MHlxU73XEfA5YbbLCBW3zxxd1SSy1V+T3yyCOp2p/wLDx3By7b9UzhWXhuBfZ+++03d8stt7hVVlnFDRgwwK266qpurbXWcs8880yX6Dvwduedd7oVV1zRrbvuuq5///5uzz337EK+edabb77pDjvsMLf11ls7SHraPArPwnNarPRUulbguWMJ9ZQpU7zBtuSSS7o11ljDbb755iLUItN1OwQRanUCPaXcO/09X3/9tRs4cKB76qmnHMf2q+dNCWUmg01tNcRD2Y+FZ+G5FRgm4uf4449306ZNczNnznQzZsxwZ511llt77bW9/cs7iA669dZbXd++fd0rr7ziIzchy99++22FdH/00Uduo402ctjPa665pttiiy1EqGU/17WfW4Hf7npGq/DcsYSaUJdjjz3We6gvvPBCEWopg4oywGins0nOl26GUP/+++++g8EQqqUEmF5AR8XIWK00Wc4TFstzyUPa+2WwyWBLi5WeSPfxxx+7hRde2HtAsrxPeBaes+AmeQ86OjmIY9PCkmn5nz6DvqNa/1EtfdpzwrPwnBYr9dJha4DfMM2HH37oVl99dfe3v/3Nn4c445WGVCdtILuPe0444QSvny+55BIRatnPXTBlOCnLvlV47lhCbZ0iexHqeDure+65x4c2YeBY42aUlnCnhx9+2J9jriZRCnQgl19+uevdu7ebb7753KGHHuoNI7svSahfffVVHxJ13nnn+Y7niiuu8B0LjXOTTTZxCy64oFtsscXc008/XXk3HdSXX37pDjzwQLfAAgt40kDY1ZgxYzyxxnAaOnSo/3HMuyHIe++9t8+PncPIY5rCdddd59/N8WWXXeZuv/12t8wyy/j877zzzn502fJfby+DLd42UK/ei3qNOXuLLLKIe++99yptp5m8Cs/CczN4sbSffvqpn2Zwxx13uDPOOMMfM+2AfgRv3nHHHefPMdiD3RDO6R8/frwPn+XaQgst5Pbaa6+K1++UU07xEXFMZbB30RfwjiFDhjQc/BSehWfDTav377//vltvvfXcBx984LFJVBD2C8QaAg7GaxFr8iJCLWy2GpPtfF4ePItQi1BXOvh2gri73t0Mod5qq6284cQiHJDtZZdd1l1zzTWVziQk1J999pnbeOON/Sgtc/HJP4SaezC6CJV6/fXX3T777OM23HDDSjjU1KlTvdF1+OGH++gIIiVGjRrlllhiCTd69Gj/HPbrrLOOX5SJ5xLuyjOYU2oGGaScUeQ33njD3wOhJs2NN97oFxFhThSDBKeffnoqD7gMNnWK3dUGszyX9jPPPPO4bbbZxu2+++7u/PPPd1988UVqXSU8C89ZcGeEerPNNnOPPvqo16UXXXSRJ9G77LKLH3Slf0DPQpqfeOKJCiYxxFio9N1333UMtqKv6QsgJZBt0r/22muV9F999ZXX8w899FDlXK08C8/Ccy1s5DkPNs855xxvO5gdc8EFF3i75YUXXnA77rij23TTTf2gjxHu5PvyEJDks/S/cN5uDOTBswi1CHXDzrzdAM/z/mYINSFMdDC8jz2L1WHMmxfCCDVGFwT2yCOPrKTnHgj1yiuv7LhuecZbvdpqq1VCV0eMGOG949OnT6+k4V3nnnuu925zTMfFQiGQbZ7z3HPPuYMPPtgvCmIE+tlnn3W77bZbJXyL/Oyxxx5dPOp0jJBuI+GWp2p7GWzqyKrhol3n8FBDYPhh1DE4xFw91r5IkyfhWXhOg5NkGiPUkAy79vnnn/sBT3SwncNbjY4mKsjOhVNs8OhdeumlbtCgQeCTIooAACAASURBVF5HEwXFwk3of0sPYe/Tp4/j+Xau1l54Fp5rYSPreSL1cBgQ7j127FjvOADDRx99tLdvWGyMwX0i9yDVeK0Z3E++Lw8BST5L/wvn7cZAHjyLUItQz6Eg2w3oVr6/GUJ91113VWRBx4J3l44kJNQQbLzO++67b8WDbPm1kO8wPIqwKVbUxOPGM7n3zDPPrLzH7n3ppZf8ipsWZgU5vuGGG3wnd9ppp7m7777bjyTzDu7hGXjt7H4IdWiscR4vCuHrrF5v6WrtZbCpI6uFjXafpz3RLlg4kpVmw+kbtfImPAvPtbBR77wR6gcffLCiM9Gf6NHrr7++cg5vHgsxMWhpz2MaDvcNGzbM6/JFF120y3QjwsiJgjL8MqXo1FNP7TIoa89K7oVn4TmJiTz/s8bKTjvt5B0ARNKZzQLOmI7GImVE4dk7WMRspZVW8it/2znb5yEg9gzthe+iYCAPnkWoRagrSrMogG5lPpoh1KS1d9ci1Ouvv74PjyKUjxFeS88esguxDc+FhBqDa4cddvDpwjQcQ7gh3qTn/2uvvdaTBwstx1vNXGwIPaGveDv49qM9h/ca2bZzItTqpAwLMexHjhzplltuOQ0QaQGcit5rNa6NUIdh2Eao0af2viSh/uSTT7zuZ8D0qquucnzejYgn1uowAm0h3oTS8kx0tiIupKMNUz21h0DzGSw80WAy+V7m9eMwMJLNdTAMltHB4Xmu5SEgyXfrf7WHdmMgD55FqEWo51Co7QZ0K99/7733+pCmMOwZ44dQu+SiZGkINd+hJiSbudJ4iS1EnDw3ItSkIUycRcfM621l5d3MubMVOJlrx/d377vvPsd8PkIGyTdzrcn30ksv3WVOqQi1OiLDUqx7Fgzs16+fpjCIUHdbn5WFUEMwCJ0Fm3j+aH+coz8ICTXeP8LGhw8f7oiGYtHIJDmp1XbloZZ+r4WNZs4zEMRgPAvq4TSodu8DDzzgBg8e3GVBU+5j4TKLmgvvy0NAwufoWBgvAgby4FmEWoS6qlItArBbkYdJkyb5cD1WruR5EGBCpeeaa67MhBoj6OWXX/ZhfYT8GTlOQ6jJB99uDEMK+UQQIVZh+CBzlViYbNttt/Wh3LwTsk3IKyt+H3TQQZX3Ui4RanVGrWgvRXkGg0fWrsgTawcwj5ppDbUMwTDvIiBqDyEe0h7nIdTocIswQn8zQBoSavLA2hcQb0gNIeBp8yU8C89psVIv3eOPP+4dDPWmgeG1BsuQZ3QttgcD/qxhUe2rC3kISL286pow3w4M5MGzCLUIdepOvR3gzvtOjHK+N84KqyzixY/FYgh5yuqhtjyxqAxz6/h0FQZPGkJNOt6/wgor+BWM99tvP0/MWQAt9KJD/FkEDfIdhgWyQMjcc8/tQwotH+xFqNX5hHgo+/Ftt93mo0gIoWVhMqI1jjrqqDm+CVyrnCIgag+1sFHvfBZCzfOYkgMJgUAfcMABfiG9I444Yg5CTaQR3j8ijZiXWi8v4TXhWXgO8ZDlGGLMOgA4E6r9sDd4LunuvPNO17dvXz/PmkF9IvrwXFd7bx4CUu15OiestxMDefAsQj1rlmPFZTpS5omE36eudwz54RMZ7ax4vTud4mHuMmHazz//vK9njBNGYS28mg6Ez1DZXDeTK3OkwQbXOUedmweC/xm95Tl4I0hDWFRyFUzS8OzQ20Za7sPrxtxpsEee7L22J3yQe0OPHGVhVdhket7L++1e9tzPfOvw/vB6eCyDLR2WQpnpuPtkRttkhXw+/zZx4kTfDpKYryd/4bn76qae3Mt+jYFMdKb1DZQH/ck5C+fmHDocnQtBtjKz8jdTdZijynn0MXre+g+7j8FTFppMo5ft2cKz8GxYyLMHk6zLUu0XDugbvrFPiPLD7glxHOYBrId2Unit1rHwLDzXwka7z+fBswj1rFmpSXRIsEWopRDa3fBb+X51cMJzK/HU7mcJz8JzuzFY7f14sgn55lvW1a7XOic8C8+1sFHG88Kz8FxG3NbKs+FZhFqEuqmOvRagdL7cCtIUguqx3PWo+vt/9Sc8C8dFagt4t4ksIhx8yJAhXSKW0uRTeBae0+CkLGmEZ+G5LFhNk0/Dswi1CLUItVbN9SHk4VztNEpEadQpFhUD1sEVNX/KV2e1nVGjRvn1NiDUzcydNpwIz52FF6v3WPfCs/AcE7YNzyLUItQi1CLUItTCQFR6wDq4mDptlaW8RijzT1n/ImsdCs/lrfusdR7zfcKz8BwTvg3PItQi1Jk7+ZgaRKeXxRRCp8tB5Y+joxee46hHtcf/V4/Cs/AcU1sQnoXnGPEsQi1CLUIt76Q81MJAVHpABpsMthgNtpjKpLJ0bhuVfu7cuo+x3Ruee7FatX7Ny4DPBIwZM8YTEYSpn2RQZgywgj0rz5a5DMq72qBhQHgWFgwLMeyFZ+E5BhxbGYRn4dmwEMPe8NyLbynr17wMINMjRoxwLOSkn2RQdgxAptEDZS+H8q+2CAaEZ+EgJl0gPAvPwrMwEBMGYiqL6WeFfOcM+XbaJIEIJPDvf//brz4bQVFUBEnACc8CQUwSEJ5jqk2VRXgWBmKSgOFZhFqEOiZcqywZJWAKIePtuk0SKJQEhOdCVYcyk1MCwnNOAer2QklAeC5UdSgzOSVgeBahFqHOCSXdHoMETCHEUBaVQRIQnoWBmCQgPMdUmyqL8CwMxCQBw7MItQh1TLhWWTJKwBRCxtt1myRQKAkIz4WqDmUmpwSE55wC1O2FkoDwXKjqUGZySsDwLEItQp0TSro9BgmYQoihLCqDJCA8CwMxSUB4jqk2VRbhWRiISQKGZxFqEeqYcK2yZJSAKYSMt+s2SaBQEhCeC1UdykxOCQjPOQWo2wslAeG5UNWhzOSUgOFZhFqEOieUdHsMEjCFEENZVAZJQHgWBmKSgPAcU22qLMKzMBCTBAzPItQi1DHhWmXJKAFTCBlv122SQKEkIDwXqjqUmZwSEJ5zClC3F0oCwnOhqkOZySkBw7MItQh1Tih1zu3/+9//HL8YN1MIMZZNZeo8CQjPnVfnMZdYeI65djuvbMJz59V5zCU2PHc0oZ45c6b74IMP3MSJE93UqVMd/89KSbC/++47N27cuJgxorIlJHD77be7K664InE2jn9NIcRRGpWi7BJg4OqPP/5wv/32W5ffv/71r1RFE55TiUmJSiIB4bkkFVWybE6fPt39+OOPc+T673//exe9ix7+888/50jHCXTyK6+84sBo2k14TisppetpCeTBc8cSagj0/vvv71ZZZRU3cOBA17t3b7fffvu5zz//PBWpFqHuaZi3/31nnHGGO+igg9qfkW7IgTq4bhCqHplZAr/++qvbaKON3BJLLOGWXnrpym/s2LGpnik8pxKTEpVEAsJzSSqqBNlksPKnn35yt9xyi1tppZXc5MmTu+QaQrHXXnu5RRddtKJ30cHXX399l3T/+c9/vEPqqKOOcttuu62DhKfdhOe0klK6npJAK/DcsYT6wQcfdNddd50n0DNmzPAeagy4Y445xo/YNfJUi1D3FMyL8x4R6uLUhXIStwSIFho0aJB74YUXfOQQ//Or5SVJSkMGW1Ii+r/MEhCey1x7xcr7JZdc4onymmuu6RZaaKE5CPU///lPt9lmm7nRo0d30b0hYf7yyy/dJpts4h1Ra6+9tttqq61EqItVzcpNExJoFZ47llBDopOk+dJLL3VrrbWWQ7jJa8n/RaibQGvJktKh/OMf/5hjvnQzhPq///2v72AwhGptkAM6KUbGWrkxwsxzyUPaTQZbWkkpXU9IgFDEhRde2L3//vuZXic8ZxKbbkpIAB1NfxBu9A21Bnbw/qF7q/Uf4TOaPRaem5WY0teSwM033+z++te/ujfffLMqoQa/66+/vnvyySdrPcI7ok499VTvob7yyitFqGtKShfKIAEik1uB544l1EmCzP8QakbavvnmGxHqMrSCFHl86KGHfOdAJ2Eb84HoMJ544gl/6vfff3eM1t59993ummuucUsttZSbb7753JFHHukNI7svSajfeust16dPH3fxxRd78n3ttde6rbfe2n3xxRdu8803953VYost5r1s9gwMLuYsDRs2zC2wwAJukUUWcauvvrp7+umnPbHGcDr44IP9j2M2CDLTEciPncPI22abbRydI8/kvVdddZW799573bLLLuvzv9tuu/l5qPbuensZbPWko2s9LQHWtiDk8NNPP830auE5k9g6/ib6/sUXX9zdf//97pxzzvFTDvj/4Ycfdr/88os7+eST/TkGey677LIuZPvll19266yzjtfpeP7Q2dgVbMOHD/dTGJjKYBt6m3cMHTq04eCn8GxS075VEnjvvfeqEmrsIRxLzItOs4lQp5GS0pRFAnnwLEL9/y9ChleakO8RI0b4+SXVCHd4Th7qcjSPZgg184AwnD766CNPtpdbbjl30003VTzVIaEmwmHTTTd1p5xyips9e7YXBoSae0466SQ/+vvuu++6IUOG+NAoSwPOCJH6y1/+4kOtPv74Yx9axVzR++67zz+H/XrrrVchw4S6brzxxh6fDAaw/fDDD65fv35uypQp/n8INSFYt912m8//iy++6AcJzj777FQecBlsXoz6UxAJ4D2Zd9553fbbb+/n8xGm+P3336fOnfCcWlRKGEjACPUWW2zhPXT0BZdffrkn2bvvvru76667/PQw9Cykefz48ZW7McQmTJjgPvnkE6//sScg4EQgQbYh4e+8804lPQOr6PkxY8ZUztU6EJ5rSUbns0qgFqHGzl1ttdW8cwnMM+hDxFCtLQ8BqfVMnZcE2iWBPHgWoZ41yxMbvH277rprKu80CkeEul1wb+69zRBqQj4s/BoD5ogjjvDGPB5iNiPUGF3ghfn2lp7rEOq+ffu6b7/9tpJJQknwQFvo6siRI713HJJsG8+46KKLfAfGMffg6cCYY2MV+sMOO8ztu+++FQKNgbbnnntWQg8h1HvvvXcXjzoRFxhsoVfE3pncy2BLSkT/t1MCeKgx5vjtsssu3mPCQBRkJc0mPKeRktIkJWCE+sILL6xcoq9nwBMdbBveanQ0UUG24XG2jWOubbDBBl4n4/Xbbrvt3NVXX21JPGFnUSie32gTnhtJSNeblUAtQg22sX3QvUS5DRgwwC255JLu+eefr/qKPASk6gN1UhJoowTy4LmjCTWkhrkkeBVRIF999VXDUG/zUotQtxHxTby6GUL9wAMPVJ7M/OOzzjrLh27bHDoINatf4nVmhXg+6xNuEGqmDISG1c8//+xHewkP55ncd95554W3+eM33njDE2/SYzzts88+7tZbb/XPIh8sooeRR0g627nnnuvw2tkGoQ6NNc7jRSF8Hcw22mSwNZKQrrdLArQnjLwtt9zStwvmpzbahOdGEtL1ahIwQh16jdGf6FFWRbYN3Y/OZdDSNuZVP/bYY554M4jKlAWmFtl0IyKPwtWQsTkIBQ8HZe1Zyb3wnJSI/s8rgVqEOvlcBuSxecC7YTlMk4eAhM/RsSRQBAnkwXPHEmrCBxlBJmwW4kL4lZHlNHsR6iJAv3EemiHUpLWtFqHG40BoNWHdeB3CzeZQh+dCQg0x33nnnSukOEwH4SbMivRso0aN8uTBQssJDWfFYwg92MUwe/XVVyuPoLPj/eEmQh1KQ8dll8ANN9zgll9++UobqVceEZB60tG1WhIwQv34449XkhihRp/aliTUX3/9tY9aYsCUzwvxeTcinkJCbSHer732mrc1iHJSxIVJVPuelkBaQk2+iIjDVg6j7yy/eQiIPUN7SaAoEsiD544l1HimWWyEhRfSEOhkGhHqosC/fj4eeeQRt8Yaazibe0xq5gMRapdclCwNoeY71J999pmPasDTHHoXGhFq3k2YOIuOWRi55Z53M+fOVo9lrh3ffiT/gwcP9uQdo43QK/K9zDLLdJlTKkJtktQ+VgkQgUH4oaYwxFrD7S9XFkJNBAVrbYBN8+Bxjv4gJNQM8hx++OE+uohoKMJpw2imeqXXAFE96ehaFgk0Q6hZGwD7hO9XJ7c8BCT5LP0vCbRbAnnw3LGEmpU1WTWZxZ2SZDnN/yLU7YZ9uve//fbbPlzP5v9AgAmVnmuuuTITaowgC9Em5M/IcRpCTT569+7dZSEaCP66667bJXwQDHJuhx128KHcvBOyTSg4q8ceeuihXVaYFaFOhwelKocEaBPWrsgxi++x8iykOs3n4ERAylHPRctlHkLNnGqmJrAxnQwCEhJqzr/00kueeDOf2hahTCMD4TmNlJSmGQnUItTYxOGg5bRp09ygQYN8xEU13ZuHgDSTX6WVBHpCAnnw3LGEGgICqUr+FlxwQR9a24hUi1D3BLTzvwOj/MQTT/Qrsu6xxx5+IS9C/QcOHJiZUFuu+E4jc+sIz8bgSUOoyQ/v53NbrGB84IEH+lBv5tOFXnSI/+mnn+7JNx2abawyO/fcc/uQQjvHXoQ6lIaOyy4BPmFHFAkhtCyOQ7TGcccd12UQqV4ZRUDqSUfXakkgC6HmWUzJYQAUAk0UEwvpHX300XMQakLFWWeDSCPelXYTntNKSunSSqAWoZ48ebJfz4XpZejflVde2etgbN5qWx4CUu15OicJtFMCefDcsYSa75tOnTp1jh8rKzNHVYS6nZBu7buZu8zK2ZMmTfJzgDBOmM9mixvh/Q3/t7dDcPE0WFge/9scZ9IwWst9lgZjieNwIw0jvqG3ze7D68bngZiXRJ6SG+GD3BuOClMWOrZket7L+8ONT3WB5fD+8Hp4LIMtlIaO2y0B2ibfc+fzbxh4tIMk5uvlUXiuJx1dqyUBBjLRmdY3kA79yTn79CHn6BPQueE6Gnj1+FQiP86jjwmRtf7D7mPwlIUm0+hly6fwbJLQvlUSAFPYEqFtwrM5zwK9ROFhnzDwYwuzVnu32T0hzqulC88Jz6E0dFwkCeTBc8cS6kaEudF1eaiL1ASUl7wSUAeXV4K6v0gSEJ6LVBvKi0mAAfv+/ftXPolo5xvthedGEtL1MklAeC5TbSmvjSRgeBahnjWroTe6GrkWoW4EMV0vkwRMIZQpz8qrJFBLAsJzLcnofDskQLQRNsOwYcMc67ckvYKN8iQ8N5KQrpdJAsJzmWpLeW0kAcOzCLUIdSOs6HoHSMAUQgcUVUXsAAkIzx1QySUq4ujRo/16GxDqZuZOWxGFZ5OE9jFIQHiOoRZVBpOA4VmEWoTaMKF9B0vAFEIHi0BFj0gCwnNElRlBUZhfWm8eaqMiCs+NJKTrZZKA8Fym2lJeG0nA8CxCLULdCCu63gESMIXQAUVVETtAAsJzB1RyBxVReO6gyu6AogrPHVDJHVREw7MItQh1B8FeRa0lAVMIta7rvCRQJgkIz2WqLeW1kQSE50YS0vUySUB4LlNtKa+NJGB47sVCGfo1L4Pp06e7MWPG+E8MIEz9JIMyY+DPP//0K8+WuQzKu9qgYUB4FhYMCzHshWfhOQYcWxmEZ+HZsBDD3vDca9y4cU6/5mUAmR4xYoSbNm2afpJB6THA51wmTJhQ+nKoPUofgQHhWTiISRcIz8Kz8CwMxISBmMpi+lkh3zlDvmfPnu30kwzKjoFff/3VTZkyRVhWe44CA8KzdHLZdXKYf+FZeA7xUPZj4Vl4LjuGw/wbnkWoRaijMKBDcOu4eWVtCkGya152klnxZCY8F69O1E6y14nwnF12wl3xZCc8F69O1E6y14nhWYRahFqEWl5JZwpBSjW7UpXsiiM74bk4daF2kb8uhOf8MhQOiyND4bk4daF2kb8uDM8i1CLUItQi1CLUwkBUesA6OBkL+Y0FybD9MhSe218HagetqwPhuXWyFC7bL0vDswi1CHVUhrSUSzblYgpB8ssmP8mtWHITnotVH2of+epDeM4nP+GvWPITnotVH2of+erD8CxCLUItQi3vpDzUwkBUesA6OBkK+QwFya8Y8hOei1EPag+tqQfhuTVyFB6LIUfDswi1CHVUhrQUTDYFYwpB8ssmP8mtWHITnotVH2of+epDeM4nP+GvWPITnotVH2of+erD8CxCLUItQi3vpDzUwkBUesA6OBkK+QwFya8Y8hOei1EPag+tqQfhuTVyFB6LIUfDswi1CHVUhnR3Kpg//vjD8evOd7Tr2aYQ2vV+vbcYHUMs9SA8C0+xYJlyCM/Cs/AsDMSEgZjKYvq5own1jz/+6CZPnuwmTpzoPvvsMzerCXL93XffuXHjxkVJrmICeivLctNNN7mLL744yjo3hdBKeelZMgCyYoCBqx9++MF9//33XX6//PJLqvYnPAt7WbFXxPuEZ+G5p3D5008/ddG5oQ6upn+5/tZbb7m3337b/fzzz9LPinZLhYGewnOz70HXTpgwwQ9ipr3X9HPHEupXX33VrbHGGq5fv37+N//887vhw4d7Iy4NsRah7rwO7uSTT3b7779/qZVFLQVhCqHWdZ3vPLy3s87RrxtssIFbfPHF3VJLLVX5PfLII6nan/AsvLYTv61+t/AsPLcaU9WeB84OO+ywir413bvkkku6//t//6976KGHKvoXO/myyy5zK620khs4cKBbZ511vH1UjXQn3yU8C89JTLT7/99++829+eabHv9bb721Y2ApbZ4Mzx1LqN977z3H79tvv/U/vM0oj7Fjx6byVItQd55CEKHuvDpPq1CVrrXY+Prrr72R9tRTTzmO7ScPSGvlLNyWQ55msKm+ylFfZa4nPM6mb23/6KOPui233NLbypSNCCKi9SDSeKdnzpzpiPj85ptvUk2LE56F4yK1kY8++shttNFGjoGjNddc022xxRYi1Gk8y7XSoAw22WQTd+mll4pQd3jICkY7HURyvnQzhPr333/3DZKOo5biAIuMgjEyVitNlvOMEPNc8pD2fnVw6uDSYqUn0n388cdu4YUX9iPGWd4nPAvPWXCTvAcdnRzEMRsimZb/6TPoO6r1H9XSpz0nPAvPabHS6nSQ5G222caNHj26Yk+88cYbbplllnHjx4+vnGvmvcKz8NwMXro77YcffuhOOOEEb29ccsklItTWyWXdT58+3Y+2PfHEEyLUERHqe+65xw0YMMAbONYoGYHl3MMPP+w7A+ZqEv5/6623ussvv9z17t3bzTfffO7QQw/tcl+SUDNtYMUVV3TnnXeeN6SuuOIK3xBpnAzOLLjggm6xxRZzTz/9dKXTweD68ssv3YEHHugWWGABTxpWXXVVN2bMGE+s6WiGDh3qfxyTZwjy3nvv7fNj5zDyGDG+7rrr/Ls5Jvzq9ttv9x0d+d955539qLGVu95eHZw6uHr46OlreD0WWWQRH0WU5d3Cs/CcBTeffvqpn2Zwxx13uDPOOMMfM+2AfmTGjBnuuOOO8+cY7Lnwwgu9brb3QC7WWmstr9MXWmght9dee3mPHddPOeUUP4WByDZLT1/AO4YMGdJw8FN4Fp4NNz29B/urr76691rbu6+88kq36aab+rnWOASwUcCzXW+0F56F50YYadd1EeomFhMLCTdufhYkY17Idttt50466SSvIMI0tY4V8l0OhdAMod5qq6284cTiGpDtZZdd1l1zzTWVjiIk1Cxit/HGG/tRLaIbaPwQau7B6HrllVfc66+/7vbZZx+34YYbVsJHpk6d6o2uww8/3E2aNMm98847btSoUW6JJZaojAAzEsx8JIg+zyXsimcwp9QMMkj5uuuu6xgpJg2EmjQ33nijXxzkmWee8YMEp59+eioPuDq4cuC5XZ1MT7+X9jPPPPN4z8juu+/uzj//fPfFF1/IYItosLOnMZXmfUaoN9tsM0eYK33BRRdd5En0Lrvs4gddOYeehTQzAG/PxRBj6ti7777rGGxFX9MXQDgg26R/7bXXKum/+uorr+fDean2rORe+ln6OYmJnvgf3G2//fYe9yFhxiFwzDHHuPvuu89hN0Gujz766Ip90ihvwrPw3Agj7bouQp2RUN98882edOAh3Hfffb0nkVDZWiQ6PC9CXQ6F0AyhJuTDwq/ZH3LIIQ5j3hbZMEKN0QWBPfLIIyvpafwQ6pVXXtlx3ZQB3urVVlutEro6YsQI7x0nIsLS8K5zzz3Xe7c5/uCDDzzphmyT5rnnnnMHH3yw23PPPSsE+tlnn3W77babxyppyM8ee+zRxaN+wQUXeNJtJNzeV22vDq4ceK5WdzGew0MNgeG34447ej3N3KYpU6ZU2k29cgvPwnM9fNS6ZoT6nHPOqeDs888/9wOe6GC7D2813miiguxcOMUG8sH0sUGDBnkdzeAoC92g/y09hL1Pnz6O59u5WnvhWXiuhY3uPM8AEYNLyQWaiH7D3sAxcNddd7lbbrnFrbfeem6HHXbwTqlGeRKehedGGGnXdRHqjIQaogGxwfNByC2rFfJpJOY/heS52rEIdTkUQjOEmo7BGjHGEd5dRl5DQg3BxuvMAIx5kO0eC/kOR3JZ9G6VVVbxHmueyb1nnnlm5T1270svveQY2CE9pJrO6oYbbvDe8dNOO83dfffdDiOPd3APz8BrZ/dDqENjjfN4UQhfZw6Upau1VwdXDjzXqr+Yz9OeaBebb765H1RCPzcqr/AsPDfCSLXrRqgffPDBCsbQn+jR66+/vnKOqCQWrmHQ0p7DNBzuGzZsmNfliy66aJfpRoSR480z/DKl6NRTT+0yKGvPSu6FZ+E5iYnu/h+c7rrrru7ss8+uYNzeaRFxoW3BID/T3F5++eU50tt9theehWfDQtH2ItQZCXWSKENc1l9/fU+yk9eS/4tQl0MhNEOoSWuNuxahBh+EVhPKx1xsS88esktHE54LCTUGFyO4RorDdIS4QrxJz/lrr73WkwcLLcdbzVxsCD0DQHg7+FaePYP3Jp8rQl0OjFodal+/vkaOHOmWW245DRAp7Lui91rdZoxQh2HYVy9mrwAAIABJREFURqjRp/a+JKH+5JNPvO5nwPSqq65yfN6NiKdw/Q4L8X7hhRc8htHZirio3+ZN3tr3vJyY2sA6Fs8//3wF91YPrOli0xnsHAtJsnYLXm07V2svQt3z9VmrLnS+a12IULeIUBOixbxU5qcmCXTyfxHqriAsaqO89957/YIa1JflEeOHULvkomRpCDXfoSYkm7nSeInxJttzGxFq0hEmzqJj5vW2e3k3c+7AGeeYa8dn3JijRMgV3nDyzVxr8r300kt3mVMqQl0OPFp9a998fbFgYL9+/VLN05PB1rx8hcnZfroOi5A1Q6iJoGCtDbBpobGcoz8ICTWYJGx8+PDhPkyWsNkwmqme/IVn4bkePrrjGlMiWSeG6Q3J5zNFbaeddqpEW3Adu2j++ed3eKqT6ZP/C8/CcxITRflfhDoDoX7xxRc9STGijAeQDhFFkWYetQh1ORQCC38Rrsf3bGmwEGBCpeeaa67MhBojiLAmQrQJ+TNynIZQkw++dReGFDKyu/baa3cJH2QhMhYm23bbbX0oN+8Eq8yjZnT4oIMOqryXcolQlwOPRek0ip4PBo+sXZFXFt9jJX6mNYRzVWuVQwab2kMtbNQ7n8VDjW6GUKPDLcII/c0AaUioeS9kAzuDCCNCwOvlJbwmPAvPIR66+xg7idXnWZ2+2qAPEXXYVWPHjvUYJg12FauBp1k8UngWnrsbw1mfL0KdgVCfeOKJ/pNHfNqCkeLll1/eL0IFUTaSXW8vQl0OhYBRfuyxx/oVVlnEix+RCP37989MqK2hsqgMnQqfrqKDSEOoScf7V1hhBb+C8X777eeJOQughV50OjQWQYN8h2GBfNpr7rnn9iGFlg/2ItTlwGNYZzquXWe33XabjyIhhJaFyYjWOOqoo+b4JnAtGcpgqy3bWjLT+WweauTGgDyEGgJ9wAEH+IX0jjjiiDkINZFGgwcP9pFG06ZNE6HW9IXUGOjJ9snA0MCBA+ewMywP2CfYO9gxzLMmio6BIhxVlqbeXvpZ+rkePtp5TYQ6A6FGYfB5CzyGKAG8hHR29Uh0eE2EujwKgbnLhCMxFwgPBMqc+WzUJw2X0VXC/G2xGGvMzJFm0ToboaXOzQNBGjxlPAdvBGmYV8ex3W9peHbobSMt9+F1Y6TX8hTexzGREtwbeuQoC6vCUoYwPe+1z3fZee5ntDi8364l9+rgyoPnZN3F+D9tkxXy+fwbnzakHSQxX6/cwrPwXA8fta5BFNCZ1jeQDv3JOQvn5hw6HJ0bLkxJaCxTdfhcIufRx+h56z/sPgZPWa8ljV62fArPwrNhoSf2YBPshnZL8r3WLlhQla8yhA6BZNrk/8Kz8JzERFH+R3eHdn+afBmee4UkUcezRKg1YtyFqKZpTDGkMYUQQ1lUBnXWwrMwUEQ9YFPLWPCpmfwJz8JzM3gpelrhWXguOkabyZ/hWYQ6g3ebgQd5qKUQmmlwRU9rCqHo+VT+1O7SYEB4Fk7S4KSn0uDdJrKIcHDmptbz/FXLk/AsPFfDRVnPCc/Cc1mxWy3fhmcRahHqpkbKq4FJ58qvHE0hqC7LX5eqw9k+PDxce0AyEa7biYFRo0b59TYg1M3MnbY8Sz8Lv4aFGPbCs/AcA46tDIZnEWoRahFqhbmLgAgDUekB6+Csw9NeBlw7McA8ata/yJoH4Vn4zYqdIt4nPAvPRcRl1jwZnkWoRagzd/JZwaf7iqdMTSGobopXN6qT5utEeG5eZsJZcWUmPBe3btRumq8b4bl5mQlnxZWZ4VmEWoRahFreSXmohYGo9IB1cDJCimuEqG7S143wnF5WwlXxZSU8F7+O1I7S15HhuReLa+nXvAxYVn3MmDGeiCBM/SSDMmOAhfZYebbMZVDe1QYNA8KzsGBYiGEvPAvPMeDYyiA8C8+GhRj2hude48aNc/o1LwPI9IgRIxwL3+gnGZQdA5Bp9EDZy6H8qy2CAeFZOIhJFwjPwrPwLAzEhIGYymL6WSHfOUO+nTZJIAIJ/Pvf//arz0ZQFBVBEnDCs0AQkwSE55hqU2URnoWBmCRgeBahFqGOCdcqS0YJmELIeLtukwQKJQHhuVDVoczklIDwnFOAur1QEhCeC1UdykxOCRieRahFqHNCSbfHIAFTCDGURWWQBIRnYSAmCQjPMdWmyiI8CwMxScDwLEItQh0TrlWWjBIwhZDxdt0mCRRKAsJzoapDmckpAeE5pwB1e6EkIDwXqjqUmZwSMDyLUItQ54SSbo9BAqYQYiiLyiAJCM/CQEwSEJ5jqk2VRXgWBmKSgOFZhFqEOiZcqywZJWAKIePtuk0SKJQEhOdCVYcyk1MCwnNOAer2QklAeC5UdSgzOSVgeBahFqHOCSXdHoMETCHEUBaVQRIQnoWBmCQgPMdUmyqL8CwMxCQBw7MItQh1TLhWWTJKwBRCxtt1myRQKAkIz4WqDmUmpwSE55wC1O2FkoDwXKjqUGZySsDwLEItQp0TSp1z+//+9z/HL8bNFEKMZVOZOk8CwnPn1XnMJRaeY67dziub8Nx5dR5ziQ3PItT/P6H+4Ycf3PTp093MmTPdrBQk+7vvvnPjxo2LGSMqW0ICt99+u7viiisSZ+P41xRCHKVRKcouAQau/vjjD/fbb791+f3rX/9KVTThOZWYlKgkEhCeS1JREWXz999/dx988IH74osvqjoS0NFff/21e//99x32cDPOBuE5IqBEVhRsjFdeecWB0bSb4VmEetYsN2PGDLfffvu5AQMGeMUgQp0WRp2V7owzznAHHXRQlIU2hRBl4VSo0kng119/dRtttJFbYokl3NJLL135jR07NlVZhOdUYlKikkhAeC5JRUWQzf/85z8O50Hfvn3dBhts4FZaaSW3++67u2+//bZSOmzmYcOGudVXX92nWWqppfz/2M5pNuE5jZSUpiclAO4ZQDrqqKPctttu6/7+97+nfr3hWYR61iz3zDPPuAUXXFCEOjV8OjOhCHVn1rtK3fMSIFJo0KBB7oUXXvBRQ/zP788//0yVGevgUiVWIkmg4BIQngteQRFl76WXXnKrrrqqe/nll90//vEP73DaZptt3PHHH1/xQhOdCen++eefK2k222wzd8opp6Ty7AnPEQEmgqJ8+eWXbpNNNnG9e/d2a6+9tttqq61EqNN4lpNpECSjb6eddpoIdQQNoxVF+Oc//+k7iWQIUzOE+r///a9vkHQctTbIAaNgjIy1ciNkheeSh7SbOri0klK6npAA028WXnhhH06Y5X3Ccxap6Z6kBNDR9AfhBsmoNbBDn4HuJU2y/wif0eyx8NysxJQ+iwSwRfDQnXjiiV3wO3nyZLfeeuu5b775xj8WfCe3a6+91q2zzjqO6KJGm/DcSEK63pMS+Pzzz92pp57qPdRXXnmlCHWSKKf5/6effnLnnXee23fffd2zzz4rQt2TCO6hdz300ENu/fXX90aOvZJ5mZx74okn/CnmCq255pru7rvvdtdcc40jfGm++eZzRx55pDeM7L4koX7rrbdcnz593MUXX+w7HzqUrbfe2s852nzzzd1CCy3kFltsMe9ls2dgZP34448+PGqBBRZwiyyyiA+bevrppz2xpqM5+OCD/Y9jNggyUxLIj53DyGPU+Oabb/bv5r1XXXWVu/fee92yyy7r87/bbrv5eaj27np7dXD1pKNrPS0BQq8WXXRR9+mnn2Z6tfCcSWwdfxOEYfHFF3f333+/O+ecc/yUA/5/+OGH3S+//OJOPvlkf47Bnssuu6wL2cajB6FAp6P70dnYIWzDhw/3UxhCskFfwDuGDh3acPBTeO54aPaIABgMwpZIrhXz/fffu5VXXtm9+OKLNfOB7bTddtu52bNn10xjF4Rnk4T2RZOACHWKRcSqEWzCCXHzQ4yef/55EeqiIbsF+WmGUDNvAsPpo48+8mR7ueWWczfddFNlpDYk1Mwh2nTTTX2Ik3UgEGruOemkk9ybb77p3n33XTdkyBCPMUtDRAQhJX/5y18co74ff/yxGz16tDfS7rvvPl9i9owGsygTG6GuG2+8sTfIGAxgYxG9fv36uSlTpvj/6QTB8m233ebzT8fHIMHZZ5+dygOuDs6LUX8KIgHaz7zzzuu23357t9dee7lLLrnEYdSl3YTntJJSulACRqi32GIL9+STT3pdevnll3uSTSTbXXfd5aZOner1LKR5/PjxldsxxCZMmOA++eQTr/9ZAwACjtcPsg0Jf+eddyrpGVhFz48ZM6ZyrtaB8FxLMjrfSgkweM86MfzCyDkwj6MB+6jaxkARId/XX399w8Eh7heeq0lR54ogARHqDIQaIrLhhhv6eSCQbRHqIkC59XlohlAT8mGdCAr/iCOO8MY8nQybEWqMLrzDxxxzTCU91yHULOQRLt5BKAkLd7ASJtvIkSO9dxySbBvvvOiii3yYCcfcg6cDYs82ceJEd9hhh/lICiPQGGh77rlnJfQQQr333nt38ahfeuml3mALvSL2zuReHVxSIvq/nRLAQw2B4bfLLru4tdZayw9EQVbSbMJzGikpTVICRqgvvPDCyiVWMGZxPHSwbXir0dFEBdkWhnhzzDUWdSI8ligovHdXX321JfeEnQWfeH6jTXhuJCFdb5UEmEPNQpAQC/Qwg/MHHHCAI6KuGqEmimjHHXf09oc5DhrlRXhuJCFdb5cERKibJNSQGUbg8BLSmYlQtwu63f/eZgj1Aw88UMkQ84/POussR+i2zaGDUOMtw+u8//77VzzIdhOEmsUMQsOKRTtWW201HwXBM7mPaQbJ7Y033vDEm/R0Nvvss4+79dZb/bPIx4MPPugw8girYjv33HO9186eA6EOjTXO461mVNnCDi1ttb06uGpS0bkiSID2BIHZcsstfbuoNn8vmU/hOSkR/Z9GAkaoQ68x+hM9esstt1QeQfQQOpdBS9uYV/3YY4954s0gKlMWwulGRB6Fq8cyYEsouA3i2nOq7YXnalLRue6QAHbK448/7pZffnk/dQEME8W5xhprdAn5Ri8TobHCCiu44447zn/eMG1+hOe0klK6npaACHUThBoyDfFZZpll/JxUFl/gxwgc51AMrF5IJ1rvBxHXd6h7GurNv68ZQk1a22oRajwOhFYT1o3XIdzAFUZWuIWEGmK+8847V0hxmI4OC+JNerZRo0Z58mCh5YSGM0UBQk/oK4bZq6++WnkE7+X94SZCHUpDx2WXwA033OCNPGsj9cojg62edHStlgSMUEMobDNCjT61LUmo+R4vUUsMmBL2yufdiHgKCbWFeL/22mvetiC9Ii5MotoXTQLoUOZUs+db1P379/d78oktw/otAwcO9OsNkKaZTfq5GWkpbU9KQIS6AfkNiTELkRGKRXhs+IOgLLnkkm6PPfZw559/fl0yzfNEqHsS4tnf9cgjj/iRVZt7zJNYQZhQu+SiZGkINZENn332mZ8rjac59C40ItS8mzBxFh2zMHIrGe9mzp2tHstcO8KuyP/gwYM9ecdoA6Pkm8GfcE6pCLVJUvtYJUAExoABA7SKbKwVXIByZSHUeOpYawNsQkDYOEd/EBJqSMThhx/uo4uIhmLRSNKl2URA0khJabpDAmD0xhtv9AP8RpzxTGOLsE5Mlk14ziI13dMTEhChboJQh+Q6PNYc6p6Aas+/4+233/bhetQvGwSYBY7mmmuuzISaDsZCtAn5M3KchlCTD751F4YUQvDXXXfdLuGDYJNzO+ywgw/l5p2QbULBWT320EMPrYSiUy4R6p7Hlt7YfRKgTVi74i2sHcA8akg10SONNhlsjSSk69UkkIdQM6eaqQlsRMIxQBoSas4zPxXizXxqW4SyWj6S54TnpET0f3dJAO+zEWfe8dxzz3kHBAvu2cZ6AnyXOkxn19Lshec0UlKadkhAhFqEuh24K8U7McoJ6WdFVqIPWMiLCAVClbJ6qK3grALL3DrCs+kg0hBq8sP7+dwWKxgfeOCBPtSb+XShFx3if/rpp3vyPW3aNHulX2V27rnn9iGFlZMi1KEodByBBPiEHVEkhNCyMBnRGkzHsfUMGhVRBlsjCel6NQlkIdQ8hyk5DIBCoIliYiG9o48+eg5CTag462zg3eNdaTfhOa2klC6vBIjAY1rbsGHDvI3CegBm49izGejHKZH8YWfx9ZJGm/DcSEK63i4JiFC3gFATPgtxYWQ59FzXOlbId7vg3vx7McJZOXvSpEl+BW6UOfPZbHEjvL/h//YGCC544Dob/4fzN/GUcZ+lwVjiONxIwyeuQm+b3YfXjc8DsSo4eUpuhA9yb+iRoyxgL5me9/L+cGPFTXAd3h9eD4/VwYXS0HG7JUDbZN4eK8xioNEOkpivl0fhuZ50dK2WBBjIRGda30A69CfnwhWM6RPQueE6GnxNgRBYfpxHHzPFzPoPnsUxg6csNJlGL1s+hWeThPbdLQHaALqXr4uwyjc2T4hh3g/2Wd8l+cM2CW2dWnkVnmtJRufbLQGz45OYr5cvw3OvWoRR57UoWT0A6VpcEjCFEFepVJpOlYDw3Kk1X+xy8ylEFneyTyKmza3wnFZSSlcGCQjPZagl5TGtBAzPItQZvdvyUKeFmtKVQQKmEMqQV+VREmgkAeG5kYR0vSclQLQRNgNhtEOHDk3lxQvzJzyH0tBx2SUgPJe9BpX/UAKGZxFqEeoQFzruUAmYQujQ4qvYkUlAeI6sQktenNGjR/v1NiDUzcydtmILzyYJ7WOQgPAcQy2qDCYBw7MItQi1YUL7DpaAKYQOFoGKHpEEhOeIKjOCojAfL+2CetWKKzxXk4rOlVUCwnNZa075riYBw7MItQh1NXzoXIdJwBRChxVbxY1UAsJzpBXbocUSnju04iMttvAcacV2aLEMzyLUItQd2gRU7FACphDCczqWBMoqAeG5rDWnfFeTgPBcTSo6V1YJCM9lrTnlu5oEDM+9WChDv+ZlMH36dDdmzBj/KReEqZ9kUGYM/Pnnn37l2TKXQXlXGzQMCM/CgmEhhr3wLDzHgGMrg/AsPBsWYtgbnnuNGzfO6de8DCDTI0aM8N+u5vvV+kkGZcYAn3GZMGGCcKy2HAUGhGfp4zLr42TehWfhOYmJMv8vPAvPZcZvMu+GZ4V85wz5nj17ttNPMig7Bn799Vc3ZcoUYVntOQoMCM/SyWXXyWH+hWfhOcRD2Y+FZ+G57BgO8294FqEWoY7CgA7BrePmlbUpBMmuedlJZsWTmfBcvDpRO8leJ8JzdtkJd8WTnfBcvDpRO8leJ4ZnEWoRahFqeSWdKQQp1exKVbIrjuyE5+LUhdpF/roQnvPLUDgsjgyF5+LUhdpF/rowPItQi1CLUItQi1ALA1HpAevgZCzkNxYkw/bLUHhufx2oHbSuDoTn1slSuGy/LA3PItQi1FEZ0lIu2ZSLKQTJL5v8JLdiyU14LlZ9qH3kqw/hOZ/8hL9iyU94LlZ9qH3kqw/Dswi1CLUItbyT8lALA1HpAevgZCjkMxQkv2LIT3guRj2oPbSmHoTn1shReCyGHA3PItQi1FEZ0lIw2RSMKQTJL5v8JLdiyU14LlZ9qH3kqw/hOZ/8hL9iyU94LlZ9qH3kqw/Dswi1CLUItbyT8lALA1HpAevgZCjkMxQkv2LIT3guRj2oPbSmHoTn1shReCyGHA3PItQi1FEZ0t2pYP744w/Hrzvf0a5nm0Jo1/v13mJ0DLHUg/AsPMWCZcohPAvPwrMwEBMGYiqL6eeOJdQzZ85006dPd1999VWX3w8//OBmpSDZ3333nRs3blyU5ComoLeyLDfddJO7+OKLo6xzUwitlJeeJQMgKwYYuEIXf//9911+v/zyS6r2JzwLe1mxV8T7hGfhuTtw+fHHH3v7t9qz0b1vvfWW+/DDD2s6EmbMmOHefPNNN23atJppqj1beBaeq+GiCOfA5oQJE/wgZtr8GJ47llB/+eWXbtCgQW7xxRd3vXv3rvzuv/9+EWqFv1Y12k8++WS3//77V72WtuEVNZ0phKLmT/nqrA6YAcsNNtjA6+elllrK2e+RRx5J1f6E587CS+z6QXgWnluFcQYrcSZdf/31rk+fPu7VV1/tolN/++03h/Ng5ZVXduuvv75Ps8suu7hPP/20ku7nn392o0aNcn379vV2NM859NBDHXo7TT6FZ+E5DU56Mg24Z3DosMMOc1tvvbX76aefUmGZPBqeO5ZQoxwGDBjgHn/8cffZZ59VfigEeajV2Ks1ZBFq4aIaLnSu9bj4+uuv3cCBA91TTz3lOLYfhlwaeVsHlyat0rS+/iTT1spUeG6tPDsZn+eff75beuml3eqrr+4WXHDBOQj1s88+61ZZZRU3fvx4RyQn9vGWW27pjj766IoXGg8ezqgXXnjB28vo58GDB7sLL7zQ/f777w11tPAsPBepDX700Uduo402cksuuaRbc8013RZbbCFCnYYIW5r33nvPLbTQQm7ixImpCLTdZ3uFfMerEDDa6UiS86WbIdR0Koxw0XHUUhxgiTSMjNVKk+U8YbE8N03HZs9XBxcvnq2Oy7QnFHHhhRf2I8ZZ8i08C89ZcJO8Bx2dHMQxGyCZlv/pM+g7qvUf1dKnPSc8C89psdIo3XXXXefuu+8+98orr8xBqLFF8NAde+yxXewf7OR11lnHh3bz/BtvvNHtsMMOHuf2Pp67/fbbpyIiwrPwbLgpwp5pDSeccIK3Ny655BIRauvk0u4nTZrkFllkET9HJO09YToR6nIohHvuucdHImDgWMNlbhDRCQ8//LA/x1zNNdZYw916663u8ssv9+H/8803nw9hCu9LEmpCpVZccUV33nnn+c7niiuu8A2RxrnJJpv4zmqxxRZzTz/9dOXdGFxMNzjwwAPdAgss4EnDqquu6saMGeOJNR3N0KFD/Y9j8gxB3nvvvX1+7BxGHqPGdGI8k+PLLrvM3X777W6ZZZZx5H/nnXd2P/74Y+XdVv5qe3Vw5cBztbqL8Rxz99DPDHxmKZ/wLDxnwQ2Ra3je7rjjDnfGGWf4Y/6nH2G+6HHHHefPMdiDNy6c049Hb6211vI6ncH6vfbay33zzTcev6eccoqfwhCGxKK3eceQIUMaDn4Kz8JzFjzXu+dvf/vbHIQaewfvXHKtmC+++MKttNJKFVvmscce81jHluEdYPm0005zxxxzTF0nguVHeBaeDQtF24tQp1hELCTDHD///PNunnnmcVtttZXbdddd3dlnn+1w+yfT1fpfhLocCqEZQg0WSP/22297sr3sssu6a665pjJSGxJqwqA23nhjP6plpBVCzT0YXYz+vv76626fffZxG264YWXUdurUqb4jOvzwwx2DOu+8846fi7TEEku40aNH+86JPaPBEH2UDeFUPIM5pWaQ0ZGtu+667o033vBpINSkYeSY/D/zzDN+kOD0009P5QFXB1cOPBet8+mu/NB+0M/bbLON23333R1hihh1ad8nPAvPabESpjNCvdlmm7lHH33U69KLLrrIk2jmkTLoin5Fz0Kan3jiiQomMcRYqPTdd9/1YbToa/oCvH6QbdK/9tprlfQsiIqef+ihhyrnwryEx8Kz8BzioRXH1Qg1ODvggAP8L4ycmzx5sl/H4t577/VYhXgPHz7c284jR450hxxyiNtjjz28syBN3oRn4TkNTtqRRoQ6A6GGzOy4447+R5gK80nwUjIpvRaJDs+LUJdDITRDqAn5sE6EPZ0Exrx5IYxQY3RBYI888shKeho+hJqFPLhuigBv9WqrrVYJXR0xYoT3jrMoiKXhXeeee64fGeb4gw8+8KQbsk2a5557zh188MFuzz33rBBo5jnttttuHqukIT90aKFH/YILLvCk20i4va/aXh1cOfBcre5iPIeHGgLDDz2NbmZu05QpUyrtpl65hWfhuR4+al0zQn3OOedUcPb55587BjzRwXYf3mq80UQF2blwig0eu0svvdQv2ITdwOAoC92g/y09hJ3FnHi+nau1F56F51rYyHq+GqHmWdgWLAIJftHDDM7vu+++PqLOCDU2BVju37+/nzvN4D5EPA2WeYfwLDxnxW133ydCnYFQh+QYEoL3g1FpSAqdZXi92rEIdTkUQjOE+q677qoYNhhHeHc33XTTLoQago3XmQ7GPMjWwC3kG2PKzn377bd+gQ88bjyTe88888zKdUv30ksvOUK/SQ+phhzfcMMNlVCqu+++22Hk8Q7u4Rl47ex+CHVorHEeLwor2FvYoaWttlcHVw48V6u72M/RnmgXm2++uR9UCgeNapVdeBaea2Gj3nkj1A8++GBFt6I/0aOsimz3EpVEaCyDlnaOaTjcN2zYMK/LF1100S7TjQgjJwrK8MuqyKeeemqXQVl7VnIvPAvPSUzk/b8WocZOIWpiueWW81EVkGamt+F0sulr2BpMa/vkk088OaY94LFGR2sAX1jNi8123i9CnZNQG2Fm/iwhu4yy2blaexHqciiNZgg1aa0h1yLUfEaC0GpC+ZiLbenZQ3YhtuG5kFBjcLGQh5HiMB2Em5U1Sc/5a6+91pMHCy3HW01nBqFn8AdvBytt2jN4b/K5ItTlwKjVofb164vQQow8DRDVl5NwlF0+RqjDMGwj1OhTk22SUEMs0MEMmF511VWOz7sR8cRaHUagLcSblZF5JukVcZG9rqwutM8mw1qE2uTJIA7YZU+k3XrrreeYssb/EGfzVlt6pjowrYGpbnau1l4DRNnqrJY8db518hShbhGhRpCErjA/tRaRtvMi1K0DcHcqA5Q+I6vhqCnGD6F2yUXJ0hBqvkNNSDYDL3iJ8SZb/hsRatIRJs6iYxZGbvfybubcgS/OMdeOsCtW4yRyAm84+Sb0kHzz2YtwTqkIdTnwaPWtffP1xYBnv379urTlWnKUwda8fGvJspPOZyHURFCw1gbYtG+Xco7+ICTUYJKwcTx5REOxaGTANHEPAAAgAElEQVQYzVRPzsKz8FwPH1muNSLU9kwwevXVV/sBfnCIjYKt8sADD1RsH9JiF1X7DJc9J9wLz8JziIciHYtQZyDUrB4LSTGCjIcQ4oUw6RTtfK29CHU5FAJz5QnX43u2NFoIMKHSc801V2ZCTQfz8ssv+7A+Qv6MHKch1OSDb92FIYV8ImjttdfuEj7IQmQsWLPtttv6UG7eCRaZR82K3wcddFDlvZRLhLoceCxSx1HkvDB4ZO2KfLL4HvOoCTUkeqRR3mWwqT00wki163kINTrcIozQ35COkFDzPuanQryJMCIEvFoeqp0TnoXnarjIc64WoSaSDrzZs5988knvgGDBPTvHZ7UI+SbqgnPYJ6wDgw0dDvRb+uReeBaek5goyv8i1BkI9ahRo/wnj/i0xU477eRJ1xFHHOG9H7VIdHhehLocCgGjHOVPKBLz4/mx2AbzgrJ6qK3hs6gMZJ1PV9FBpCHUpOP9K6ywgl/BeL/99vPEnAXQQi86xJ9F0CDfYVggq8zOPffcPqTQ8sFehLoceAzrTMe16+y2227zRhwhtCxMRrTGUUcdNcc3gWvJUAZbbdnWkpnOz/YLSvKZrGZDvpmSA6GGQLM4EwvpYU8kCTWD+IMHD/aRRtOmTasQlEayF56F50YYafZ6LUKNp5lpbeCYryywtgtT0MCgvYMv4jDY37dvX7+eDFPhcABAuiHXlq7WXngWnmtho93nRagzEGoWHqMT5LMXL774osNLGHqsQ/Jc7ViEujwKgRFXOgk+lYYHAmXOyCr1SuOlAyDM3+a6WYNmjjSrcVsHQZ2bB4I0eMp4Dt4I0jCvjmO739Lw7NDbRlruw+tGZITlKbyPYyIluDf0yFEW5viHnRtpeS/vD5/B/YwWh/eH18NjdXDlwXNYb7Ee0zaZt8cKsxMnTvTtIIn5emUXnoXneviodY2BTHSm9Q2kQ39yzsK5OYcOR+diM9izsCmYqsMcUs6jj9Hz1n/YfQye8s3eNHrZni08C8+GhVbtwRS2RGib8GzaAHOl+boIq3xj84QYtvdji0Cs+aQW86eTa8pYump74Vl4roaLIpxDd4d2f5o8GZ57VSOLOjdLId+z1eDTNKRY0phCiKU8Kkdnt1/hubPrv6jtn0F8Qr75lnUzeRSehedm8FL0tMKz8Fx0jDaTP8OzCHUG7zYDDvJQSyE00+CKntYUQtHzqfyp3aXBgPAsnKTBSU+lwbuNN5Aw2iFDhszhFWyUD+FZeG6EkTJdF56F5zLhtVFeDc8i1CLUTY2UNwKWrpdTUZpCUP2Vs/5Ub13rTXjuKg/ho73yYM0W1tuAUDczd9rqTXhub/1ZPWjfmnoQnlsjR+GxGHI0PItQi1CLUCu83c/JDhc/k6IuhqJWPWSrB+vgJL9s8pPcWis35qAy5zSrXIXn1tZH1nrQfa2pB+G5NXIUHoshR8OzCLUIdeZOXo25GI25FfVgCqEVz9Iz4sFFWetSeBYGy4rdavkWnoXnargo6znhWXguK3ar5dvwLEItQi1CLQ+1PNTCQFR6wDq4ap2fzsmYKxsGhGdhtmyYrZdf4Vl4roePsl0zPPdicS39mpcBy6qPGTPGExGEqZ9kUGYMsNAeK8+WuQzKu9qgYUB4FhYMCzHshWfhOQYcWxmEZ+HZsBDD3vDciw+x69e8DCDTI0aMcMw71U8yKDsGINPogbKXQ/lXWwQDwrNwEJMuEJ6FZ+FZGIgJAzGVxfSzQr5zhnw7bZJABBL497//7VefjaAoKoIk4IRngSAmCQjPMdWmyiI8CwMxScDwLEItQh0TrlWWjBIwhZDxdt0mCRRKAsJzoapDmckpAeE5pwB1e6EkIDwXqjqUmZwSMDyLUItQ54SSbo9BAqYQYiiLyiAJCM/CQEwSEJ5jqk2VRXgWBmKSgOFZhFqEOiZcqywZJWAKIePtuk0SKJQEhOdCVYcyk1MCwnNOAer2QklAeC5UdSgzOSVgeBahFqHOCSXdHoMETCHEUBaVQRIQnoWBmCQgPMdUmyqL8CwMxCQBw7MItQh1TLhWWTJKwBRCxtt1myRQKAkIz4WqDmUmpwSE55wC1O2FkoDwXKjqUGZySsDwLEItQp0TSro9BgmYQoihLCqDJCA8CwMxSUB4jqk2VRbhWRiISQKGZxFqEeqYcK2yZJSAKYSMt+s2SaBQEhCeC1UdykxOCQjPOQWo2wslAeG5UNWhzOSUgOFZhFqEOieUOuf2//3vf45fjJsphBjLpjJ1ngSE586r85hLLDzHXLudVzbhufPqPOYSG55FqGfNcl999ZWbNGmSe/311913333nZqUg2aQbN25czBhR2RISuP32290VV1yROBvHv6YQ4iiNSlF2CTBw9ccff7jffvuty+9f//pXqqIJz6nEpEQlkYDwXJKKKlk2p0+f7n788cc5cv3f//7Xff311+79999333777RzX7cTMmTN9GtI242wQnk2C2hdNAtgYr7zyigOjaTfDc0cT6hkzZriLLrrI9enTx/Xv39+tvfbabt9993Xff/99Q1ItQp0WavGkO+OMM9xBBx0UT4GCkphCCE7pUBJomwR+/fVXt9FGG7kllljCLb300pXf2LFjU+VJeE4lJiUqiQSE55JUVAmyCfH96aef3C233OJWWmklN3ny5C65/uWXX9y2227r1ltvPbfhhht63Xv44Ye7n3/+uZLu73//u3curLzyym6DDTZwyy67rDv++OPd7NmzK2nqHQjP9aSja+2QwH/+8x/3wQcfuKOOOsrjH4yn3QzPHUuoGVk7//zz3YABA9xrr73mR+EYZfv8888d1xp5qUWo00ItnnQi1PHUpUpSbAmggwcNGuReeOEFr4/5n9+ff/6ZKuPWwaVKrESSQMElIDwXvIJKlL1LLrnEk+Q111zTLbTQQnMQ6t9//9198sknnhz/4x//cG+++aZbdNFF3ejRoyulHDVqlFtxxRW9d5o0eLHR1yNGjHB4txttwnMjCel6T0rgyy+/dJtssonr3bu3d6xutdVWToQ6Rai2EeVXX33VKxXCtu1cM3sR6p6Ee8++65///Kejk0iGMDVDqOlUaJB0HLU2yAFpGBlr5UbICs9N07HZe9XBmSS0L4IECEVceOGFvcGWJT/Ccxap6Z6kBNDR9AfhRt9Qa2CHPgPdW63/CJ/R7LHw3KzElL6WBG6++Wb317/+1RPlaoQ6eR/4J3LztNNO85fA+I477uiuvPLKLjbG3Xff7dZYYw0/8Jl8RvJ/4TkpEf3fTgngSD311FO9hxpci1A3QaYhzoykbbzxxs7mkBDmncYzbaRbhLqd8E//7oceesitv/763sixu5iXybknnnjCn2JEltFaOoRrrrnGLbXUUm6++eZzRx55pDeM7L4koX7rrbf8dIGLL77Yk+9rr73Wbb311u6LL75wm2++uR/9XWyxxbyXzZ5BZ8ScpWHDhrkFFljALbLIIm711Vd3Tz/9tCfWdDQHH3yw/3HMBkHeb7/9fH7sHJ3cNtts4+gceSbvveqqq9y9997rw6/I/2677ebnodq76+3VwdWTjq71tAQIvcIr8umnn2Z6tfCcSWwdf9M333zjFl98cXf//fe7c845x0854P+HH37YEQp78skn+3MM9lx22WVdyPbLL7/s1llnHa/TISrobOwFtuHDh/spDExlsA29zTuGDh3ahZjY9XAvPIfS0HErJPDee+9V9VAnn429tMUWW1Q81AwmEeb96KOPdkkK/rFn8G432oTnRhLS9XZJQIS6STJNJ7f//vv7WPk777zTKwvINQQK17+R5np7Eep2wb259zZDqJk3hOH00UcfebK93HLLuZtuuqniqQ4JNfPvN910U3fKKadU5g1BqLnnpJNO8qO/7777rhsyZIgPJbG5ReCLufp/+ctffKjVxx9/7Dsq5ored999vnDsmb/EokxsDPSAT+aU0rmx/fDDD65fv35uypQp/n8INSErt912m8//iy++6AcJzj777FQecHVwXoz6UxAJEGY477zzuu23397ttddejjBFBj3TbsJzWkkpXSgBI9QQiCeffNLr0ssvv9yT7N13393dddddburUqV7PQprHjx9fuR1DbMKECZ5QgF/0NQScCCTIBiT8nXfeqaRnYBU9P2bMmMq5WgfCcy3J6HxWCdQj1MyxZkEycHvggQe6vffeu+J5JvKNwXw81mF03SOPPJKKoJNf4Tlrrem+7paACHUGQr3DDjt4D96hhx7qWL35hhtucOuuu67bbrvt/Krf9cg010SouxvWrXl+M4SakA/rIFD4RxxxhDfmbWVhI9QYXXQoxxxzTCU9uYVQ9+3bt8uqmISS4IGmc2IbOXKk945Dkm3jnSyOR5gJx9yDpwNizzZx4kR32GGH+bArI9B0dHvuuWcl9BBCTadHqKFtl156qTfYQq+IXUvu1cElJaL/2ykBPNQQGH677LKLW2uttfxAVBrvB/kWnttZe+V9txHqCy+8sFII+noGPNHBtuGtRkcTFWQbHmfbOOYanjx0MlFQ2BZXX321JfGEnUWheH6jTXhuJCFdb1YC9Qg1UyEZ+F9llVW8ncFAUWhbsKAZ3mgcUtg2XCcMPE0IOfkUnputLaXvKQmIUGcg1IMHD/aLKHz22WcVjzRKZMEFF3TPPfdc5VwtYi1C3VPwzveeZgj1Aw88UHkZo7BnnXWWD922OXQQarxleJ2JcDAPst0EoYYUh4YVK2OuttpqjvBwnsl95513nt1S2b/xxhueeJOezmafffZxt956q38W+XjwwQcdRh4h6Wznnnuu99rZAyDUobHGebzVhK+D4UabOrhGEtL1dkmA9gSB2XLLLX27CA27WnkSnmtJRufrScAIdeg1Rn+iRyERtqH70bkMWtpGKOxjjz3miTeDqExZCKcbEXlEFBRzrNkYsCUU3AZx7TnV9sJzNanoXB4J1CPUOBHAOIPxLNqLoyDEOtfvuOMOP9AEiQbXjz/+uEK+81SI7i2EBESoMxBqvHtHH320n89qpBkFw9xTOkU7V2svQl0I7DfMRDOEmrS21SLUeBwIrSasG69DuNkc6vBcSKgh5jvvvHOFFIfpINwQb/s0BatoQqottJzQcFY8htAT+koHxsJ6tmHc8f5wE6EOpaHjskuAKKLll1++0kbqlUcEpJ50dK2WBIxQQw5sM0KNPrUtSaj5QghRSwyYXn/99Y7PuxHxFBJqC/GGoPBM0iviwiSqfU9LoB6hTuYFZwOf0AK34YZNYwugPvXUU/4zXExHa7RJPzeSkK63SwIi1BkI9ZlnnulDVFju30jz22+/7eaff36XZuVvEep2wb259zKvh5Unbe4xd7MQHaF2yUXJ0hBqvkNNVANzpfE0h96FRoSadxMmzqJjFkZupeHdzLmz1WOZa8f3d8k/0RSQd4y2JZdc0ud7mWWW6TKnVITaJKl9rBIgAoPPHGoKQ6w13P5yZSHURFCw1gbYNO8z5+gPQkINieB7vkQXQVBYNDKMZqpXehGQetLRtSwSaIZQE7UJoWZudbUNHPMdauwbsNpoE54bSUjX2yUBEeoMhPr555/33xzj8wEQaua0suImXkK8gUaya+1FqNsF9+beyyAJ4XrUNxsEmAWO5pprrsyEms7DQrQJgzJynIZQG+7CkEIIPvP3w5AqcMc55vpDJHgnZBuvNavHMvffQtEplwh1c7hQ6mJLgDZh7YqcsnYA86hpC0SPNNpksDWSkK5Xk0AeQs2caqYmsGFPMEAaEmrOv/TSS554M5/aFqGslo/kOeE5KRH9n1cCtQg1C+pZpBzvwOnEdJsTTjih4kBg2o0NBmFTMSWtf//+btq0aamyJTynEpMStUECItQZCDUjbRCYFVZYwYfhEsYLgWHVzlokOjwvQt0GpGd4JUb5iSee6BfL2GOPPfwCGywWM3DgwMyE2rLBKrCQdcKz6SDSEGryw/v79OnjVzBmBU0GcZhPF3rR6aROP/10P+gTdlKsMjv33HP7kELLB3sR6lAaOi67BPiEHVEkhNCyMBnRGscdd1yXQaR6ZZTBVk86ulZLAlkINc9iEB77AQJNFBML6TGlLEmoCRVnnQ0ijXhX2k14TisppUsrgVqEmoEeptYwvQz9y/xpoikg1rYxpQG88/lPVsTns6Ohk8DS1doLz7Uko/PtloAIdQZCDTmGVNMRskLhpEmTUq3ubaRahLrdsE//fjy5rJxNHdMpoMyZz2aLGzHSGv5vT4bg4mmwkVj+D0du8ZRxn6XBWOI43EjDnKLQ22b34XVjNNjyFN7HMeGD3Bt65CgL2KMM4cZ7eX+48aku5luH94fXw2N1cKE0dNxuCdA2+Z47n3+bPHmybwdJzNfLo/BcTzq6VksCDGSiM61vIB36k3P26UPO0Segc8N1NJiKwKcS+XEefYyNYf2H3cfgKQtNptHLlk/h2SShfaskAKawJULbhGdjYzC9DNuEHwM/YTQcaYiWY6Af/cw6ANhGIc4b5VF4biQhXW+XBMyOz4LnXkYQtZ+VyjNtchKhbhfc9d7ukIA6uO6Qqp7ZLgkIz+2SvN5bTwJ8CpHQWPskYr204TXhOZSGjssuAeG57DWo/IcSMDyLUGf0botQh3DScdklYAqh7OVQ/iUBJCA8CwdFkgDRRtgMhMgOHTp0Dq9go7wKz40kpOtlkoDwXKbaUl4bScDwLEItQt0IK7reARIwhdABRVURO0ACwnMHVHKJijh69Gi/3gaEupm501ZE4dkkoX0MEhCeY6hFlcEkYHgWoRahNkxo38ESMIXQwSJQ0SOSgPAcUWVGUBTm4yXnoTZTLOG5GWkpbdElIDwXvYaUv2YkYHgWoRahbgY3ShupBEwhRFo8FavDJCA8d1iFR15c4TnyCu6w4gnPHVbhkRfX8CxCLUIdOdRVvDQSMIWQJq3SSAJFl4DwXPQaUv6akYDw3Iy0lLboEhCei15Dyl8zEjA892KhDP2al8H06dP9d/cQpH6SQdkxwGcwWHm27OVQ/tUWwYDwLBzEpAuEZ+FZeBYGYsJATGUx/dxr3LhxTr/mZcBH7EeMGOG/xcf3+PSTDMqMAcg032MvcxmUd7VBw4DwLCwYFmLYC8/Ccww4tjIIz8KzYSGGveFZId85Q75nz57t9JMMyo6BX3/91U2ZMkVYVnuOAgPCs3Ry2XVymH/hWXgO8VD2Y+FZeC47hsP8G55FqEWoozCgQ3DruHllbQpBsmtedpJZ8WQmPBevTtROsteJ8JxddsJd8WQnPBevTtROsteJ4VmEWoRahFpeSWcKQUo1u1KV7IojO+G5OHWhdpG/LoTn/DIUDosjQ+G5OHWhdpG/LgzPItQi1CLUItQi1MJAVHrAOjgZC/mNBcmw/TIUnttfB2oHrasD4bl1shQu2y9Lw7MItQh1VIa0lEs25WIKQfLLJj/JrVhyE56LVR9qH/nqQ3jOJz/hr1jyE56LVR9qH/nqw/AsQi1CLUIt76Q81MJAVHrAOjgZCvkMBcmvGPITnotRD2oP/x977+J3xdT///sXPB7hpkISITkmlESUksjprhxDB8ecqRDKqVSKcihU7nLmJolSilIOJSUqpcip5BaVM+v7eK7f770/c037MHvvq2vPzPWax2NfM9eaNTNrvdZr3mu91nqvNdVTDuJz9eAoPsYDR+OzBLUEdaoa0jIwpRkYMwjCrzT8hFu8cBOf41Ueej/KKw/xuTz8xL944Sc+x6s89H6UVx7GZwlqCWoJao1OaoRaHEiVHbAKTg2F8hoKwi8e+InP8SgHvQ/VUw7ic/XgKD7GA0fjswS1BHWqGtLb0sBs3rzZ8duWz6jUvc0gVOr5em48Koa0lIP4LD6lhcvkQ3wWn8VncSBNHEhTXsw+11pB/fXXX7svv/wy6+/77793/ysgtL/77js3derUVIqrNBG9OvMyZswYN3jw4FSWuRmE6sRL91IDoFQO0HG1fv16t27duiq/jRs3Rnr/xGdxr1TuxfE68Vl8rk5ebtiwwX344Yfuo48+cj/++GNem7pw4ULfoRN8Pm3ksG22/3/++ee89+M+4rP4HORTnI7h5syZM7fifL40Gp9rraA+/fTTXcOGDav8dtttN1e3bl03d+5cCWq5wG5VKfTt29ddcMEFW4Xne9GScs4MQlLSq3Smu0Kmw/KYY45xu+++u9tzzz0zvxdffDHS+yc+p5sfte39F5/F5+rgPGL3sccecwceeKA76qij3EEHHeQOO+wwN3369Cred5s2bXJLly51t9xyi2vfvr1vDweff+aZZ2Zsstlnaz+/9957BW20+Cw+B/kUh2PejQULFrhLL73UnXTSSY5Op6jpMj7XWkH9xRdfuM8//7zK7+677/ZArl27VoJagnqrl0mCWpVAVAOreOVx5auvvnKtWrVyr7/+uuPYfoVGUwx3q+Dsf+3LKw/hV1n8xOfK4p8W/jOKfN1117mVK1e6H374wX377bfutttuc82bN3d4bZJPws8991y3xx57uKOPPtr/8NgMYkCHp9lk2997773u5JNP9p5FwbjZjsVn8TkbLyoVtnz5ctemTRvP+WbNmrkOHTpIUBdy0853fvXq1e6EE05wr732WkExzX3k8p1eg0CjnUolPF+6GEFNDy89XFQcuYwEPCJOFBepXPfIFo5bLPclDdnOZwtTBZdePmcr77iHrVixwtWrV8/3GJeSVvFZfC6FN+FrsNHhThxrR4Tj8j91BnVHtvojW/yoYeKz+ByVK/ni0daAv8E4n376qTvkkEPcBx984MPh7l133eXefPNN9+yzz2YV1MHrOUaMI0JmzJhR5d7hePa/+Cw+GxfisOcduP766317Y8iQIRLUVsmVskd8MDrdrVs3XxFGuYcEdTIMwpNPPuldm6gk7MWllxZ3pxdeeMGHMVfz0EMPdY8//rgbPny4nwaw0047uUsuucTzwa4LC+p33nnH7bfffu6OO+7wDan77rvPv4i8nMcff7zbZZddHG5Q06ZNyzybBhfeERdddJHbeeedvWjA7Wry5MleWFPR9OjRw/845tkI5HPOOcenx8Jo5J144onuwQcf9M/meOjQoW78+PFur732cqT/jDPOcMx1svTn26uCSwaf85Vhms4xb69+/fru448/jsTfcN7FZ/E5zIko/69atcpPM3jiiSe8uytTDvhRjzCad+211/r/6eyhzRCc04+YwH2Wc0wdO/vsszOjfv369fNTGGg3WDqoC3Cp7d69e8HOT/FZfDbeVPce1+4jjzzSffLJJxlu2jOee+65goKajntGp+F7eBDC7hPei8/ic5gTcflfgrrAAmKFBDKGBGHE/LxCce28BHUyDEIxgrpjx46+4bRo0SIvtvfee283atSoTCURFNRMFzjuuON8r5aJVgQ119DoYh4+c4lwnTr22GMz7iPLli3zja7LLrvMzZ8/3y8KMnbsWNegQQM3YcIEX6GxP/zwwzOuU7hUcQ/mlFqDDFF+xBFHuPfff99fg6AmziOPPOJIP3Oi6CS4+eabI42Aq4JLBp/jUuls63Tw/uywww6uU6dOrmvXru7OO+90a9as2arBlysd4rP4nIsb+cJNULdr18699NJL3pbec889XkQzb5ROV+wrdhbRPGXKlAwnaYixUOnixYsdna3Ya+oCRgUR28R/9913M/FZFBU7//zzz2fCcqVNfBafc3GjnHC4OXDgQN92sHZM8H5RBDXu47SfX3nllYI8tnuLz+KzcSFuewnqMgU1oom5H1HmTktQJ8sQFCOocfkw92v2F198sW/M2yiECWoaXQjYK664IhMfo4Cgbtq0qeO8GQlGqw8++OCM6+qwYcP86Dhcszg8a9CgQX50m2M6eBjpYAVO4uB61bt3b3fWWWdlBPQbb7zhunTpknHfIj3mYWH3xW0L0W0i3MKz7VXBJYvX2cowTWGMUCNg+J122mm+c4i5TUuWLMm8N/nyKz6Lz/n4keucCWpEhsVhOhgdnthgC2O0GhuNV5CFBafYMFLHqF3r1q29jcYLioVusP8WH8HepEkTx/0tLNdefBafc3Gj1HA89Wj74u796quvZgYOgveLIqjpXOrcuXNmACB4fa5j8Vl8zsWNSodLUJchqG3ux8SJEyOPTiOqNUKdDINQjKCGA/Yy0zhidLdt27YZtz4ENaNljDqfd955W1Ug5vIddHv65ptv/IqajLhxT6699dZbM8+x57399tt+xU3iI6oRxw8//LCv5G666SY3adIk35PMM7iGezBqZ9cjqIONNcKp6FjJ3hYbsbjZ9qrgksHnbGWX9jDeJ94L1rigUyk4fSNX3sVn8TkXN/KFm6BGSFg87Cd29KGHHsqEMZrHnFE6LS0e03C4rlevXt6W77rrrlWmG+FGjheU8ZcpRf3796/SKWv3Cu/FZ/E5zIly/meaI1+6YQAAT7pgmyV430KCmvvA6WeeeSbzHgSvz3UsPovPubhR6XAJ6jIENW4qjCCyCI6NPkfZS1AnwyAUI6iJay9zLkHNqpe4VuPKRw+vxWeP2EXYBsOCgpoG16mnnurjBeNwjODmUxbE5//Ro0d78WCu5YxWMxcbQY/rK6MdfCvP7sNzTWxbmAR1Mjhq5aV9/vK6//77XePGjdVBpC8wZOxedb8zJqiDbtgmqLGn9rywoP7ss8+87afDdOTIkX76GB5PrNVhAtpcvGfPnu05jM2Wx0X+d97w1r76cEJAt2zZ0l111VUOTubDtpCg5isMjHAzBS3ffcLnJKirrzzD2Or/8rCVoC5RUNO7dvXVV3vXWVyyoghpiyNBXR5pa+qlf+qpp7zBD7o90/jB1S68KFkUQc13qHHJZq40o8SMJlteCglq4uEmzqJj5kZu1/Js5tzBL8KYa8f3HZ9++mnHfD74SbpxPSTdjRo1qjKnVII6GXy08ta++PJiwcAWLVpoCoMEdcbmVvd7VD+zS4sAACAASURBVIqgZnQP11m4SZuCNBFGfRAU1IgI3MYHDBjg8IZi0chcI4PhfEmAFG8vwhjq/y1+kVI641lQLzhFIRc2+QQ1bR8GFvCmC7dnct3PwsVn8dm4ELe9BHWJgprRQCo85kHRi2xiOcpegjoZBoGFv3DXoyeVF5dKAFfp7bffvmRBTSNozpw53q0Plz+rTKIIatLB9x2pqMyQ4B3BdyCD7oMsRMaCNcztx5WbZ8JLXF5Z8btnz56Z53IfCepk8NHKXPv85UXnkb1XYMXieyyyx7sQpSGoBlt+fMW/7PiUI6ix4eZhhP2mgzQoqMGctS8Q3ogaXMCjloP4nL28ouKneP8ffnhkMqIcZRoYmOUT1HQetWrVyo0YMSJyx5CVg/gsPhsX4raXoC5RULNg1L777utX5owiooNxJKiTYRBolF9zzTV+hVUW8eLHYjG4PJU6Qm0GgEVlEOt8uooKIoqgJh7Ph3esYHz++ed7Yc4CaMFRdIQ/c7YR30G3QFaZrVOnjncptHSwl6BOBh+DZabj3GU2btw470WCCy0Lk+Gt0adPn62+CZwLQzXYcmObCzOFb/ELSvKZrGJdvpmSg6BGQF944YV+Ib3LL798K0GNp1H79u29pxGrI0fFXHwWn6NyJVc8OuVZB4DBhGw/2hvha/MJajqfWN2bTqLwdYX+F5/F50IcqdR5CeoSBTXzoJYvX+7daYNiOcqxBHVyDAJzl3HTnjVrlm8wYcyZO0Q589JS0TAHyOa62YvMHGlW4+Y8YZS5jUDwPyNl3IfRCOLAJ47teovDvYOjbcTlOkbdmDtNxUSagtdxTA8w1wZH5MgLq8KG4/Ncnh+8B9cz3zp4ffB88FgVXHL4HCy3tB7zbtLhyeff5s2b59+DMOfz5V18Fp/z8SPXOToysZlWNxAP+0mYuXMThg3H5iKQ7V6s/M1UHeaoEo49xs5b/WHX0XnKQpNR7LLdW3wWn40L5ezhJOuyZPsFO/TtGbwHYQ7bOTjJe1GMXQ5eGxwosHDtxfNKcwDbHWz3R0mP2efteGH0Kx4DCWq9+FFetKTEMYOQlPQqnXr/8nFAfBY/8vGjUucYycblm29ZF5MG8Vl8LoYvcY8rPovPcedoMekzPktQl9ihIEEtg1DMCxf3uGYQ4p5OpU/vXRQOiM/iSRSe1FQcRrfxLMIdvHv37lU8lqKkQXwWn6PwJClxxGfxOSlcjZJO47MEtQR1UT3lUcilOMkzlmYQVHbJKzuV2dZlJj5vjYl4UjlMxo4d69fbQFAXM3faykx8rlzZWRloX31lID5XH5biZeWxND5LUEtQS1DrMzR+HpTmNFXeMKtyrJ4ysApOeFYPnsKxPByZR836F6XiKD6Xh3+puOu6bYO7+LxtcBVfK4Or8VmCWoK65EpeL29lXt5tgbsZhG1xb90zPTxJSlmKz+JcUrgaJZ3is/gchSdJiSM+i89J4WqUdBqfJaglqCWoNUKtEWpxIFV2wCq4KJWh4qhxF3cOiM/iaNw5Wkz6xGfxuRi+xD2u8Xk7FtfSr3gMWFZ98uTJXogApn7CIMkcYKV/Vp5Nch6Udr2DxgHxWVwwLqRhLz6Lz2ngseVBfBafjQtp2Buft5s6darTr3gMENPDhg1zzDvVTxgknQOIaexA0vOh9OtdhAPis3iQJlsgPovP4rM4kCYOpCkvZp/l8l2my7fTJgRSgMCff/7pV59NQVaUBSHgxGeRIE0IiM9pKk3lRXwWB9KEgPFZglqCOk28Vl5KRMAMQomX6zIhECsExOdYFYcSUyYC4nOZAOryWCEgPseqOJSYMhEwPktQS1CXSSVdngYEzCCkIS/KgxAQn8WBNCEgPqepNJUX8VkcSBMCxmcJagnqNPFaeSkRATMIJV6uy4RArBAQn2NVHEpMmQiIz2UCqMtjhYD4HKviUGLKRMD4LEEtQV0mlXR5GhAwg5CGvCgPQkB8FgfShID4nKbSVF7EZ3EgTQgYnyWoJajTxGvlpUQEzCCUeLkuEwKxQkB8jlVxKDFlIiA+lwmgLo8VAuJzrIpDiSkTAeOzBLUEdZlU0uVpQMAMQhryojwIAfFZHEgTAuJzmkpTeRGfxYE0IWB8lqCWoE4Tr5WXEhEwg1Di5bpMCMQKAfE5VsWhxJSJgPhcJoC6PFYIiM+xKg4lpkwEjM8S1BLUZVKp9lz+zz//OH5p3MwgpDFvylPtQ0B8rn1lnuYci89pLt3alzfxufaVeZpzbHyu9YJ6zZo1bt68eW7p0qXuhx9+cP+LKLC/++47N3Xq1DRzRHkLITB+/Hh33333hULT8a8ZhHTkRrlIOgJ0XG3evNn9/PPPVX5//PFHpKyJz5FgUqSEICA+J6SgEpBMbOuGDRt8m/ezzz5zf/31V9ZUb9myxX366aeONnKugQRs9CeffOI+//xz9/fff2e9T7ZA8TkbKgqLAwK0MebOnevgaNTN+FxrBfW6devcQw895Jo2beqOPvpot99++7levXq5L7/8MpKolqCOSrX0xLvllltcz54905OhQE7MIASCdCgEKobATz/95Nq0aeMaNGjgGjVqlPm9+uqrkdIkPkeCSZESgoD4nJCCinkyEc/XXXeda9asmbevtHs7duzoVq1alUk5wnjy5Mnu0EMPdcccc4w75JBD3Omnn+7bxhaJ+xDnwAMPzLSfL7roIt92tjj59uJzPnR0rhIIwGk6h/r06eNOPvlk98svv0ROhvG51grq119/3e22225u+vTp7ttvv/UGpV27dm7QoEG+967QSLUEdWSupSaiBHVqilIZiTkCeAu1bt3azZ4923sO8T+/3377LVLKrYKLFFmRhEDMERCfY15ACUkePPrwww+91w+2lHYs7d7u3btnRuQYbDrooIPcyy+/7H799Vcvki+44AJ37bXXZkaqucfuu+/u3njjDS88sM3t27d3N954Y+Y++SARn/Oho3M1jcAXX3zhjj/+eNewYUPXvHlz38kkQR3RXRuxPGrUKHfKKae4b775JjMiff/99/ueia+//joTlktYS1DXNOVr7nm///67r0jCbk7FCGp6eXkhqThybVRoxMnlcpXrukLhuKxwX7lgFUJK5+OKwNq1a129evW8W2IpaVSDrRTUdE0YAWw09UFwQ2Tk6tihzsD2EidcfwTvUeyx+FwsYoofBQE4OnLkSD/KDG/Z3n//fXfGGWc4XL5tY1pk586d/TQcwm677TZ32mmnVYkzadIkt9dee/kBKrsu1158zoWMwiuBwOrVq13//v39CPWIESMkqHMJ31zhzz//vHd7YQ4Jcehho3ftiiuucOvXr5egrgSrt8EzKWdc+q2y4BHMyyRsypQp/ombNm3yXKBCoKNlzz33dDvttJPnAg0j28KCeuHCha5JkyZu8ODBvvE0evRod9JJJ/k5RyeccIKrW7eu94JglM02KrDvv//eTy/YeeedXf369b1L1bRp07ywpqLp3bu3/3HMhkA+//zzfXosjEZep06d3KOPPuqfzXOpGJ966im39957+/R36dIlUwHa83PtVcHlQkbhlUAA16tdd921iitiMekQn4tBS3ENATrTGXl75pln3MCBA/2UA/5/4YUX3MaNG13fvn19GJ09Q4cOrSK258yZ4w4//HBv07H92GzaFmwDBgzwLrZMZbCNuoBn9OjRo2Dnp/hsqGlfnQjQmY+QCI5QIy4YbWbUjg2e0jbCpRse8j9tjwcffLBKUhYtWuTbPIxeF9rE50II6XylEJCgLmJk2gQ2I9MYEnrihg8f7gUOAmTFihUFxTT30Ah1pehe3HOLEdTMm6DhtHz5ci+2Gzdu7MaMGeMrEJ4aFNRME2jbtq3r169fppcWQc01dMwsWLDALV682FdUuJJYby+VFC4lV155pXe9gm8TJkzwjbSnn37aZ479kUcemRHDdPYcd9xxvkFGZwAbnT4tWrRwS5Ys8f8jqHnOuHHjfPrfeust30lw++23RxoBVwXnYdSfmCDA+7Pjjjv6UZGzzz7bDRkyxOGKGHUTn6MipXhBBExQd+jQwb322mveltI+QFR37drVTZw40S1btszbWUTzjBkzMpfTEJs5c6ajkx7+sgYAAhzRgthGhH/00UeZ+HSsYueZi1poE58LIaTzURFgkIDFxj744ANH++DEE0/0nLbr4StimXfg4Ycf9u0ZBghYuJcN7wzmVuMSHtxo2/zrX//y03SC4dmOxedsqCgsDghIUJcgqFl8jJFFREm7du18zzI9ylSWJrrz7SWo40D9wmkoRlDTwWLu1xj8yy+/3NGYt5WFTVDT6KKH9uqrr87EJyUI6gMOOMBPI7CU0dvLoh5WGTGtgNFxRLJtPPOee+7xbiYccw0jHQh7NtytLr30UnfeeedlBDQNtLPOOivjeoigPuecc7yrod333nvv9Q224KiInQvvVcGFEdH/lUSAEWoEDL8zzzzTHXbYYb4jCrESZROfo6CkOGEETFDffffdmVPU9SyOhw22jdFqbDReQbYxcmcbx5xDeCBg8IJiitkDDzxgUbxg33///X3nfCYwx4H4nAMYBReNAKt222JjDArQSRRsj9DeYUS6VatWvk1CewV3b2wyG9ynTTN//vwqz2aaDoL6zTffrBKe7R/xORsqCosDAhLUJQhqxDSjfggdRvuoSG+66SY/6hhlpW8J6jhQv3AaihHUzz77bOaGzD9mnhA9szaHDkGNwMY9ikU6+GREcENQs2JmsGH1448/uoMPPtjhHs49ue6OO+4IXuaPmbdEJUV8Kptzzz3XPf744/5epOO5555zNPJwSWdj8TxG7WxDUAcba4QzWo37Oh1DhTZVcIUQ0vlKIcD7RCOOkRTei+A0jFxpEp9zIaPwfAiYoA6OGmM/saOPPfZY5lJsPzaXTkvbGLlj1A7hjS1nykJwuhGeR8HVY+mwxRXcOnHtPtn24nM2VBRWCgK0Q+yThIhg5kLjqWnrArBQL0J75cqVvi2CvUVg4wbO57aYPofYtilzlgYJakNC+yQjIEFdpKDG1QqD8cQTT1QZjcYFBjcuvkGWb3SacxLUyXhlihHUxLUtl6CmZxfXaty6GXUIbjaHOhgWFNQIcyouE8XBeAhuhDfx2caOHevFg7mW4xrOXGwEPa6vNMzeeeedzC1o3PH84CZBHURDx0lHAPfDffbZJ/OO5MuPBEg+dHQuFwImqF955ZVMFBPU2FPbwoL6q6++8l5LdJjyOU4+74bHU1BQm4v3u+++69sXeDnJ48IQ1b5SCDDnmc9f4Z1JGwVPOKY5BDfaOkxPQERjW/Hq/M9//hOM4genaD8zl7rQJvtcCCGdrxQCEtRFCmrEMBXdk08+WUU4Ywh22WUXL1wkqCtF5+p97osvvui/p2hzj7k7Pam42lkPqy1KFkVQ8x3qzz//3M+VZqQ5OLpQSFDzbNzEWXTM3MgttzybOXfWS8xcO76/S/rpGSaNNNr22GMPn25W0wzOKZWgNiS1TysCeGAcddRRTlMY0lrClc9XKYIaDwrW2oCbtvglYdQHQUGNiLjsssu8dxHeUKzZEvRmypd7CZB86OhcOQjwDWqmL3z88cfe+wf3bqamBTfWgGnZsqWzNhILlLEOTLAdQ1tFq3wHUdNxEhGQoC5SUCOWMQa4fOPWwv/MIbn11lv9KGGUhck0Qp2MV4VOEtz1Zs2a5ROMAMZVevvtty9ZUNMIMhdtXP6sUokiqEkH37oLuhQi8I844ogq7oNwkrBTTz3Vu3LzTMQ2Lq/M9b/kkksyruhkTII6GXxUKqMhwDth7xVXsPge86gR1XiPFNokQAohpPPZEChHUCNKmJrARnuCDtKgoCb87bff9sKb+dS2CGW2dITDxOcwIvq/FATwiGCNFtsYkb7++uv9nGoGHWhn4B0Hb5lrzYa95eshLKaK+GZ76aWXfOc+i++x4Rb+73//2911111VBhn8ySx/xOcsoCgoFghIUJcgqGmgIUKaNm3qF3NiTggGgzlQVIYaoY4Ft8tOBI3yG264wbvyd+vWzS/kxWIxwTlAxY5QW6JYBRaxTgVEBRFFUJMens/ntugJpqcXV2/m0wVH0RH+N998sxffdPrYxgIiderU8S6FFsZegjqIho6TjgBz9vAiwYWWhcnw1rj22murdCLly6MabPnQ0blcCJQiqLkXnfB0gCJE8GJiIb2rrrpqK0GNqzjrbOBpxLOibuJzVKQULx8CCGCmzdBRD0/pBGIaW3CBMUaj8aTYd999/XoxrF3BYqvBDiAENO0TXMVZU4b74CoexXuI9InP+UpJ5yqJgAR1CYIawcwoM8IaY8L86SiLkZnQ1gh1JSlf3LPphaVXlnLmc2kYc+az2eJG9MoG/7e7I3DpXOE8G//bHGf+p+eW6ywOjSWOgxtxWPQuONpm18E9KjhLU/A6jnEf5Fri20Ze4B55CG48l+cHNypG3MKD1wfPB49VwQXR0HGlEeDdZISEz78xx4/3IMz5fGkUn/Oho3O5EKAjE5tpdQPxsJ+E2acPCaNOwObSGWsbYoJPJfIjHHvMIk5Wf9h1dJ6y0GQUu2z3Fp8NCe3LQQB+Y0tZsZs1WGgXBXlt96a9QruEz2vRWQS3gzwmHpxkGhpfIeE+Nl3N7pFvLz7nQ0fnKomAtePDfM+XJuPzdiYQtf9fwVHpIEYS1PnopXNJQ8AMQtLSrfQKgWwIiM/ZUFFYpRHgU4jMRbVPIkZNj/gcFSnFSwIC4nMSSklpjIqA8VmCuozR7alTp0bFW/GEQKwRMIMQ60QqcUIgIgLic0SgFK1GEMDbiE74Xr16uR49elTxWIqSAPE5CkqKkxQExOeklJTSGQUB47MEtQR1FL4oTsoRMIOQ8mwqe7UEAfG5lhR0QrI5YcIEv94GgrqYudOWPfHZkNA+DQiIz2koReXBEDA+S1BLUBsntK/FCJhBqMUQKOspQkB8TlFhpiArzMdj/YtSN/G5VOR0XRwREJ/jWCpKU6kIGJ8lqCWoS+WQrksRAmYQUpQlZaUWIyA+1+LCT2HWxecUFmotzpL4XIsLP4VZNz5LUEtQp5DeylKxCJhBKPY6xRcCcURAfI5jqShNpSIgPpeKnK6LIwLicxxLRWkqFQHj83YslKFf8RisXbvWTZ482X86ADD1EwZJ5gCfvGDl2STnQWnXO2gcEJ/FBeNCGvbis/icBh5bHsRn8dm4kIa98Xk7VqrWr3gMENPDhg1zK1eu1E8YJJ4DiOmZM2cmPh96H2WP4ID4LB6kyRaIz+Kz+CwOpIkDacqL2We5fJfp8r1lyxannzBIOgd++uknt2TJEnFZ73MqOCA+yyYn3SYH0y8+i89BPiT9WHwWn5PO4WD6jc8S1BLUqWhAB8mt4+KNtRkEYVc8dsIsfpiJz/ErE70npZeJ+Fw6duJd/LATn+NXJnpPSi8T47MEtQS1BLVGJZ0ZBBnV0o2qsIsPduJzfMpC70X5ZSE+l4+heBgfDMXn+JSF3ovyy8L4LEEtQS1BLUEtQS0OpMoOWAWnxkL5jQVhWHkMxefKl4Heg+orA/G5+rAULyuPpfFZglqCOlUNaRmX0oyLGQThVxp+wi1euInP8SoPvR/llYf4XB5+4l+88BOf41Ueej/KKw/jswS1BLUEtUYnNUItDqTKDlgFp4ZCeQ0F4RcP/MTneJSD3ofqKQfxuXpwFB/jgaPxWYJagjpVDWkZmNIMjBkE4VcafsItXriJz/EqD70f5ZWH+FwefuJfvPATn+NVHno/yisP47MEtQS1BLVGJzVCLQ6kyg5YBaeGQnkNBeEXD/zE53iUg96H6ikH8bl6cBQf44Gj8VmCWoI6VQ3pbWlgNm/e7Phty2dU6t5mECr1fD03HhVDWspBfBaf0sJl8iE+i8/isziQJg6kKS9mn2u9oF61apWbN2+eW7p0qfvhhx/c/yIK7O+++85NnTo1leIqTUSvzryMGTPGDR48OJVlbgahOvHSvdQAKJUDdFytX7/erVu3rspv48aNkd4/8VncK5V7cbxOfBafa5KXtIXDtpe2cTgN33//vVu4cKH75JNP3KZNm7Y6H45v/4vP4rNxIW57uDlz5kzfiRk1bcbnWiuov/76a3fXXXe5Jk2auKOOOsrttdde7oorrnCERxHVEtS1zyD07dvXXXDBBZErjagvYxzimUGIQ1qUhtr3boXLHPt6zDHHuN13393tueeemd+LL74Y6f0Tn8WhMKeS/L/4LD7XFH/ptOzatavbddddM3YXGzxy5MiM7f3555/dc8895w444ADfft53333d+eef79vPUdIpPovPUXhSk3Hg9IIFC9yll17qTjrpJLdhw4YM3wulw/hcawU1xmGfffZx77zzjvvmm2/cp59+6g3DHXfc4YEsJKolqGufQZCgrn1lXsiQ6vy24cRXX33lWrVq5V5//XXHsf1+/PHHSJWcVXAqn21TPsK1ZnEVn2sW79rMb2zs8ccf78aOHZuxu9hfRq0NF7w6d9ttNzdlyhQfvnbtWteuXTt37bXXRhrZE5/FZ+NSHPbLly93bdq0cXvssYdr1qyZ69ChgwR1IRFs5zEMJ598srv77ruruHnj0nvQQQc53MAtbq69BHV6DQIVChwJz5cuRlDj/kQPFxVHLoMBt4hDz1iuOKWE08PMfeWClV6OlsKLJF2zYsUKV69ePd9jXEq61WAT90vhTfgabHS4E8faBOG4/E+dQd2Rrf7IFj9qmPgsPkflSrnx4C5emy+99FLOdslNN93kOnfuXEV0PP74465Ro0bu888/z3mdpU18Fp+NC3HYM6B6/fXX+/bGkCFDJKitkouyRwwz+jFx4sQqwpk50TTiPvjggyrh2e4pQZ0Mg/Dkk0/6yoFKwl5c5gZRYbzwwgs+jLmahx56qKNCGD58uGvYsKHbaaed3CWXXOIbRnZdWFDj3bDffvs5vBpoSN13333+ReTlpId3l1128b2406ZNyzybeF988YW76KKL3M477+z5RifO5MmTvbCmounRo4f/ccyzEcjnnHOOT4+F0cg78cQT3YMPPuifzfHQoUPd+PHj/fQF0n/GGWc45jhZ+vPtVcElg8/5yjBN55iXV79+fffxxx9H4m847+Kz+BzmRJT/6UxnmsETTzzhbrnlFn/M/9Qj3377rR+B43/aCXTIB+f0z5gxwx122GH+XN26dd3ZZ5+dcYHt16+fn8JAu8HSQV3AM7p3716w81N8Fp+NN9t6T3uIUTrmkWZ7Frzt2LGjGzFiRJXz8+fP920e2kXZrguGic/ic5APcTqWoI64kJgJY0bvGNLHPQXBYeH/+c9/vEF46623MmF2LryXoE6GQShGUFNJEH/RokVebO+9995u1KhRmZHqoKCmF/a4447zvVomWhHUXAOv5s6d69577z137rnnumOPPTbTk7ts2TLf6LrsssscFdBHH33kXasaNGjgJkyY4Csi9ocffrhflAlDg7sV92BOqTXIEOVHHHGEe//99/01CGriPPLIIz7906dP950EN998c6QRcFVwyeBznCqebZkW3p8ddtjBderUyc/nu/POO92aNWsKNtQsTeKz+GxcKGZvghr3VUboqAvuueceL6zPPPNM3+lKGHYW0YzLq92fhhid8osXL/ZTybDX1AV4ICG2if/uu+9m4n/55Zfezj///POZMLtXeC8+i89hTmyr/1lHiE5+2shwnk4fPIbsebSFjz76aPfss89mwjhH2+Zf//qXn6ZjcXPtxWfxORc3Kh0uQV2koMYgPPDAA74n+eGHH/arfL/88su+8caoogR1el72YgQ1Lh/mfs3+4osv9o15G4UwQU2jCwHLInYWHyOAoG7atKmfMmBGgdHqgw8+OOO6OmzYMD86zpwji8M9Bg0a5Cswjlkxk5EOxDZx3nzzTde7d2931llnZQT0G2+84bp06eI7fohDerp161ZlRJ1F9xDdJsLtedn2quDSw/ls5Zu0MEaoaczxO+2003znEKMmS5Ysybw3+fIkPovP+fiR65wJ6oEDB2Z4tnr1akeHJzbYrmO0GhuNV5CFBafYMIp37733utatW3sbzagfC91g/y0+gp1FUbm/heXai8/icy5uVHc4awrR9sH24uXWokULz3/Ws+BZcJ82zaxZs6rwFtGNZ1yUr9+Iz+JzdfO2uu4nQV2CoMbtFzHNwgqIaHrjnn76aS+y5fKdnpe9GEHNFAB7KWkcMbrbtm3bjFsfgprVLxl1Pu+88zIjyHaNuXzTmLIwKqcDDzzQj1hzT6699dZbM+ct3ttvv+17hYmPqEYcw0/uxXylSZMmORp5PINruAejdnY9gjrYWCOcURTc1+lxtni59qrg0sP5XGWc1HDeAd6LE044wXcqBadv5MqT+Cw+5+JGvnAT1KxgbPGwn9jRhx56KBOGVxJtBjotLR7TcLiuV69e3pazSjJTi4yvuJHjBWX/M6Wof//+VTpl7V7hvfgsPoc5UVP/I6Bpt9DGgLt4eLZs2dKFv7ggQS2O1hQnt+VzJKhLENTmws3oHY01jASuVyz//9lnn8nle0s6jEMxgpq49qLmEtS4OuFajSsfnTIWnz1il0onGBYU1DS4Tj311IwoDsbDxRXhTXzCR48e7cWDuZYzWs1cbAQ9rq+MdgTnOPFcE9t2XwnqdHDYyrO27++//37XuHFjdRClxDbHkc8mqINu2CaosaeW5rCgps2ADUZ48AURxAYeT0FBbS7es2fP9hwmvjwuZKONU3He4xGHtxvtETp3mO722GOPZd4H0s5AFNMamMpWKC/qIBLvC3GkUuclqMsQ1Cas6XnDhZdvkOGeZeG59ppDnQyD8NRTT7lDDjmkitszjR9c7cKLkkUR1HyHGpds5kozShx2+c4nqDEQcIxFx8yN3IwGz2bOHXwjjLl2fPsRrwnm88FJ0o3rIelmNc3gnFIJ6mTw0cpb++LLiwUDeiF0XgAAIABJREFUcT/UFIbisRPfomFWiqDGg4K1NuAmHfNgTRgdnEFBjYjAbXzAgAF+QVTcaYkXpWwkQKKVXxQsFad4LHHjpn1iU9X45jTrwATbMbRVtMp38diKj/HCTIK6BEHNSCAiGgFDJcjqyPTAMXcvl4gOhktQx+slyGWU6C3FXc/m/yCAcZXefvvtSxbUNILmzJnj3fpw+bNKpdAINWkkHXzrLuhSiKtU8+bNq7gPshAZC5PxeTdcuXkm/GMeNSt+9+zZM/Nc7itBnQw+5uKpwquWH51H9l6BDYvvsRI/70Jwrmou3CRAquKZCyeFV8WpHEGNDTcPI+w3AiQoqMGakT6ENx5GuIBHxV98rlpOUXFTvOJxY8HTYKclX1rgqzh4XJjtfeaZZ3znPp51YEzb5PTTT3e33357lUGGXPiLz8WXSy4sFV69WEpQlyCoMQgsKsInK5gnyygmo5lB0ZzvWIK6ekm8rYwCjfJrrrnGuyKxiBc/FothDlCpI9SWVhaVQazz6SoqiCiCmng8n6kFrGBMTy8rarIISLASQ/gzZxvxHXQL5NNederU2Wr+kgR1Mvho3NE+f3mNGzfOe5HgQsviOHhr9OnTZ6tvAufCUQ22/Pjmwq22h5ciqMGMKTkIagT0hRde6BfSu/zyy7cS1HgatW/f3ouRlStXSlBr+kJkDtTUu8kgBG0SppexVsz+++/vbTDu3pYG2sY33nijO+CAA/w0B9rSfCYu2IaxuNn2ss+yz9l4EYcwCeoSBDULLSxYsMB/9oK5H8xvshHrfELazklQJ8cgMHcZN21WpaTBhDGnvClLXmBGf+mVpfyDLzRzpHFxMrc8ytxGIIhHby33YTSCOMyr4zh4D+Jw7+BoG3G5jlE3engtTcHrOMZzgmutV5gw8sKqsOQhGJ/n2ue7LJzrcQsPXm/nwntVcMnhc7js0vg/7yYr5PP5t3nz5vn3IMz5fPkWn8XnfPzIdY6OTGym1Q3Ew34SZu7chGHDsbkIZLsXbQqm6vC5RMKxx9h5qz/sOjpPWWgyil22e4vP4rNxYVvv4dry5csdC6XSPqHjJ9h+secTD+86vkJC+yr4zlicXHvxWXzOxY1Kh2O7g+3+KOkxPm/HS6Bf8RhIUMsgRHnRkhLHDEJS0qt06v3LxwHxWfzIx49KnWMkG5dvvmVdTBrEZ/G5GL7EPa74LD7HnaPFpM/4LEFdYoeCBLUMQjEvXNzjmkGIezqVPr13UTggPosnUXhSU3EY3cazCHdwppllG/HLlxbxWXzOx4+knROfxeekcTZfeo3PEtQS1EX1lOcjlc4l10iaQVAZJrcMVXb/V3bi8/9hIV5UHouxY8f69TYQ1MXMnbayE58rX4ZWFtqXXxbic/kYiofxwdD4LEEtQS1BrYVR/Jzs4OJnMtbxMdYqi+LLwio4YVc8dsKs+jFjHjXrX5SKrfhc/WVSalnouvLLQnwuH0PxMD4YGp8lqCWoS67k9ULH54UutyzMIJR7H12fHk4kuSzFZ/EwyfwNp118Fp/DnEjy/+Kz+Jxk/obTbnyWoJaglqDWCLVGqMWBVNkBq+DCFZ/+V0MuiRwQn8XbJPI2V5rFZ/E5FzeSGG583o7FtfQrHgOWVZ88ebIXIoCpnzBIMgdY6Z+VZ5OcB6Vd76BxQHwWF4wLadiLz+JzGnhseRCfxWfjQhr2xuftpk6d6vQrHgPE9LBhwxzzTvUTBknnAGIaO5D0fCj9ehfhgPgsHqTJFojP4rP4LA6kiQNpyovZZ7l8l+ny7bQJgRQg8Oeff/rVZ1OQFWVBCDjxWSRIEwLic5pKU3kRn8WBNCFgfJaglqBOE6+VlxIRMINQ4uW6TAjECgHxOVbFocSUiYD4XCaAujxWCIjPsSoOJaZMBIzPEtQS1GVSSZenAQEzCGnIi/IgBMRncSBNCIjPaSpN5UV8FgfShIDxWYJagjpNvFZeSkTADEKJl+syIRArBMTnWBWHElMmAuJzmQDq8lghID7HqjiUmDIRMD5LUEtQl0klXZ4GBMwgpCEvyoMQEJ/FgTQhID6nqTSVF/FZHEgTAsZnCWoJ6jTxWnkpEQEzCCVersuEQKwQEJ9jVRxKTJkIiM9lAqjLY4WA+Byr4lBiykTA+CxBLUFdJpV0eRoQMIOQhrwoD0JAfBYH0oSA+Jym0lRexGdxIE0IGJ8lqCWo08Rr5aVEBMwglHi5LhMCsUJAfI5VcSgxZSIgPpcJoC6PFQLic6yKQ4kpEwHjswS1BHWZVKo9l//zzz+OXxo3MwhpzJvyVPsQEJ9rX5mnOcfic5pLt/blTXyufWWe5hwbn2uFoJ4/f75bv369+18W8fzVV185zi9atMht2LAha5xs13333Xdu6tSpaeaI8hZCYPz48e6+++4LhabjXzMI6ciNcpF0BOi42rx5s/v555+r/P74449IWROfI8GkSAlBQHxOSEGlJJm//PJLFbuLHf7tt98yuZN9zkChg5QhQBtj7ty5DpsbdTP7nFpB/cMPP7gPP/zQ9evXz7Vr184hgIPC+Pvvv3dPPfWUa9q0qWvZsqXbZ5993LnnnutWr15dJV7wmuCxBHVUqqUn3i233OJ69uyZngwFcmIGIRCkQyFQMQR++ukn16ZNG9egQQPXqFGjzO/VV1+NlCbxORJMipQQBMTnhBRUCpKJoDj77LPdrrvumrG72OCHHnookzvZ5wwUOkgJAn/99Zf75JNPXJ8+fdzJJ5/s6FSKupl9TqWg/uabb7xB2GOPPVyrVq3cUUcdtZWgnj17ttttt93cf//7X0f8VatWueOPP95deeWVOUezJaij0iud8SSo01muylX8EKBDtHXr1g47zbH9gqMk+VJtFVy+ODonBJKCgPiclJJKfjp///13Pwg1YcKEjN3F/gYFhuxz8stZOfg/BL744guv/xo2bOiaN2/uOnbsWIXv/xcz+5HZ59QK6kGDBrlp06a5SZMmZRXUffv2dZ06dXJff/11ZkR6zJgxvkdu2bJlmbCgiA4ea4Q6O7HSEEqF8uuvv241X7oYQf3333/7F5IXLdeGOKCSomesOjd6mLkvaYi6mUGIGl/xhMC2RGDt2rWuXr16bunSpSU9RnwuCTZdFEIAG019ENyoG3J17OAKi+3NVn8E71HssfhcLGKKXyoC8Pfoo492r732Ws5byD7nhEYnEogAnsn9+/f3I9QjRoyQoA6K3eDxk08+uZWgpnetQ4cObtiwYVWE89tvv+122WUXPyoSvEe2YwnqZLw1zz//vK8cqCRsYz4QFcaUKVN80KZNm1yzZs1858uoUaPcnnvu6XbaaSd3xRVX+IaRXRcW1AsXLnRNmjRxgwcP9uJ79OjR7qSTTnJr1qxxJ5xwgqtbt673gmCUzTYaXEw36NWrl9t5551d/fr13SGHHOI7fxDWNJx69+7tfxyzIZDPP/98nx4Lo5FHh9Cjjz7qn81zR44c6acx7L333j79Xbp08fNQ7dn59mqw5UNH52oaAVyvcDnEc6iUTXwuBTVdQwf77rvv7p555hk3cOBAP+WA/1944QW3ceNGR0c80xDo7Bk6dGgVsT1nzhx3+OGHe5uO7cdm03ZgGzBggJ/CgKusbdQFPKNHjx4FOz/FZ0NN+22NAO2hww47zM8jzfUs2edcyCg86QhIUGdZbMxEcDZBjRjGFZzRa4vHfvHixe5f//qXe+WVV6qEB+PYsQR1Ml6bYgQ18yZoOC1fvtyL7caNGzu8Fmj4sAUF9bfffuvatm3r5+hv2bLFn0dQc82NN97oFixY4PnUvXt370picXAtwaWEqQXM8V+xYoXDtYpG2tNPP+3vw/7II4/MiGE6gI477jjfIKMzgI1F9lq0aOGWLFni/0dQM2Vh3LhxPv1vvfWW7yS4/fbbI42Aq8HmYdSfmCDA+7Pjjju6zp07++k7Q4YMcevWrYucOvE5MlSKGEDABDUd7ozQURcMHz7ci+yuXbu6iRMnOjzYsLOI5hkzZmSupiE2c+ZM99lnn3n7zxoACHA6ShHbiPCPPvooE5+OVez85MmTM2G5DsTnXMgovLoRoI178MEH+1E6OE+nDyPSwU32OYiGjtOEgAR1kYKaEcSDDjrITZ8+vYpw/vjjj/3I3ssvv1wl3ER0cC9BnYxXqBhBjcuHuV/TgLn88st9Y54RYjYT1DS6GB2++uqrM/E5j6A+4IAD/Jx8QwdXEkagzXX1/vvv96PjiGTbeOY999zjKzCOuYaRDhpzbPPmzXOXXnqpO++88zICmgbaWWedlXE9RFCfc845VUbU7733Xt9gC46K2DPDezXYwojo/0oiwAgIjTl+Z555ph8xoSMKsRJlE5+joKQ4YQRMUN99992ZU9T1dHhig21jtBobjVeQbdbxyv8cc+6YY47xNplRv1NOOcU98MADFt0L9v3339+v75IJzHEgPucARsHVjgDcpu2D7cXLjTWIWI9o1qxZmWfJPmeg0EHKEJCgLlJQswgZo3u4dQVFsgR1yt4M51wxgvrZZ5/NAMD849tuu827btscOgQ1q18y6nzBBRdkRpDtIgQ1ixkEG1Y//vij7+3FPZx7ct0dd9xhl2T277//vhfexKfxxIrzjz/+uL8X6XjuueccjTxc0tlYI4BRO9sQ1MHGGuGMouC+DscLbWqwFUJI5yuFAO8TjbwTTzzRvxfMTy20ic+FENL5bAiYoA6OGmM/saOPPfZY5hI+6YbNpdPSNuZV0xmP8KYTlSkLTC2y6UZ4HgVXj0W04Apunbh2n2x78TkbKgqrCQTokKfNA9+Ny8Hnyj4H0dBx0hGQoC5SUOMuizvWI488UkVQMxLIHGrmUgeFdrZjjVAn47UpRlAT17ZcgpoRB1yrcetm1CG42RzqYFhQUCPMzzjjjIwoDsZDcONmRXy2sWPHevFgruW4hjMXG0GP6ysNs3feeSdzCyo7nh/cJKiDaOg46Qg8/PDD/vOG9o7ky48ESD50dC4XAiaomfZlmwlq7KltYUH91Vdfea8lOkz5vBCfd8PjKSiozcX73Xff9e0LvJzkcWGIah9nBPCIYxCKwahcm+xzLmQUniQEJKiLFNRUkIwAXnLJJVU+kfWf//zH90Rrle8k0T9/Wl988UV36KGHOpt7TGzmA+FqF16ULIqg5jvUn3/+uZ8rzUhzcHShkKDm2biJs+iYuZFb6nk2nTy2eixz7fj2I+lv3769F+802nC9It177bVXlTmlEtSGpPZpRQAPDNwPNYUhrSVc+XyVIqgZoWOtDbhpI3iEUR8EBTWdPJdddpn3LsIbCnda4kXZ1EEUBSXF2VYIsDYA7ZMNGzbkfITsc05odCJBCEhQlyCoWZCMeVHMC0FgMxJ46qmn+nmy9CRnG5UOhmmEOhlvyKJFi3wnic3/QQDjKr399tuXLKhpBJmLNi5/Jo6jCGrSwbfugi6FCPwjjjiiivsgXCMMTlJR8UzENh1BrB5LZ5C5olMSEtTJ4KNSGQ0B3gl7r7iCxfdYeZZ3Icrn4CRAouGsWFURKEdQM6eaqQlsrJGBAAkKasLxfkN4M5/aFqGsmoLs/4nP2XFRaPUjgAdnsNNy5cqVrnXr1t7jwmyv7HP14647xgMBCeoSBDUC+rrrrnNNmzb1brR8NolFGFiFOSiccx1LUMeD/IVSQaP8hhtu8CuyduvWzS/kxWIxrPJe6gi1PZNVYJlbh3s2DZ4ogpr08Hw+t8UKxhdddJF39WY+XXAUHeF/8803e/FNhWYbq8zWqVPHuxRaGHsJ6iAaOk46AnR44kWCCy12GW+Na6+9tkonUr48SoDkQ0fnciFQiqDmXkzJoQMUAY0XEwvpXXXVVVsJalzFWWcDTyOeFXUTn6MipXjlIsDXR1gDgOll2F/ayNhg2ry2yT4bEtqnDQEJ6jyCGuGMIKHHOCyOGYlm9eVp06b5z1kQNxwn1/8S1Ml5jRjJZeXs+fPn+zlANE4oe1vciNHf4P+WMwQuvDG3PP4Pzt+kt5brLA6NJY6DG3Ho8Q2Ottl1jLrx+QnmJZGm8Ib7INdarzDnyQvcC8fnuTw/uPGpLuZbB68Png8eq8EWREPHlUaAd5OvMfD5Nxp4vAdhzudLo/icDx2dy4UAHZnYTKsbiIf9JMw+fUgYdQI2N7iOBqN6fHqTH+HYY1xkrf6w6+g8ZaHJKHbZ0ik+GxLab2sE4NqXX37pvfBon9DxE/SG4/myz9u6FHT/SiFg7fig3S6UFrPP2+USjAr/X15xLUFdiGI6nyQEzCAkKc1KqxDIhYD4nAsZhVcSAT6F2LJly8wnEaOmRXyOipTiJQEB8TkJpaQ0RkXA+CxBnWd0O1+nggR1VKopXhIQMIOQhLQqjUKgEALicyGEdL4mEcDbiDZDr169XI8ePap4LEVJh/gcBSXFSQoC4nNSSkrpjIKA8VmCWoI6Cl8UJ+UImEFIeTaVvVqCgPhcSwo6IdmcMGGCX28DQV3M3GnLnvhsSGifBgTE5zSUovJgCBifJaglqI0T2tdiBMwg1GIIlPUUISA+p6gwU5AV5uOF56EWky3xuRi0FDfuCIjPcS8hpa8YBIzPEtQS1MXwRnFTioAZhJRmT9mqZQiIz7WswFOeXfE55QVcy7InPteyAk95do3PEtQS1CmnurIXBQEzCFHiKo4QiDsC4nPcS0jpKwYB8bkYtBQ37giIz3EvIaWvGASMz9uxUIZ+xWPAh+0nT57sP+UCmPoJgyRz4LfffvMrzyY5D0q73kHjgPgsLhgX0rAXn8XnNPDY8iA+i8/GhTTsjc/bTZ061elXPAaI6WHDhvlvXPOda/2EQZI5wOdcZs6cKR7rXU4FB8Rn2eMk2+Nw2sVn8TnMiST/Lz6Lz0nmbzjtxme5fJfp8r1lyxannzBIOgd++uknt2TJEnFZ73MqOCA+yyYn3SYH0y8+i89BPiT9WHwWn5PO4WD6jc8S1BLUqWhAB8mt4+KNtRkEYVc8dsIsfpiJz/ErE70npZeJ+Fw6duJd/LATn+NXJnpPSi8T47MEtQS1BLVGJZ0ZBBnV0o2qsIsPduJzfMpC70X5ZSE+l4+heBgfDMXn+JSF3ovyy8L4LEEtQS1BLUEtQS0OpMoOWAWnxkL5jQVhWHkMxefKl4Heg+orA/G5+rAULyuPpfFZglqCOlUNaRmX0oyLGQThVxp+wi1euInP8SoPvR/llYf4XB5+4l+88BOf41Ueej/KKw/jswS1BLUEtUYnNUItDqTKDlgFp4ZCeQ0F4RcP/MTneJSD3ofqKQfxuXpwFB/jgaPxWYJagjpVDWkZmNIMjBkE4VcafsItXriJz/EqD70f5ZWH+FwefuJfvPATn+NVHno/yisP47MEtQS1BLVGJzVCLQ6kyg5YBaeGQnkNBeEXD/zE53iUg96H6ikH8bl6cBQf44Gj8VmCWoI6VQ3pbWlgNm/e7Phty2dU6t5mECr1fD03HhVDWspBfBaf0sJl8iE+i8/isziQJg6kKS9mn2uFoJ4/f75bv369+18O8cy51157zX3//fc544Sv/e6779zUqVNTKa7SRPTqzMuYMWPc4MGDU1nmZhCqEy/dSw2AUjlAxxV2ed26dVV+GzdujPT+ic/iXqnci+N14rP4XJ283LBhg/vwww/dRx995H788cesNvXLL790CxYscCtWrMg6kICN/uyzz3yc1atXZ42TK83is/icixuVDoebM2fO9J2YUdNifE6toP7hhx+8wejXr59r166dQwCHRTECGrF98cUXuxNPPNF9/fXXW8UJX2P/S1DXPoPQt29fd8EFF2StfKK+eHGNZwYhrulTumrX+4Z9PeaYY9zuu+/u9txzz8zvxRdfjPT+ic+1iy9ptw/is/hcHRz/+eef3WOPPeYOPPBAd9RRR7mDDjrIHXbYYW769OkZQYzYvvHGG13Tpk29DW7cuLFvH3/yyScZ2/v555+7Cy+80F9/9NFHe/vM/7Sho6RTfBafo/CkJuPwbtCBdOmll7qTTjrJ8R5Efb7xOZWC+ptvvnFnn32222OPPVyrVq284QgL6iVLlnhjQZxDDz3UnXDCCRLUmkea9wWSoFYlENXAKl55XPnqq6+87X799dcdx/bLNZoSxtsquHC4/i+vXIRfZfATnyuDe9r4jsfPdddd51auXOkYdPr222/dbbfd5po3b54Rw59++qkbMWJEpj3M6PO///1vP5gAD8Hkv//9r8Njj7Y290FgH3fccf7eCJNCuInP4nMhjtTk+eXLl7s2bdp4zdisWTPXoUMHCWobPeYlHzRokJs2bZqbNGlSVkGNq8s111zjR6jvvvtuCWqJ6UwlQKOdSiI8X7oYQb1p0yb/QloFlM04wFd6waJUQNmuzxWGWyz3JQ254oTDVcGpggtzopL/42ZYr14932NcSjrEZ/G5FN6Er8FGhztxrJ0Rjsv/1BnUHdnqj2zxo4aJz+JzVK7ki0dbA/4G4yCgDznkEPfBBx/4cNoP4TYJHZsMTq1du9bHCd+D+913331emDN4Fbx/tmPxWXzOxotKhfEOXH/99b69MWTIEAlqq+TC+yeffDKroA7Gk6BO78tt5U8Dx15Wemlxd3rhhRd8GHM18VJ4/PHH3fDhw13Dhg3dTjvt5C655BLfMLLrwoL6nXfecfvtt5+74447fEOKCoWeLV7O448/3u2yyy5ut9128x07dg8aXF988YW76KKL3M477+xFA25XkydP9pUYFU2PHj38j2Ouo4I755xzfHosjEYe0xQefPBB/2yOhw4d6saPH+/22msvn/4zzjjDrwtgz863VwWX3ncgX7nH9dzChQtd/fr13ccff5x5b4tJq/gsPhfDF4u7atUqP83giSeecLfccos/ZtoB9Qijeddee60Po7OHdkNwTv+MGTO8+yzn6tat673kzAWWqWdMYQiKDeoCntG9e/eCnZ/is/hsHK3u/dKlS92RRx7pgi7d4WewxlD79u39uhbhc/Y/7R9cZZlKaWG59uKz+JyLG5UOl6DOsdgYotkEVdjlW4K6drzQVv5RBHXHjh09XxYtWuTF9t577+1GjRqVGakOCmpzcaJXyyoQKhSuodE1d+5c995777lzzz3XHXvssRn3kWXLlvlG12WXXea9I/CUGDt2rGvQoIGbMGGCr4jYH3744ZnKC3dX7hFskCHKjzjiCPf+++/7axDUxHnkkUcc6WdOFJ0EN99881a9zdkMliq42vE+ZCv7OIbx/uywww6uU6dOrmvXru7OO+90a9asKdhQs7yIz+KzcaGYvQlq1l156aWXvC295557vIg+88wzfacr9hU7i2ieMmVKhpM0xFiodPHixY7OVuw1dQGjfYht4r/77ruZ+Cz6hJ1//vnnM2G50io+i8+5uFFOONwcOHCgbztYOyZ8P9rOcJ/2Ty6vN+IwiDBy5MiccYL3FZ/F5yAf4nQsQS1BXbBCjhNhazItxQhqxLG5OrFnsToa8zYKYYKaRhcC9oorrsjEJ08Iahby4LzlkdHqgw8+OOO6OmzYMD86bq5TxONZTFFgdJtjeopZKASxzfk333zT9e7d25111lkZAf3GG2+4Ll26ZNy3SE+3bt2qjKjfddddXnQHR0UsXeG9KjhVcGFOVPJ/RqhpxPE77bTTfOcQc5tY+yJKusRn8TkKT8JxTFAjMuwcc0jp8MQGWxij1dhovIIsLCg2GH2+9957XevWrb2NxguK0Tvsv8VHsDdp0sRxfwvLtRefxedc3Cg1HE89Bgxw93711VczAwfB+9FxzyJNePTRlgmes2NGuDt37uzbSlEXchKfxWfjT9z2EtQS1FkNXdyIWon0FCOoJ06cmMGRxhGju23btq0iqBHYjDqfd955mRFky5e5fNOYsjDm87OiJiNu3JNrb7311sx5i/f222/7FTOJj6hGHD/88MO+krvpppv8WgA08ngG13APRu3segR1sLFGOKMouK+b26HFzbZXBacKLhsv4hDG+8R7wcKRdCoFvU1ypU98Fp9zcSNfuAnq5557LmNbsZ/Y0YceeigTxmgeHaB0Wtr9mIbDdb169fK2fNddd/VCxPiKGzleUPY/U4r69+9fpVPW7hXei8/ic5gT5fyP8D399NP9AACedME2i92XFY+Z0kabBy85C7c91+Chsc8++7grr7yyynQGi5NrLz6Lz7m4UelwCWoJ6q2MXaVJGZfnFyOoiWvpziWo+UQErtW48tHDa/HZI3YRtsGwoKCmwXXqqadmRHEwHoIb4U18wkePHu3Fg7mWM1rNIntUbri+MtrBt/LsHjzXxLaFSVCr0jIupGF///33Oz7hog4i8Xpb8dkEddAN2wQ19tSeGxbUfI8XG0yHKW6vfN4NjydG9kxAm4v37NmzPYeJL48Lcdk4VVN7BHTLli3dVVdd5eBk+Lm0fZ5++mnv3fbAAw9sNXBAfLz2WL+F+9BRhEAO3yff/xLU4n0+flTynAS1BHVRxqySZK3pZz/11FPepSno9kzjB1e78KJkUQQ136HGJZu50owSM5pseSokqImHmziLjpkbuV3Ls5lzx9x+wphrx/d3qdiYz4fLIOnG9ZB0N2rUqMqcUglqVVDGpbTuWTCwRYsWkUZC1GDT+1DKe1CKoGakDtdZuGkur4RRHwQFNZxkGtGAAQMc3lAsGpltZDBbusVn8TkbL4oNs6kHLKiHcM52PZ8QonOfT2NlO08YLuK0RRDnueLkCxefxed8/KjkOQlqCeqSjFolSVtTz54/f7531+OzDzwTAYyr9Pbbb1+yoKYRNGfOHO/Wh8ufieMogpp08O3zoEshnwjiO5BB90FcrFiw5uSTT/au3DwTsY3LKyt+9+zZM/Nc8iVBrQqqpt6pmngOnUf2XvE8Ft9jkT2mNeRqCAbTpQab3ocgH6IelyOoseHmYYT9poM0KKhJA2tfILzxMGJkL2q6xGfxOSpX8sV75ZVX/ABlYmGKAAAgAElEQVRDPi+fwYMH+xXqg4MF4XsyrQE3b3gZPhflf/FZfI7Ck0rEkaCWoC7JqFWCrDX9TBrlfG+cFVZZxIsfi8XgqlTqCLXlgUVlmFuH6xMVRBRBTTyev++++/oVjM8//3wvzBm5CI6iU5mxCBriO+gWyKe96tSp410KLR3sJahVQQX5kPTjcePGeS8SXGhZmAxvjT59+mz1TeBc+VSDTe9DLm7kCy9FUHM/puQgqBHQF154oV9I7/LLL99KUDNCyOeHGN1buXJl5HpbfBaf8/E2yjk65VkHgMGEbD/aG7Q7aItkO0+YefHR0Z8tDp8KZYX7QukRn8XnQhyp1HkJ6jyCmtU4qbiYxxT8VFbwmBWXqUjzxQnG5xjxwycyKlXoem50g8TcZdy0Z82a5csZY87cIcoRHKloWM3S5roZtsyRhhucJ4wytxEI/mekjPswGkEc5tWFF+8gDvcOjrYRl+sYdWPuNNwjTfZc2+M+yLXBETnywqqw4fg8N/zZC65nvnXwert3eK8KLjqfwtjp/+rHjneTVWX5/Nu8efP8exDmfD7cxefqL5N8eKflHIICm2l1A/nCfhJm7tyEYcOxuQhkyzttDabq4AZLOPYYO2/1h12HYGGhySh22e4tPovPxoVy9nCSdVmy/axDnzZOtvOEWRsJ7meLQ9sk2NbJlVbxWXzOxY1Kh2O7g+3+KOkxPm9HxaFf8RhIUMsgRHnRkhLHDEJS0qt06v3LxwHxWfzIx49KnWMkG5dvvmVdTBrEZ/G5GL7EPa74LD7HnaPFpM/4LEFdYoeCBLUMQjEvXNzjmkGIezqVPr13UTggPosnUXhSU3EY3Wb0Dnfw7t27RxrFC6ZNfBafg3xI+rH4LD4nncPB9BufJaglqIvqKQ+SSMfpMYpmEFSm6SnT2lyW4rN4HCf+jx071q+3gaAuZu605UF8Fp+NC2nYi8/icxp4bHkwPktQS1BLUG+RcTODYAZCe3EiyRwQn8XfOPGXedSsf1FqmsRn8blU7sTxOvFZfI4jL0tNk/FZglqCuuRKvlTy6br4GVMzCCqb+JWNyqT4MhGfi8dMPIsvZuJzfMtG703xZSM+F4+ZeBZfzIzPEtQS1BLUGqH2q4YHP88l4x1f462yKVw2VsEJq8JYCaP4YyQ+x7+M9B5FLyPxOTpW4lX8sTI+b8fiWvoVjwHLqk+ePNkLEcDUTxgkmQOs9M/Ks0nOg9Kud9A4ID6LC8aFNOzFZ/E5DTy2PIjP4rNxIQ174/N2fEtZv+IxQEwPGzbMMaqnnzBIOgcQ09iBpOdD6de7CAfEZ/EgTbZAfBafxWdxIE0cSFNezD7L5btMl2+nTQikAIE///zTrz6bgqwoC0LAic8iQZoQEJ/TVJrKi/gsDqQJAeOzBLUEdZp4rbyUiIAZhBIv12VCIFYIiM+xKg4lpkwExOcyAdTlsUJAfI5VcSgxZSJgfJaglqAuk0q6PA0ImEFIQ16UByEgPosDaUJAfE5TaSov4rM4kCYEjM8S1BLUaeK18lIiAmYQSrxclwmBWCEgPseqOJSYMhEQn8sEUJfHCgHxOVbFocSUiYDxWYJagrpMKunyNCBgBiENeVEehID4LA6kCQHxOU2lqbyIz+JAmhAwPktQS1CnidfKS4kImEEo8XJdJgRihYD4HKviUGLKREB8LhNAXR4rBMTnWBWHElMmAsZnCWoJ6jKppMvTgIAZhDTkRXkQAuKzOJAmBMTnNJWm8iI+iwNpQsD4LEEtQZ0mXisvJSJgBqHEy3WZEIgVAuJzrIpDiSkTAfG5TAB1eawQEJ9jVRxKTJkIGJ8lqCWoy6RS7bn8n3/+cfzSuJlBSGPelKfah4D4XPvKPM05Fp/TXLq1L2/ic+0r8zTn2PhcKwT1/Pnz3fr1693/QuL5hx9+cJ988ombN2+eW7ZsmeP/cJxc/3/33Xdu6tSpaeaI8hZCYPz48e6+++4LhabjXzMI6ciNcpF0BOi42rx5s/v555+r/P74449IWROfI8GkSAlBQHxOSEElLJlr165133///Vap/vvvv91XX33lli5d6r755putzm/ZsqWKXTY7vWnTJvfXX39tFT8cID6HEdH/cUGANsbcuXMdHI26GZ9TK6gRxx9++KHr16+fa9eunUMAB8UxAvqCCy5wBx54oGvVqpVr2LChO//8893q1aurxAteEzyWoI5KtfTEu+WWW1zPnj3Tk6FATswgBIJ0KAQqhsBPP/3k2rRp4xo0aOAaNWqU+b366quR0iQ+R4JJkRKCgPickIJKQDLprNywYYN77LHH3P777+/bycFkb9y40Z188snuyCOPdMcee6y3vZdddpn78ccfM9G6deuWsclmn3fffXdXr149t3jx4ky8XAficy5kFF4pBOgIYoC1T58+nv+//PJL5KQYn1MpqOlRO/vss90ee+zhxfJRRx21laB+7rnn3IMPPugF9LfffutHqGnAXX311b7HLiiesx1LUEfmWmoiSlCnpiiVkZgjQIdo69at3ezZs73nEP/z++233yKl3Cq4SJEVSQjEHAHxOeYFlKDkDRkyxIvhZs2aubp1624lqBll/uyzzxyj0L/++qtbsGCB23XXXd2ECRMyuaTD02yy7UeMGOFOPfVUx/WFNvG5EEI6X5MIfPHFF+7444/3A6vNmzd3HTt2dBLU/79LN4J60KBBbtq0aW7SpEkum6BGRIeF8r333usOO+wwB7jhc+H/Jahrku41+6zff//dVyTh+dLFCGpcpnghqThybYgD4kRxkcp1j2zhuKxwX9IQdVMFFxUpxasJBHBFZLQDl8NSNvG5FNR0TRgBbDT1QXBDZOTq2KHOwPYSJ1x/BO9R7LH4XCxiip8LgUcffdT997//9UI5m6AOXwf/zzvvPHfTTTeFT2X+p3180kkneVfZTGCeA/E5Dzg6VeMI4Jncv39/P0JNx5AEdWh+tAngJ598MqugtvPBPYIaIL/++msJ6hqn9LZ54PPPP++OPvpo38ixJzDfh7ApU6b4IHpU6a2l82XUqFFuzz33dDvttJO74oorfMPIrgsL6oULF7omTZq4wYMH+8bT6NGjfaWyZs0ad8IJJ/je3912282Pstk9aGQxZ6lXr15u5513dvXr13eHHHKI7/xBWFPR9O7d2/84ZkMgMx2B9FgYlVynTp0clSP3pDIbOXKke+qpp9zee+/t09+lSxc/D9WenW+vCi4fOjpX0wjgesWoyKpVq0p6tPhcEmy1/iLqflxXn3nmGTdw4EA/5YD/X3jhBYcrbN++fX0YnT1Dhw6tIrbnzJnjDj/8cG/TESrYbNoXbAMGDPBTGBjZsw27zTN69OhRsPNTfDbUtK8uBD7++OOsI9Th+9Ne6tChQ5UR6mAcOu4RIfA9aieS+BxEUMdxQkCCOoeYpjKLKqgZlcble9iwYX5+SVBoZzvWCHWcXoHcaSlGUDNviIbT8uXLvdhu3LixGzNmTKaSCApqPBzatm3r5+jjGsWGoOaaG2+80ff+Mpeoe/fu3pXE4sAzXEquvPJK72q1YsUKX1ExV/Tpp5/292HP/CUWZWLDpeq4447z/KRyY2ORvRYtWrglS5b4/xHUuKyMGzfOp/+tt97ynQS33357pBFwVXAeRv2JCQK4Ge64446uc+fOfvoOborr1q2LnDrxOTJUihhAwAQ1AuK1117ztnT48OFeZHft2tVNnDjRTw/DziKaZ8yYkbmahtjMmTO9uyz8pT2BAKejFLGNCP/oo48y8elYxc5Pnjw5E5brQHzOhYzCS0Ugn6BmjjXeQfD2oosucuecc45vh2R7Fu8MAwvTp0/PdjprmPicFRYFxgABCeoyBTWLlzHa9+9//zvS6DQCW4I6BsyPkIRiBDUuH+Z+jcG//PLLfWPeVhY2QU0FAl+Yb2/xSQqC+oADDqiyKiauJIxAm+vq/fff70fHEcm2cY977rnHe0dwzDWMdCDs2ViF/tJLL/VuVyagqejOOuusjOshgppKD1dD2/C4oMEWHBWxc+G9KrgwIvq/kggwQo2A4XfmmWf6qTh0RDG3L8omPkdBSXHCCJigvvvuuzOnqOvp8MQG28ZoNTYaryDbgqNzHHPumGOO8TYZL6hTTjnFPfDAAxbdC3YWheL+hTbxuRBCOl8sAvkENV+wwd6yaC/tDDqKgm2L4LPoXDr99NMzAwDBc7mOxedcyCi80ghIUJcoqBE1zCVhVBHx9OWXXxZ09bbRagnqStM+2vOLEdTPPvts5qa4Md12223eddvm0CGoWeyOUWdWiLcRZLsIQc2UgWDDipUxDz74YId7OPfkujvuuMMuyezff/99L7yJT2Vz7rnnuscff9zfi3SwiB6NPFzS2VgjgFE72xDUwcYa4VR0uK/D2UKbKrhCCOl8pRDgfULAnHjiif69yNWwC6ZPfA6ioeOoCJigDo4aYz+xo6yKbBu2H5tLp6VtzKt++eWXvfCmE5UpC8HpRnge4QXFHGs22hy4ggc7Ze1e4b34HEZE/5eLQD5BzSACHKcz/t133/UDBUGu27PxvGNw4aWXXrKgSHvxORJMilQBBCSoSxDUuA/Sg4zbLMIF9ysTy1H2EtQVYHoJjyxGUBPXtlyCmhEHXKtx6w6vZmlzqO0e7IOCGmF+xhlnZERxMB6CG+Ftn6YYO3asFw/mWo5rOCseI+jhLg2zd955J3MLGnc8P7hJUAfR0HHSEXj44YfdPvvsk3lH8uVHDbZ86OhcLgRMUL/yyiuZKCaosae2hQU13+xFWNBh+tBDDzk+74bHU1BQm4s3AoV7El8eF4ao9jWNQD5BHU4Lgw18QgveBjfaJKw/wxS0YjbZ52LQUtyaRECCugRBzcg0i43wAe8oAjocR4K6Jile+rNefPFFd+ihhzqbe8ydWEEYV7vwomRRBDXfof7888+9VwMjzcHRhUKCmmfjJs6iY+ZGbjnj2cy5s9VjmWvH9x1Jf/v27b14p9HGp+BI91577VVlTqkEtSGpfVoRwAODLzZoCkNaS7jy+SpFUONBwVobcNNGnwnDmygoqBERjErjXYRAYdHIoDdTvtxLgORDR+dKQaAYQf3mm296Qc3catto+7BGAN504faMxcm1F59zIaPwSiMgQV2CoGZlTVZNpmctLJaj/C9BXWnaR3v+okWLvLverFmz/AVUArhKb7/99iULahpB5qKNG5RVJlEENelo2LBhlYVoEPhHHHFEFfdBOEgY33VESPBMxDaVF6tpXnLJJVVWmJWgjsYHxUoGArwT9l6RYtYO4JOGvAt4jxTa1GArhJDOZ0OgHEHNnGqmJrAxnYwO0qCgJvztt9/2wpv51LYIZbZ0hMPE5zAi+r9cBHIJahbUM085nsFnaJluc/3111cZQKDzqHXr1u7BBx+M3DFkaRafDQnt44aABHUJghoBgqgK/3bZZRfvWltIVEtQx+01yJ4eGuU33HCDX5G1W7dufoENXP1btWpVsqC2J7EKLHPrcM+mgogiqEkPz2dVTFYwZgVNXL0ZuQiOoiP8b775Zi++V65caY/0q8zWqVPHuxRmAp3z8/nk8h1ERMdJRoBP2OFFggstC5PhrXHttddW6UTKlz812PKho3O5EChFUHMvpuTQAYqAxouJhfSuuuqqrQQ1ruKss4GnEc+KuonPUZFSvKgI5BLUdPQwtYbpZdhfFlrFmwJhHdz4n3YMC6QWu4nPxSKm+DWFgAR1HkHNHFQECT3GQZHM902XLVu21Y+VlZmjGoyb7ViCuqboXf5zmLvMytnz58/3lQLGnPlstrgRo7/B/+2JCFx4Y255/B/suWWkjOssDo0ljoMbcfCCCI622XWMutEbTMVEmsIbPcBcGxyRIy9wLxyf5/L84MaCIXA5eH3wfPBYFVwQDR1XGgHeTb7nzuff+AoD70GY8/nSKD7nQ0fnciFARyY20+oG4mE/CbNPHxJGnYDNDa6jwVQEPpXIj3DsMS6yVn/YdXSestBkFLts6RSfDQntqwsBOEVbItg24d60MZheRtuEHx0/hIU3rue9YF/sJj4Xi5ji1xQC1o4P2u1CzzY+b5dNLCrsfxLUhRik86lCwAxCqjKlzNRaBMTnWlv0sc44HfYtW7bMfBIxamLF56hIKV4SEBCfk1BKSmNUBIzPEtR5RrfzdSxohDoq1RQvCQiYQUhCWpVGIVAIAfG5EEI6X5MI4G1Em6FXr16O9VvCo4KF0iI+F0JI55OEgPicpNJSWgshYHyWoJagLsQVna8FCJhBqAVZVRZrAQLicy0o5ARlccKECX69DQR1MXOnLYvisyGhfRoQEJ/TUIrKgyFgfJaglqA2TmhfixEwg1CLIVDWU4SA+JyiwkxBVpiPl20eatSsic9RkVK8JCAgPiehlJTGqAgYnyWoJaijckbxUoyAGYQUZ1FZq0UIiM+1qLBrQVbF51pQyLUoi+JzLSrsWpBV47MEtQR1LaC7slgIATMIheLpvBBIAgLicxJKSWmMioD4HBUpxUsCAuJzEkpJaYyKgPF5OxbK0K94DNauXesmT57sPxkAmPoJgyRz4LfffvMrzyY5D0q73kHjgPgsLhgX0rAXn8XnNPDY8iA+i8/GhTTsjc/bTZ061elXPAaI6WHDhvlvXPOda/2EQZI5wOdcZs6cKR7rXU4FB8Rn2eMk2+Nw2sVn8TnMiST/Lz6Lz0nmbzjtxme5fJfp8r1lyxannzBIOgd++uknt2TJEnFZ73MqOCA+yyYn3SYH0y8+i89BPiT9WHwWn5PO4WD6jc8S1BLUqWhAB8mt4+KNtRkEYVc8dsIsfpiJz/ErE70npZeJ+Fw6duJd/LATn+NXJnpPSi8T47MEtQS1BLVGJZ0ZBBnV0o2qsIsPduJzfMpC70X5ZSE+l4+heBgfDMXn+JSF3ovyy8L4LEEtQS1BLUEtQS0OpMoOWAWnxkL5jQVhWHkMxefKl4Heg+orA/G5+rAULyuPpfFZglqCOlUNaRmX0oyLGQThVxp+wi1euInP8SoPvR/llYf4XB5+4l+88BOf41Ueej/KKw/jswS1BLUEtUYnNUItDqTKDlgFp4ZCeQ0F4RcP/MTneJSD3ofqKQfxuXpwFB/jgaPxWYJagjpVDWkZmNIMjBkE4VcafsItXriJz/EqD70f5ZWH+FwefuJfvPATn+NVHno/yisP47MEtQS1BLVGJzVCLQ6kyg5YBaeGQnkNBeEXD/zE53iUg96H6ikH8bl6cBQf44Gj8VmCWoI6VQ3pbWlgNm/e7Phty2dU6t5mECr1fD03HhVDWspBfBaf0sJl8iE+i8/isziQJg6kKS9mn2uFoJ4/f75bv369+19IPH///ffuww8/dPPmzXOff/75VufD8YP/f/fdd27q1KmpFFdpInp15mXMmDFu8ODBqSxzMwjViZfupQZAqRyg4wqbvW7duiq/jRs3Rnr/xGdxr1TuxfE68Vl8ri5eYkPDdpW2cK77L1y40HfoBM8TP3wP+//nn3/OeS+7h/gsPhsX4raHmzNnztyK8/nSaXxOraD+4YcfvFju16+fa9eunUMABwXxO++84w499FDXokUL//vXv/7lBgwYkFV4B6+zYwnq2mcQ+vbt6y644IKClUW+Fy+u58wgxDV9Slftet+wr8ccc4zbfffd3Z577pn5vfjii5HeP/G5dvEl7fZBfBafq4vjDz30kKtfv37GpmJfTzvtNBfsrNy0aZNbunSpu+WWW1z79u192zn4/DPPPLPK9dxjt912c3Xr1nXvvfdeQRstPovPQT7F4ZiOoAULFrhLL73UnXTSSW7Dhg0FeWzpNj6nUlB/88037uyzz3Z77LGHa9WqlTvqqKO2EtQff/yx40dcfow2YxReffXVKsLbBHR4L0Fd+wyCBHXtK3MzmNrXbNl/9dVX3na//vrrjmP7/fjjj5EqOavgVG41W27Ce9vgLT5vG1xrI1/vueced/XVV2dsKraV9qxNZ2Mw6txzz/Xt56OPPtrxo/0bxIr4ZpNtf++997qTTz7ZD0oF42Y7Fp/F52y8qFTY8uXLXZs2bTznmzVr5jp06CBBbaIXgTxo0CA3bdo0N2nSpKyC2uLaHheW448/3mEULCzfXoI6vQaBRjuVilUw9pIXI6jp4aWHi4rDrg/v4RdxorhIha/N9z89zdyXNOSLFzynCi69fA6Wc1KOV6xY4erVq+d7jEtJs/gsPpfCm/A12OhwJ461C8Jx+Z86g7ojW/2RLX7UMPFZfI7KlULxbrzxRnfXXXflbBvAXc6/+eab7tlnn80qqMPP+Prrr70ImTFjRs77Bq8Rn8XnIB8qffzpp5+666+/3rc3hgwZIkFtlVx4/+STT0YS1GvXrvUjIlOmTJGgTtGKx1b+VBL20jLXB6+FF154wYcxVxP3/8cff9wNHz7cNWzY0O20007ukksu8Q0juy4sqJk2sN9++7k77rjDN6Tuu+8+/yLyctI5s8suu3g3KDp27B40uL744gt30UUXuZ133tmLhoMOOshNnjzZC2sqmh49evgfx1yHQD7nnHN8eiyMRt6JJ57oHnzwQf9sjocOHerGjx/v9tprL5/+M844w+WbG2VpYq8KThVckA+VPmbeHm6JeBGVkhbxWXwuhTerVq3y0wyeeOIJ7+7KlAN+1CPffvutu/baa/3/dPbcfffdVdxkEROHHXaYt+m4vuIlh9AgHUw9YwoDHfGWLuoCXGq7d+9esPNTfBafjTfl7mlf0G6Icp/nnnuuoKCm456BKPgOp6PcV3wWn6PwpBJxJKhDi40FRbUJKiqyYDjHDPOzINnzzz/vTjnlFEfPHWIrHC/b/xqhToZBsPKPIqg7duzoG06LFi3yYnvvvfd2o0aNylQSQUHNInbHHXec79Uy0Yqg5hoaXXPnzvVziXCdOvbYYzPuI8uWLfONrssuu8yxWN5HH33kxo4d6xo0aOAmTJjgKyP2hx9+eMZ1Cpcq7hFskCHKjzjiCPf+++/7axDUxHnkkUcc6Z8+fbrvJLj55psjjYCrgksGnytRwVTimbw/O+ywg+vUqZPr2rWru/POO92aNWsiNdZIr/gsPpfCWxPUrLvy0ksveVuKiyyimnmjdLpiX7GziGY64O05NMSYOrZ48WJHZyv2mroADyTENvHffffdTPwvv/zS23naH3aPXHvxWXzOxY1iwuHiWWed5UUyfL788svd22+/nWnjhO8VRVCvXLnSDyy88sorBXls9xefxWfjQtz2EtQlCupHH33Uiw5GCM877zzvIo6rbDYBHQ6ToE6GQShGUOPyYe7X7C+++GLfmLfFOkxQ0+hCwF5xxRWZ+BgFBHXTpk0d581IMFp98MEHZ1xXhw0b5kfH8YiwODyLKQrM2+D4k08+8aIbsU0cXK969+7tK0IT0G+88Ybr0qWL5ypxSE+3bt2qjKjjtoXoDo6K2DPDe1VwyeBzuNzS+j8j1DT4+LFgDh4kzG1asmRJ5r3Jl3fxWXzOx49c50xQDxw4MMOz1atX+w5PbLBdx2g1o9F4BVlYcIoNI3WM2rVu3drbaLygWOgG+2/xEexNmjRx3N/Ccu3FZ/E5FzeKCYdHt99+u7ereLCdcMIJbtddd/VctbZP8H5RBDWdS507d84MAASvz3UsPovPubhR6XAJ6hIFNUIDYcPIBy63+++/v+PTSIxmhgV0+H8J6mQYhGIE9cSJEzMNGxpHjO62bds249aHoGa0jFFnOmBoJAVffnP5Dro9MZ//wAMP9CPW3JNrb7311irXcQ96ienYIT4VG+L44Ycf9j3HN910k18LgEYezyA+92DUzp6PoA421ginosN93dwOLW62vSq4ZPA5W9mlPYz3ifeCxh+jK0Fvk1x5F5/F51zcyBdughohYfGwn9hRVke2MLyS6AANzkVlGg7X9erVy9tyhApTi4yvuJHjBWX/M6Wof//+VTpl7f7hvfgsPoc5UR3/w1k+BcrUNUaaw/csJKgZgILTzzzzzFbXhu8V/F98Fp+DfIjTsQR1iYI6LJIRLqxoiMgOnwv/L0GdDINQjKAmrr3YuQQ1/MC1Glc+pgdYfPaIXYRtMCwoqKm8Tj311IwoDsbDxRXhTXzCR48e7cWDuZYzWs1cbAQ9HUCMdvCtPLsHzzWxbWES1MngqJWX9vnL6/7773eNGzdWB1GK1riIG+dNUAfdsE1QY08tvWFB/dlnn3nbT4fpyJEjHZ93w+MpKKjNxXv27Nmew9hseVzkf+cNb+23HU5MQ8P7Z86cORl+G96FBDVfYTjkkEP8ujB2TZS9BPW2K88o+CtObvwlqKtJUOOihYss81PDAjr8vwR1bkLG6WV96qmnvMGnvCxdNH5wtQsvShZFUPMdalyymSvNKHHQTaqQoOb5uImzKIi5kVuaeDZz7uAZYcy14zNuTz/9tP+OOqPhpJu51qS7UaNGVeaUSlAng49W3toXX14sGNiiRQtNYZCgztjy6n6PShHUeFCw1gbcZMSONBFGfRAU1IgIphENGDDA4Q2Fy23QmylfXiRAircX+fDUuf/Dk4Ufmzdv7j744IOt3qt8gpq2DwMLeNOF2zOF8BWf/w//QljpfM1iJUFdgqB+6623vMuuCWVGAKkQmcsaZR61BHXNkrxUo8LCX7jr0ZPKPagEcJXefvvtSxbUNILozcVFG5c/q0yiCGrSwffRqagsT3wiiAot6D7IQmQsTMZ3HXHl5plwFZdXVvzu2bNn5rncR4I6GXy0Mtc+f3nReWTvFVixdgDzqHkXgnNVc+GoBlt+fHPhVtvDyxHU2HDzMMJ+00EaFNRgy9oXtDPwMMIFPCre4rP4HJUr+eLRbqW9YXHoqKeDH66GPe6Ik09Q005u1aqVGzFiROSOIXuu+Cw+GxfitpegLkFQ33DDDX7eCEv901O8zz77+N5jDI6J7Hx7CepkGAQa5ddcc41fYZVFvPjhidCyZXcKw50AACAASURBVMuSBbUZABaVQazzCQoqiCiCmng8f9999/UrGJ9//vlemDNyAafs3gh/5mwjvoNugawyW6dOHe9SaHHZS1Ang4/BMtNx7jIbN26c9yLBhZaFyfDW6NOnz1bfBM6FoRpsubHNhZnCt/gFJVnRu1iXbzrkEdQI6AsvvNAvpMcKymFBjYBp37699zTKNmc1VxmIz+JzLm4UE84CeHCSjnq87VgwlYXzsrl7c998gprOJ+Ze00lUTBqIKz6Lz8VypqbiS1DnEdSsxknFFV5ojJ5kPm/BiCGj1fTaUdnlE9HBcxLUyTEIzF3GTXvWrFm+wYQxZz4b5clLyugvbv62WIy9uPTYMp/e3PIocxuBIA4jZdyH0QjiMK+OY7ve4nDv4GgbcbmOUTfmTlMxkabgdRzTA8y1wRE58kKlGI7Pc+3zXXYfrme+dfB6Oxfeq4JLDp/DZZfG/3k3WSGfz7/xaUPegzDn8+VbfBaf8/Ej1zk6MrGZVjcQD/tJGPbUrsOGY3NpM1gYbQ2m6rz33ns+HHuMnbf6g3gc03nKei1R7LLdW3wWn40L5eyNy7h3I4RpFwV5Hb4370GYwxYHTvJeFGOXg9cGBwosXHvxvNIcwKYH2/1R0mP2eTteGP2Kx0CCWi9+lBctKXHMICQlvUqn3r98HBCfxY98/KjUOZtaxresi0mD+Cw+F8OXuMcVn8XnuHO0mPQZnyWoS+xQkKCWQSjmhYt7XDMIcU+n0qf3LgoHxGfxJApPaioOo4B4FuEO3r179yoeS1HSID6Lz1F4kpQ44rP4nBSuRkmn8VmCWoK6qJ7yKORSnOQZSzMIKrvklZ3KbOsyE5+3xkQ8qRwmY8eO9ettIKiLmTttZSY+V67srAy0r74yEJ+rD0vxsvJYGp8lqCWoJaj1GRo/D0pzmipvmFU5Vk8ZWAUnPKsHT+FYHo7MnWb9i1JxFJ/Lw79U3HXdtsFdfN42uIqvlcHV+CxBLUFdciWvl7cyL++2wN0Mwra4t+6ZHp4kpSzFZ3EuKVyNkk7xWXyOwpOkxBGfxeekcDVKOo3PEtQS1BLUGqHWCLU4kCo7YBVclMpQcdS4izsHxGdxNO4cLSZ94rP4XAxf4h7X+Lwdi2vpVzwGLKs+efJkL0QAUz9hkGQOsNI/K88mOQ9Ku95B44D4LC4YF9KwF5/F5zTw2PIgPovPxoU07I3P202dOtXpVzwGiOlhw4Y55p3qJwySzgHENHYg6flQ+vUuwgHxWTxIky0Qn8Vn8VkcSBMH0pQXs89y+S7T5dtpEwIpQODPP//0q8+mICvKghBw4rNIkCYExOc0labyIj6LA2lCwPgsQS1BnSZeKy8lImAGocTLdZkQiBUC4nOsikOJKRMB8blMAHV5rBAQn2NVHEpMmQgYnyWoJajLpJIuTwMCZhDSkBflQQiIz+JAmhAQn9NUmsqL+CwOpAkB47MEtQR1mnitvJSIgBmEEi/XZUIgVgiIz7EqDiWmTATE5zIB1OWxQkB8jlVxKDFlImB8lqCWoC6TSro8DQiYQUhDXpQHISA+iwNpQkB8TlNpKi/isziQJgSMzxLUEtRp4rXyUiICZhBKvFyXCYFYISA+x6o4lJgyERCfywRQl8cKAfE5VsWhxJSJgPFZglqCukwq6fI0IGAGIQ15UR6EgPgsDqQJAfE5TaWpvIjP4kCaEDA+S1BLUKeJ18pLiQiYQSjxcl0mBGKFgPgcq+JQYspEQHwuE0BdHisExOdYFYcSUyYCxmcJagnqMqlUey7/559/HL80bmYQ0pg35an2ISA+174yT3OOxec0l27ty5v4XPvKPM05Nj7XCkE9f/58t379eve/POKZ82vXrnU//PBD3nh2j++++85NnTo1zRxR3kIIjB8/3t13332h0HT8awYhHblRLpKOAB1Xmzdvdj///HOV3x9//BEpa+JzJJgUKSEIiM8JKagUJHPLli1VbG7QBmezv4TNnTvXwdGom/gcFSnFq2kEyuFzagU1wvjDDz90/fr1c+3atXMIYBPD4f23337rzj//fHfUUUfljRe8ToK6pmle+efdcsstrmfPnpVPyDZIgSq4bQCqblkyAj/99JNr06aNa9CggWvUqFHm9+qrr0a6p/gcCSZFSggC4nNCCirhyYRnffr0ydhbs70NGzZ0derUca+88komh3/99Zf75JNPfPyTTz7Z/fLLL5lzhQ7E50II6XxNI1AdfE6loP7mm2/c2Wef7fbYYw/XqlWrgkJ5+vTpbpdddikYT4K6piker+dJUMerPJSa9CJAh2jr1q3d7NmzvdcQ//P77bffImVaDbZIMClSQhAQnxNSUClIJiPSZm9t/9prr7lOnTq5H3/80efwiy++cMcff7xDaDdv3tx17NhRgjoFZV9bs1BdfE6toB40aJCbNm2amzRpUl6hDJBdu3Z1N910U954QTHNsUao0/vq/f777+7XX3/dar50MYL677//9hUMDaFcG+KAXl16xqpzw2WF+5KGqJsabFGRUryaQIDpN/Xq1XNLly4t6XHic0mw6aIQAtho6oPgRt2Qq2OHqQrY3mz1R/AexR6Lz8UipvjVhQAi+pRTTnFPPfVU5parV692/fv39yPUI0aMkKDOIKODJCJQXXxOpaAOit8nn3wyp1DesGGDu+OOO9x5553n3njjjZzxgvezYwnqZLw2zz//vDv66KN9I8dSTA8sYVOmTPFBmzZtcs2aNfOdL6NGjXJ77rmn22mnndwVV1zhG0Z2XVhQL1y40DVp0sQNHjzYi+/Ro0e7k046ya1Zs8adcMIJrm7dum633Xbzo2x2Dxpc33//vevVq5fbeeedXf369d0hhxziO38Q1jScevfu7X8csyGQmZJAeiyMRh49xo8++qh/Ns8dOXKkr/T23ntvn/4uXbr4eaj27Hx7NdjyoaNzNY0AroS77rqrW7VqVUmPFp9Lgq3WX/T111+73Xff3T3zzDNu4MCBfsoB/7/wwgtu48aNrm/fvj6Mzp6hQ4dWEdtz5sxxhx9+uLfp2H5sNu0FtgEDBvgpDExlsI26gGf06NGjYOen+GyoaV/TCMB92keMVmfbJKizoaKwpCJQDp9rtaDGnRC3FYTRrFmzJKiT+gbkSXcxgpp5QFQey5cv92K7cePGbsyYMZmR6qCgZt5927Zt/Rx9FvFgQ1BzzY033ugWLFjgFi9e7Lp37+45ZnHwiMBF6sorr/Rz/FesWOEmTJjgG2lPP/20vw/7I488MiOGqciOO+443yCjM4CNRfRatGjhlixZ4v9HUMPlcePG+fS/9dZbvhK8/fbbI42Aq8HmYdSfmCDA+7Pjjju6zp07++k7Q4YMcevWrYucOvE5MlSKGEDABHWHDh0cbq7UBcOHD/ciG0+2iRMnumXLlnk7i2ieMWNG5moaYjNnznSfffb/2nsPdyuKrO3bf4HrxfExZwwgKiKKAoIZMaIwCoKCIAqigzI6BswBDOiIARRFccSE8igqRlBRgqiAmFDEAGYcIzNOrPf61feu/dVpdu/dOxx2d5+7r2uf7lNd1V216q5VdVetWv2R1//4AICAM1EK2YaEL126tBCfiVX0/MyZMwthcRfCc5xkFN6cEgB3xx13nF9sYAKo2FELASn2PIVJAo2UQC14brGEGiKy//77Ozw3M4ssQt1ICDffuysh1Jgwmfk1HcnIkSP9YJ4VYg4j1Ay6WB0+++yzC/G5D6HeddddHXv47cCUhBVoM12dMGGCXx0PZ3t557hx47zZFNekYaWDwRzH/Pnz3YgRI7wlhRFoBmj9+/cvmB5CqAcMGNBkRf3666/3A7ZwVcTyFT1rwBaViP5vpARYoYbA8Ovbt6/r1KmTn4iCrCQ5hOckUlKcqASMUI8dO7ZwC2s0nOOhg+1gtRodjVWQHSHh4Jp7PXr08DoZKyjMZm+55RaL7gn7Lrvs4rePFQJjLoTnGMEouFklMGfOHMfkki0IFHtZLQSk2PMUJgk0UgK14LlFEmrIDN6aWSWksxShbiR8m/fdlRDqRx55pJAZ9h9fdtll3nTb9tBBqHF2x6rz4MGDCyvIlghCjXOOcGDF/qMOHTp4KwieSTq2GUSPRYsWeeJNfAZPAwcOdFOmTPHPIh/Tp093DPIwSefARwCrdnZAqMPBGuGsVmO+bmaHFrfYWQO2YlJRWBokQHuCwPTq1cu3C/anljuE53IS0v1iEjBCHa4aoz/Ro3fffXchCZ90Q+cyaWkH+6qfeOIJT7yZRGXLQrjdCMuj0BsyE7aYgtskrj2n2Fl4LiYVhTWnBNCz/fr1c9dcc03J19RCQEo+WDclgQZIoBY8tzhCDZmG+LRp08bvST3vvPMcv1NOOcWHjR49urBqTUca99Me6gYgvYpXVkKoiWtHHKFmxQHTasy6WXUID3DFICs8QkINMe/Tp0+BFIfx2HYA8SY+x+TJkz15MNNyTMPZogChx/SVgdm8efMKj+C9vD88RKhDaeg66xKYNGmS22mnnQptpFR5REBKSUf34iRghDr8PJARavSpHVFCvXr1am+1xITpxIkTHZ93w+IpJNRm4r1w4UI/rsDKSRYXJlGd0yYBtjbg42XBggUls1YLASn5YN2UBBoggVrw3OIINY7IMMXCPDb8QVD4zBYzcldffXUskTaCLULdAKRX8coZM2a4jh07Ott7zCPwIIypXdQpWRJCjWXDypUr/V5pVprD1YVyhJp3YyaO0zEzI7ci8W723Jn3WPba8Q1I8t+zZ09P3hm0gVHyzYRQuKdUhNokqXNeJYAFRteuXZ22MOS1hhtfrmoINRYU+NoAm/YtXsKwJgoJNZM8rEpjXYQ1FE4jQ2umUqXXBFEp6ehec0gA3y74iSmnb2shIM2Rbz1TEqhFArXgucURaiPE0bP2UNcCwfSmXbJkiTfXo345IMCYSrdq1apqQs0gyEy0MfkzcpyEUJMPvt0YmhRC8Dt37tzEfBB8Eta7d29vys07IduYguM9dvjw4U08zIpQpxeDylnlEqBNWLsiNb4D2EcNqU7yOTgRkMplrhTO1UKo2VPN1gQOLOGYIA0JNeFz5871xJv91OaEMoncheckUlKcekmAcRLe59mSUG7SpxYCUq/86jmSQL0kUAueRaj/n1m3CHW94Jiu5zAox6Qfj6xYH+DICwuFbt26VU2orYR4gWVvHebZDHiSEGryw/v53BYejIcMGeJNvVm5CFfR6dDGjBnjyfeKFSvsld7LbOvWrb1JYSHQOW9qLpPvUCK6zrIEpk2b5q1IMKHFMRnWGmzHMX8G5comAlJOQrpfTALVEGqew5YcJkAh0Fgx4Uhv1KhR6xBqTMXxs4GlEe9KegjPSSWlePWQABND3bt3X2ecUezZtRCQYs9TmCTQSAnUgufcE2r2oEJImDGOrkqH/2M+mySepZHJdyMhX9m7GYTjOZu9QHjgZnDCfjZzbsQMbPi/PR2CC25shpb/bY8zcVgpI53FYbDEdXgQh09chattlo5VNz4PZHkK03GN+SBpwxU5ygL2KEN48F7eHx545gTXYfrwfnitAVsoDV03WgK0Tb7nzuffFi9e7NtBFPOl8ig8l5KO7sVJgIlMdKb1DcRDfxIWejqmT0Dnhn40MI3lU4n8CEcfs8XM+g+exTWTpziaTKKXLZ/Cs0lC5/UhAdoBY5skE5g27glxXi6PwnM5Cel+oyRQC55zT6iNANf7LELdKLjrvc0hAXVwzSFVPbNREhCeGyV5vbeUBPgUYpcuXQqfRCwVN7wnPIfS0HXWJSA8Z70Glf9QAoZnEeoSnrxLkXAR6hBOus66BEwhZL0cyr8kgASEZ+EgTRLA2ogxw7Bhw/ze1NBiKUk+heckUlKcrEhAeM5KTSmfSSRgeBahFqFOghfFybkETCHkvJgqXguRgPDcQio6I8XEYzL+NiDUleydtuIJzyYJnfMgAeE5D7WoMpgEDM8i1CLUhgmdW7AETCG0YBGo6DmSgPCco8rMQVHYX5pkP2pcUYXnOMkoPIsSEJ6zWGvKc5wEDM8i1CLUcRhReAuSgCmEFlRkFTXHEhCec1y5LbBownMLrPQcF1l4znHltsCiGZ5FqEWoWyD8VeSoBEwhRMP1vySQRQkIz1msNeU5TgLCc5xkFJ5FCQjPWaw15TlOAobnDXCUoV/lMli1apWbOXOmd36DMPWTDLKMgd9++817ns1yGZR3tUHDgPAsLBgW8nAWnoXnPODYyiA8C8+GhTycDc8bzJo1y+lXuQwg0+PHj/ffrub71fpJBlnGAJ9zmT17tnCstpwLDAjP0sdZ1sfRvAvPwnMUE1n+X3gWnrOM32jeDc8y+a7R5Hvt2rVOP8kg6xj46aef3LJly4RltedcYEB4lk7Ouk4O8y88C88hHrJ+LTwLz1nHcJh/w7MItQh1LgbQIbh1XbmyNoUg2VUuO8ksfTITntNXJ2on1deJ8Fy97IS79MlOeE5fnaidVF8nhmcRahFqEWqtSjpTCFKq1StVyS49shOe01MXahe114XwXLsMhcP0yFB4Tk9dqF3UXheGZxFqEWoRahFqEWphIFd6wDo4DRZqHyxIho2XofDc+DpQO6hfHQjP9ZOlcNl4WRqeRahFqHM1kJZyqU65mEKQ/KqTn+SWLrkJz+mqD7WP2upDeK5NfsJfuuQnPKerPtQ+aqsPw7MItQi1CLVWJ7VCLQzkSg9YB6eBQm0DBckvHfITntNRD2oP9akH4bk+chQe0yFHw7MItQh1rgbSUjDVKRhTCJJfdfKT3NIlN+E5XfWh9lFbfQjPtclP+EuX/ITndNWH2kdt9WF4FqEWoRah1uqkVqiFgVzpAevgNFCobaAg+aVDfsJzOupB7aE+9SA810eOwmM65Gh4FqEWoc7VQLo5Fcyvv/7q+DXnOxr1bFMIjXq/3puOjiEv9SA8C095wTLlEJ6FZ+FZGMgTBvJUFtPPLYJQL1iwwH377bfurwF5/v77792qVavc559/3uQXjRemCa+//vprN2vWrFySqzwBvZ5lufPOO921116byzo3hVBPeelZGgBUiwEmrtDF33zzTZPfjz/+mKj9Cc/CXrXYS2M64Vl4bg5cfvjhh378Gz57zZo1TXRuqIPj9C/h3333XeIFB+FZeA4xl6ZrsDl79mw/iZk0X4bn3BJqCPPixYvdBRdc4A455BAHAQ4J8Weffea6d+/uttpqK7ftttsWfg8//HCTeGGa8FqEuuUphPPPP98NHjw40YA+aUNMSzxTCGnJj/LR8tpXWOfo1x49enj9vN122zn7zZgxI1H7E55bNn5CLOXhWngWnuuFYyYrWUyaOHGia9eunZs3b15Bp4KzESNGFPSt6d1tttnG/Z//83/co48+Wohr+WFczLhov/3282NnCy91Fp6F51L4aMS9n3/+2b355pse/0cccYRjYilpPgzPuSTUX375pTvxxBMdSqBbt26ua9eu6xDqjz/+2Ic/+eSTbuXKlYVflHiHJDq8FqFueQpBhLrl1XlShap49cXG6tWrve5+9tlnHdf2++GHHxJ1ctbBqV7qWy+SZ2PkKTw3Ru55xPvVV1/ttt9+e7fHHnu4TTbZpAmhprysSJu+tfPjjz/uevXq5RhbR2Xy8ssvu0033VSEWn5Y1sFGFCtp/X/58uXugAMO8Jxxzz33dIcddpgItRFeGv2VV17pnnvuOTdt2rSihPqdd97xSmD+/PmJVqTt2XYWoc5vB8egHQuH6H7pSgj1L7/84hskA6E4JQKWmAVjZiwuTjXhmF/xXPKQNL0GbPnFc1IMpCkepoibbbaZnzGuJl/Cs/BcDW6iadDR0UkcGwNE4/I/fQZ9R7H+o1j8pGHCs/CcFCvl4t1+++3uoYcecq+99lpRQh1N/8UXX7gjjzzSTZ06dZ3xBONgFq8uueQSEWoR6nXwEcVSWv9///333bnnnuvHG9ddd50ItXVy0fMDDzxQlFCzr3rzzTd3b731lgh1jhWB1T8DHGvMzMBitfDYY4/5MPZqduzY0U2ZMsXdeOON3vx/o402csOHD/cDI0sXJdSYSrVt29ZdddVVfiB10003+YZI4zzooIN8Z7Xlllv6iR17BgMuthsMGTLEbbzxxp407L777m7mzJmeWDNwGjp0qP9xTToI8oABA3x+LIxBHjPGdI48k+sbbrjB3Xvvva5NmzaO/Pfp08fva7J3lzprwKYBWyl8rO976GX0MxOf1bxbeBaeq8ENlmtsA7vvvvvcxRdf7K/5n37kq6++cqNHj/ZhTPaMHTvW62Z7z4svvug6derkdTordhANyAj32XrGFgYIiMVHb/OOQYMGlZ38FJ6FZ8NNvc5vvPFGIkIN9lnNZrU6fDcT9uPGjfP4ZZVaJt/CaIiPrF6LUAfOxpIS6pdeesltuOGG7vDDD3e///3v3eWXX+5Y9o+mj/tfK9TZUB6VEGqwQPwlS5Z4sr3DDju4W2+9tbBSHRJqtgkceOCBflYLZxwoDwg1aRh0Mfv7+uuvu4EDB7r999+/YD7ywQcf+EHXGWec4ZjUWbp0qZs8ebLbeuutCzPAzATvvffe3ikTz6Uj4xnhgAxS3rlzZ7do0SL/bgg1ce644w6f/+eff95PEowZMybRCrgGbNnAc1Y7qUrzTftBP7MycsIJJzjMFD/99NMmA7pSzxSehedS+Ii7Z4QavyuYudIXQBog1X379vWTroShZyHNTz31VAGTDMRwVPr22297M1r0NX0BFkiQbeIvXLiwEB+HqOj5YvtSo/kTnoXnKCZq/T8JoQZ3xxxzjMc9E0DhO7HupJ0w6Ym+FqEWRkN8ZPVahLoKQg2ZOfbYY/0PhcEMHKuUbEqPI9FhuAh1NpRHJYQakw8zv+Z8+umn+8G8ebY0Qs2gCwJ75plnFuKjPCDU7du3d9w3ZcJqdYcOHQqmq+PHj/er4zgFsTi8iy0K7Nvg+r333vOkG7JNnDlz5rjTTjvN9e/fv0CgX3jhBXf88cd7rBKH/PTr16/Jivo111zjSXe4KmLvjJ41YMsGnqP1ltf/WaGGwPBDT6Ob2du0bNmyQrspVXbhWXguhY+4e0aor7jiigLOPvnkEz/hiQ62dKxWsxqNVZCFhVtsIB/XX3+9d3zKuAErKBzdoP8tPoQdp1A838LizsKz8ByHjWrDkxBqJoggzVEHTSw+saDAlkreL0ItfFaLw7SlE6GuglCH5BhzYFY/UByQFDrL8H6xaxHqbCiQSgj1/fffXxjYMDhidffggw8umPVBqFktY9X5pJNOKqwgm0Iwk+9wJpf9/LvttpvvcHgmaS+99NLCeyzt3LlzHabfxIdUQ44nTZrkV8cvuugi33ExyOMdpOEZrNpZegh1OFgjnFUUPNib2aHFLXbWgC0beC5Wd3kPoz3RLg499FA/qRRu34gru/AsPMdho1S4Eerp06cXdCv6Ez2KV2RLi1USE6BMWloY23BIN2zYMK/Lt9hiCz95anjFjBwrKPufLUUXXnhhk0lZe1b0LDwLz1FM1Pp/OUINTs16M3wX+pjJpXPOOafgX0CEWvgMMZLlaxHqGgm1EWb2z2Kyy4yxhcWdRaizoUAqIdTENUUQR6gxa8K0GlM+9mJbfM6QXYhtGBYSagZcvXv3LpDiMB4dEsSb+ITfdtttnjyYaTmr1TjZg9Az+cNqB9/Ks2fwXiPbFiZCnQ2MWn3pXLq+JkyY4HbccUdNEOXY50Wj24AR6tAM2wg1+tTyFyXUH330kdf9TJjefPPNjs+7YfGErw4j0GbizX5TnonOlsVF6TZv8ta5/nIqR6jZ2oAfC7ZHmvwh07QDxsmjRo3yvgHwD4DfF8LOO+88Fy5MWLroWRNE9a/PqIz1f3UyFqGuE6FGkOxLZX9qHJG2cBHq6sC6vhv5gw8+6M35Q7NnBj+Y2kWdkiUh1HxvEZNsOg9WiVlNtjKVI9TEw0yczsfMyC0t72bPHfgijL12fAMSb5xYTmAySL7Za02++exFuKdUhDobeLT61rny+mLCc999923i2ClOjhqwVS7fOFm2pPBqCDUkA18bYNNMYwmjPwgJNZhkGxEekSEdOI0kXhL5Cs/CcxKcVBKnHKG+6667vFk3Fpv2XBYamOw/+eSTm/zYNslnaplQYhxt8ePOwrPwHIeNRoeLUFdBqHGkAEkxgswKIfuoESadooXHnUWos6EQ2CuPuR7fs6WhQoAxlW7VqlXVhJpB0KuvvurN+jD5M3KchFCTDzqe0KSQTwTttddeTcwHcUSGw5qjjjrKm3LzTrDIPmo8fp966qmF91IuEeps4LHRnUVW3s/kkbUr8ozzPfZRs62BQV25cmjApvZQDiPF7tdCqNHhZmGE/maCNCTUvA/fFxBvLIwwAS+Wh2JhwrPwXAwXtYSVItSMk/A+z+pzkkkfmXwLn7VgMU1pRairINR4VuaTR3za4rjjjvOka+TIkX71I45Eh+Ei1NlQIAzK2euDh1X2x/PDWUyXLl2qJtTW+HEqA1nn01UMeJIQauLx/p133tl7MGaml73TrFyEq+h0aOzZhnyHZoF82qt169bepNDywVmEOht4DOtM1/F1ds8993grElY8cEyGtcZZZ51V2LNXTnYiIPGyLSe7lny/GkKNvNiSA6GGQJ9yyinekR7jiSihZhK/Z8+e3tJoxYoVItTavpAYA/Vul6UINRND3bp1W2ecEZcHEWrp2zhsZC1chLoEocZchY6LfUwhISacTpDPXrzyyiuOVcJwxTqMW+xahDo7CoS9y5hpsxeIARODbfazUa80dmZgMfO3vW6mANgjjTdum6Glzm0FgjislPEcViOIw746ri29xeHZ4WobcUnHqhsdkeUpTMc1lhKkDVfkKAt7/ClDGJ/32ue7LJz0mIWH6e1e9CwCkh08R+suj//TNvGQz+ff+DwL7SCK+VLlFp6F51L4iLvHRCY60/oG4qE/a0Uo0gAAIABJREFUCTNzbsLQ4ehcxgz2LMYUbNXhc4mEo4/R89Z/WDomT3E0mUQv27OFZ+HZsFCvM5hiLBGOTezZYBPsFrtnccIz8aJYD+9Hr4Vn4TmKibT8j+4Ox/1J8mV43qAYWVTYX5uQ72LyEKGWQkjS0LISxxRCVvKrfKr9lcKA8Cx8lMJHo+4xiY/JNw6fKsmD8Cw8V4KXtMcVnoXntGO0kvwZnkWoS6xuFyPSFiZCLYVQSYNLe1xTCGnPp/KndpcEA8KzcJIEJ+srDqvbrAZiDs7e1KQrf5Y/4Vl4Nizk4Sw8C895wLGVwfAsQi1CXdFMuQFI53wpRFMIqtd81WtLrU/hWThOE/bx2YK/DQh1JXunrQzCs/BsWMjDWXgWnvOAYyuD4VmEWoRahFqOUfz+1ND5mSkKndXxZRED1sFlMe/Kc/7aHPuo8X9Rbd0Kz/nDRLVYyEM64Vl4zgOOrQyGZxFqEeqqO3kDk87ZV46mEFSX2a9L1eFaTRBpkjBX/Zr0s/RynvS68Cw85xHPItQi1LkaeOSpka7PsqiDUwe3PvHW3O8SnoXn5sbY+ny+8Cw8r0+8Nfe7hGfhubkxtj6fb3jeAOda+lUuA9yqz5w506+EIEz9JIMsYwBne3iezXIZlHe1QcOA8CwsGBbycBaehec84NjKIDwLz4aFPJwNzxvMmjXL6Ve5DCDT48ePd+w71U8yyDoGINPogayXQ/lXWwQDwrNwkCddIDwLz8KzMJAnDOSpLKafZfJdo8m30yEJ5EAC//rXv7z32RwURUWQBJzwLBDkSQLCc55qU2URnoWBPEnA8CxCLUKdJ1yrLFVKwBRClcmVTBJIlQSE51RVhzJTowSE5xoFqOSpkoDwnKrqUGZqlIDhWYRahLpGKCl5HiRgCiEPZVEZJAHhWRjIkwSE5zzVpsoiPAsDeZKA4VmEWoQ6T7hWWaqUgCmEKpMrmSSQKgkIz6mqDmWmRgkIzzUKUMlTJQHhOVXVoczUKAHDswi1CHWNUFLyPEjAFEIeyqIySALCszCQJwkIz3mqTZVFeBYG8iQBw7MItQh1nnCtslQpAVMIVSZXMkkgVRIQnlNVHcpMjRIQnmsUoJKnSgLCc6qqQ5mpUQKGZxFqEeoaoaTkeZCAKYQ8lEVlkASEZ2EgTxIQnvNUmyqL8CwM5EkChmcRahHqPOFaZalSAqYQqkyuZJJAqiQgPKeqOpSZGiUgPNcoQCVPlQSE51RVhzJTowQMzyLUItQ1QqnlJP/vf//r+OXxMIWQx7KpTC1PAsJzy6vzPJdYeM5z7ba8sgnPLa/O81xiw3OLINQLFixw3377rftrDHn+/PPPHXFef/119/XXX8fGC9MTb9asWXnGiMoWkcC9997rbrrppkhoPv41hZCP0qgUWZcAE1e//vqr+/nnn5v8/vnPfyYqmvCcSEyKlBEJCM8ZqagMZBPdumbNGvfuu++6jz76yP373/9eJ9d/+9vfmuhd9PBvv/3WJB7pVq5c6d577z33/fffN7lX7h/huZyEdL9REmCM8dprrzkwmvQwPOeWUNPAFy9e7C644AJ3yCGHFCXKX331lRs3bpxr166d69Kli9trr73cSSed5L755puypFqEOinU8hPv4osvdqeeemp+ChSUxBRCEKRLSaBhEvjpp5/cAQcc4Lbeemu3/fbbF35PP/10ojwJz4nEpEgZkYDwnJGKSnk2IcF//OMf3Z577un1a9u2bd3hhx/uPv7440LOIRQnnnii22KLLQp6Fx08ceLEQpx33nnHj5e7devm+G288cZu7NixiUmI8FwQpS5SIgHaBpNDZ511ljvqqKMck0pJD8NzLgn1l19+6RXCNtts4xt7165d1yHUEO6rr77acW/hwoWONKtXr3affPKJn20LV6OLXYtQJ4VafuKJUOenLlWSdEsA/dy9e3f38ssve33M//yiqyRxpbAOLu6+wiWBLElAeM5SbaU3r+CIhSZbcWYcy4LToEGDCmT4H//4hw+bOnVqE90bEoxVq1Y5foTxe/XVV12bNm3cK6+8kqjwwnMiMSnSepLAZ5995g466CC37bbb+okiJplCvJfLhuE5t4T6yiuvdM8995ybNm2aJ80ojpAYz5s3z8++YbYdhie9FqEuB7Hs3qdD+fvf/77OfulKCPV//vMf3yBpaHEH5IBGW8zkKi5NknBmmHkueUh6mEJIGl/xJIHmlACDtc0228ybJVbzHuG5GqkpTVQC6Gj6g/Cgb4ib2MGcFt1brP8In1HptfBcqcQUP4kEwOvNN9/s9ttvP49b0oBf/n/mmWeSPMLHYQzTs2dPd9tttyVKIzwnEpMirScJsJB64YUX+hXqP//5z95qg3aQ9DA855JQh6T4gQceKEqox48f7w488EA/y/bdd995M29WQMK0pa5FqJNCrbHxHn300SadBblhdpYO46mnnvKZ++WXX7wJFJMvt956q9tuu+3cRhtt5M4880w/MLISRAn1W2+95bcLXHvttZ5805kcccQR7tNPP3WHHnqo23TTTd2WW27pV9nsGXRg4G3YsGHeTGrzzTd3e+yxh5/8oVOiYZ522mn+xzUHBPnkk0/2+bEwBnlHHnmku+uuu/y7eS8d44MPPuh22GEHn//jjz/e70O1d5c6m0IoFUf3JIH1JQFMrzA5DE0RK3m38FyJtBTXJPDFF1+4rbbayj388MPuiiuu8FsO+P+xxx5zP/74ozv//PN9GJM9N9xwQxOyzSrd3nvv7dDp6H50NmMIjksuucSb2LKVwQ76At4xdOjQspOfwrNJTed6SoAxB0QiXKFmPNSpUye/jzTpu0jTo0cPrVAnFZjipVYCItQxzsbozOII9eDBg72t/F/+8hd32GGHeXINgWLpvxSRtnsi1KltD00yVgmhZt8EA6fly5d7sr3jjju6O++8s7BSHRJq9t8ffPDBfo/+2rVr/Tsh1KT505/+5N5880339ttv+44KUxKLA77Yq/+HP/zBm159+OGHDtMq9oo+9NBD/jmc99lnnwIZZqKHyR/2lDIZwIGTvX333dctW7bM/w+h5j333HOPzz+mV+yTuvzyyxOtgGvA5sWoPymRAO3nd7/7nTvmmGP89p3rrrvOT3omzZ7wnFRSihdKwAg1YwJW6OgLbrzxRk+yTzjhBHf//fe7Dz74wOtZSPOLL75YSM5AbPbs2d7RE/hFX0PAIS2QbUj40qVLC/GZWEXPz5w5sxAWdyE8x0lG4ZVKAOuJ999/373xxht+fNCrVy+PaXsOY9wOHTr4VTowz6QPFkPRA19DODZ79tlnXZ8+fdyll17qJ/+j8Yr9LzwXk4rC0iABEeoqCHXv3r0dK3jDhw93eG+eNGmS69y5szv66KMdXr+NOMedRajTAP3yeaiEUDNTy+CHA4U/cuRIP5hnhZjDCDWDLlaHzz777EJ87kOod911V78f3ydwzu/JZwWajodjwoQJfnUckmwH78Q5Hvs2uMb8hJUOBnMc8+fPdyNGjPAO84xAM0Dr379/wfQQQj1gwIAmK+rXX3+9H7CFqyL2zuhZHVxUIvq/kRJghZrBHL++ffv6FRMmovBKm+QQnpNISXGiEjBCjYMlO+jrmfBEB9vBajU6GqsgO1hxtsNMaVm1g8CwgsfY4pZbbrEonrDvsssu3r9LITDmQniOEYyCK5YAFnTgknEJiwJMEoXjEbDN2AfdyxgZP0P4I3rppZeavIvFKnQyz8HKgnFK0m1mwnMTUeqfFElAhLoKQs1+D5ze4PbfSDP7qTfZZBM3Z86cQpjdi55FqFPUAkpkpRJC/cgjjxSeRMdw2WWXedNt20MHocb7JeZRWDjwWZ/wgFBDisOB1Q8//OBnezEP55mku+qqq8Jk/nrRokW+YyI+nc3AgQPdlClT/LPIx/Tp070XTUzSOfARwKqdHRDqcLBGOKvVmK+D3XKHOrhyEtL9RkmA9sQgj5UU2gUEpdwhPJeTkO4Xk4AR6nDVGP2JHr377rsLSdD96FwmLe1gX/UTTzzhiTckgy0L4d5ULI9C77GQFkzBbRLXnlPsLDwXk4rCqpEA4xD7JCErz8cee6xfYY7zC8CEPGMe8B7uK2VcxHPQzYyZd9ttN++zKBz/xOVPeI6TjMIbLQER6ioINat7o0aN8vtZjSzzKQD2ztIpWljcWYS60bBP9v5KCDVx7Ygj1MzsYlqNWTerDuFhe6jDsJBQ0wFhGmWkOIwH4cbMivgckydP9uTBTMsxDcfjMYQeUysGZjjWs4POjveHhwh1KA1dZ10CWBHttNNOhTZSqjwasJWSju7FScAI9ZNPPlmIYoQafWpHlFDzhRCslpgw5fNCfN4Ni6eQUJuJN18V4ZnEl8WFSVTnRkkAr9+QYbYyxB1YxLHFjK/hxB1M8rPNITouKhZf+rmYVBSWBgmIUFdBqNnvwcwcCsJI85IlS9z//M//uCSev0Wo0wD98nmYMWOG69ixY2HvMSmYlcXULuqULAmh5jvUWDWwV5qV5nB1oRyh5t2YieN0zMzIrQS8m87IZonZa8e3H8k/1hR0UgzaML0i33yiAmJthwi1SULnvEoACwzMD7WFIa813PhyVUOoWZHD1wbYtBU8wpg4DQk1JIJVaYgH1lCY0yZZzUMqIiCNx0Zec4DjR7YvsKAUd+AbgPHJmjVr4qJ4vEs/x4pHNzIiARHqKgg1+0H45tj//u//ekLNHhKcL7BKyGqgkey4swh1NloHkySY69n+HwgwptKtWrWqmlAzCDITbUz+jBwnIdSGu9CkEILP/v3QfBDcEcZef4gE74RsY/KK91j2/pspOjUhQp0NPCqXySRAm7B2RQp8B+B5lraA9Ui5QwSknIR0v5gEaiHUkBLMXzkYT0BAQkJN+Ny5cz3xZj+1OaEslo9omPAclYj+r0YCWETgo8UOxhDnnnuu31MdOjwNJy1XrFjht0dicWG6l3FVqJ95JljH873FsXcUOwvPxaSisDRIQIS6CkLNTBsEZuedd/ZmuJjxQmDw2hlHosNwEeo0QL98HlD65513nv+MSb9+/bwjLxzJdOvWrWpCbW/FCyxkHfNsOogkhJr88P527dp5D8ZDhgzxkzisXFiHxvMh/mPGjPGTPnRoduBApHXr1t6k0MI4i1CH0tB11iXAJ+ywIsGEFuc4WGuMHj26ySRSqTJqwFZKOroXJ4FqCDXPYhKe8QOkAismHOmxpSxKqDEVx88Glka8K+khPCeVlOKVkgDe59k2w0Q9OGUSiG1sCxYsKCTDBBwfAGwvQ/+2b9/e62DGvHaw99/0M+Oqtm3b+q/mhJP8FrfYWXguJhWFpUECItQlCDV7UCEkzBiHhJhrSDUdIeYsKJQk3r3tGSLUaYB+sjyg5JlBpY4x8UeZs5/NnBux+hv+b0+F4IIbM8vjf9vjTBxmYklncRgscR0exOETV+FsrqVj1Y0OzvIUpuMa80HShjO+lAXsUYbw4L28Pzz4VBdm4WH68H54rQ4ulIauGy0B2ibeaPn8GwM82kEU86XyKDyXko7uxUmAiUx0pvUNxEN/EmafPiSMPgGdG+4XZVWPTyXyIxx9zBjD+g9Lx+QpjiaT6GXLp/BsktC5FgmAb3QpX1HABwvjohDXPBusMRbGCo/xCRM/UaLM2IRPgPIM9DPtIxzjlMuj8FxOQrrfKAnYOD7U2+XyYnjewAiizn9dh3CXkokIdTmI6X6WJGAKIUt5Vl4lgTgJCM9xklF4IyXApxC7dOlS+CRi0rwIz0klpXhZkIDwnIVaUh6TSsDwLEJdYnVbhDopnBQv6xIwhZD1cij/kgASEJ6FgzRJgBU9JuGHDRvmv9lbyWqe8JymmlRe6iEB6ed6SFHPSIsEDM8i1CLUacGk8tFACZhCaGAW9GpJoG4SEJ7rJko9qA4SmDp1qve3AaGuZO+0vVp4NknonAcJCM95qEWVwSRgeBahFqE2TOjcgiVgCqEFi0BFz5EEhOccVWYOisJ+vOg+1EqKJTxXIi3FTbsEhOe015DyV4kEDM8i1CLUleBGcXMqAVMIOS2eitXCJCA8t7AKz3lxheecV3ALK57w3MIqPOfFNTyLUItQ5xzqKl4SCZhCSBJXcSSBtEtAeE57DSl/lUhAeK5EWoqbdgkIz2mvIeWvEgkYnjfAUYZ+lctg1apVbubMmd75DcLUTzLIMgZ+++0373k2y2VQ3tUGDQPCs7BgWMjDWXgWnvOAYyuD8Cw8GxbycDY8bzBr1iynX+UygEyPHz/ef+Oa71zrJxlkGQN8zoXvsWe5DMq72qBhQHgWFgwLeTgLz8JzHnBsZRCehWfDQh7OhmeZfNdo8r127Vqnn2SQdQz89NNPbtmyZcKy2nMuMCA8SydnXSeH+ReehecQD1m/Fp6F56xjOMy/4VmEWoQ6FwPoENy6rlxZm0KQ7CqXnWSWPpkJz+mrE7WT6utEeK5edsJd+mQnPKevTtROqq8Tw7MItQi1CLVWJZ0pBCnV6pWqZJce2QnP6akLtYva60J4rl2GwmF6ZCg8p6cu1C5qrwvDswi1CLUItQi1CLUwkCs9YB2cBgu1DxYkw8bLUHhufB2oHdSvDoTn+slSuGy8LA3PItQi1LkaSEu5VKdcTCFIftXJT3JLl9yE53TVh9pHbfUhPNcmP+EvXfITntNVH2oftdWH4VmEWoRahFqrk1qhFgZypQesg9NAobaBguSXDvkJz+moB7WH+tSD8FwfOQqP6ZCj4VmEWoQ6VwNpKZjqFIwpBMmvOvlJbumSm/CcrvpQ+6itPoTn2uQn/KVLfsJzuupD7aO2+jA8i1CLUItQa3VSK9TCQK70gHVwGijUNlCQ/NIhP+E5HfWg9lCfehCe6yNH4TEdcjQ8i1CLUOdqIN2cCubXX391/JrzHY16timERr1f701Hx5CXehCehae8YJlyCM/Cs/AsDOQJA3kqi+nnFkGoFyxY4L799lv314A8f/HFF+7zzz8v+vvuu++axA3T2fXXX3/tZs2alUtylSeg17Msd955p7v22mtzWeemEOopLz1LA4BqMcDEFTr7m2++afL78ccfE7U/4VnYqxZ7aUwnPAvP6xuX6N633nrLvf/++7ELCV999ZV788033YoVK2LjFMu38Cw8F8NFGsLA5uzZs/0kZtL8GJ5zS6i///57t3jxYnfBBRe4Qw45xEGAjQxzPu6449y2227b5Lflllu6TTfd1L322mtN4obp7FqEuuUphPPPP98NHjw40YA+aUNMSzxTCGnJj/LR8tpXWOfo1x49eritttrKbbfddoXfjBkzErU/4bll4yfEUh6uhWfheX3h+Oeff3YsHrRv397tt99+rl27dq5v377u448/LujeH374wU2ePNntuuuurnv37j7O8OHD/Tg7ST6FZ+E5CU7WZxxwz+TQiBEj3BFHHOHWrFlTwHu5fBiec0mov/zyS3fiiSe6bbbZxnXr1s117dp1HUL92WefuZUrVzb5jR071gty1apVItTaU7pOYxKhVidQTrHqfn0wsnr1aq+7n332Wce1/RjIJZGxdXBJ4ipOfepMcmw+OQrPzSdb4bapbF944QW32267uRdffNGxMMU4uVevXm7UqFGFVWhW8JjsfPnll/1YGf3cs2dPxxj6l19+KaujheemMhcGGyuP5cuXuwMOOMBzxj333NMddthhItS2egyhvvLKK91zzz3npk2bVpRQW1w7f/LJJ+7QQw91zzzzTFkyTRqtUDe2ATSnAmLQTkcS3S9dCaGmU2GGi44jLq/giDjMjMXFqSYcs1iem6Rjs+erg8svnq2Os3T+8MMP3WabbeZnjKvJt/AsPFeDm2gadHR0EsfGDNG4/E+fQd9RrP8oFj9pmPAsPCfFSi3xGIuwQnfOOec0Gf/Mnz/f7b333t60m+ffcccdrnfv3h7n9r7bb7/dHXPMMYmIiPAsPBtu0nBmW8O5557rxxvXXXedCLV1ctHzAw88UJZQQz6YWevXr59XENFnFPtfhDobCsHqnwGONVz2BmG18Nhjj/kw9mp27NjRTZkyxd14441+G8BGG23kMGEK00UJ9bx581zbtm3dVVdd5Tufm266yTdEGudBBx3kNtlkE8c2AiZ27N0MuLCOGDJkiNt44409adh9993dzJkzPbGmoxk6dKj/cU06CPKAAQN8fiyMQR6zxnRiPJPrG264wd17772uTZs2jvz36dPH4Q/A3l3qrA4uG3guVYd5usfevc0339y98847ifAbLbvwLDxHMZHkf8xaWXm777773MUXX+yv+Z9+hP2io0eP9mFM9jBmCPf0s6LXqVMnr9PZOoaVHL5aeC9bz9jCwLjB8oHe5h2DBg0qO/kpPAvPhpvmPDPeYXUu6ivm008/dbvsskthLPPEE094rDOWIT9g+aKLLnJnn312yUUEy7vwLDwbFtJ2FqEOnI1Fya8RKjqy6D37/7333vPEiP15FlbuLEKdDYVg9R8S4zhCffjhh/uB05IlSzzZ3mGHHdytt95amKkNCTVmUAceeKCf1TLSCqEmDYMu9uG//vrrbuDAgW7//fcvzNp+8MEHviM644wzHM7yli5d6vcibb311m7q1Km+c+LMbDBEH2WDORXPCAdkdGSdO3d2ixYt8nEg1MRh5pj8P//8836SYMyYMYlWwNXBZQPPaet8mis/tJ8NN9zQHXnkke6EE05wV199tWNQl/R9wrPwnBQrYTwj1Phdefzxx70uHTdunCfR7CNl0hX9ip6FND/11FMFTDIQw1Hp22+/7ZhsRV/TF7DqB9km/sKFCwvxcYqKnn/00UcLYWFewmvhWXgO8dBc1+DslFNO8b/Qcg5/RPiyePDBBz1WGU9dcskl7ve//72bMGGCO/300/2ClBHscvkTnoXnchhp1H0R6hoJNaTpqKOOckn2ThvRFqHOhkKohFBj8mGdCGc6CQbztgphhJpBFwT2zDPPLMSn8UOoceQROu9gtbpDhw4F09Xx48f71XGwZgqDd7FFgZlhrpngYaUDsk2cOXPmuNNOO83179+/QKDZ53T88cf7CSDikB+zsLDnXnPNNZ50h6sidi96VgeXDTxH6y2v/7NCDYHhd+yxx/rJIfY2LVu2rNBuSpVdeBaeS+Ej7p4R6iuuuKKAM7aDMeGJDrZ0rFajo7EKsrBwiw0rdtdff7132MSYgclRHN2g/y0+hB2HTzzfwuLOwrPwHIeNeocztoA8g1/0MJPzJ510kreoM0LNmAIsd+nSxe+dZnIfIp4Ey+RXeBae643bej1PhLoGQo1JFkTm/vvvT7w6TQcpQp0NhVAJoQYD1igZHLG6e/DBBzch1BBsVp3pYGwF2dKYyTeDKQtjPz8OPlhx45mkvfTSSwv3Ld7cuXMdpt/Eh1RDjidNmlQwpcIXAIM83kEansGqnaWHUIeDNcJZRcGTvZkdWtxiZ3Vw2cBzsbrLexjtiXaBjwsmlUJrk7iyC8/Ccxw2SoUboZ4+fXpBt6I/0aMTJ04shGGVxLiBSUt7HttwSDds2DCvy7fYYgs/eWp4xYwcKyj7ny1FF154YZNJWXtW9Cw8C89RTDTX/4xTsJrYcccdvVUFpBmLiz322KNg8s1Yg21tH330kSfHtAdWrNHRmsAXVpsLm+vjuSLUNRDqJ5980q8g4gTHVp+TnEWos6E0KiHUxLUGG0eo+YwEptWY8mE6bvE5Q3YhtmFYSKgZcOHIw0hxGA/CDfEmPuG33XabJw9mWs5qNXuxIfSYvrLagadNewbvjT5XhDobGLU61Ll0fWFayCBPE0Sl5SQcVS8fI9ShGbYRavSpyTZKqCEW6GAmTG+++WbH9jEsnvDVYQTaTLzxjMwziS+Li+rryupC5+aRIZM4YJczlnb77LOPY8sa/0OcbbXa5M9WB7Y1sNXNwuLOmiBqnjqLk7fCk8tbhLpKQo0zMpwoYDrLamMSIm1xRKiTA7SRjRmlz8xqOGvK4AdTu6hTsiSEmu9QY5LNXmlWiVlNtvKVI9TEw0wcp2NmRm5peTd77sAXYey1w+zqoYce8t9RB5/kG9ND8r399ts32VMqQp0NPFp961x5feEwcN99923SluPkqAFb5fKNk2VLCq+GUGNBwbYxsMmYAnkRRn8QEmowyTYiVvKwhsJpZGjNVErOwrPwXAofzXkPjN5yyy1+gh8csjDAWOWRRx4pjH14P+MiHLGyml0uP8Kz8FwOI426L0JdJaFmNZAOj31QzMQZWU5yFqHOhkLA8RfmenzPlgYKAcZUulWrVlUTajqYV1991Zv1YfJn5DgJoSYffB89NCnEOmKvvfZqYj6IIzIc1rC3H/Mq3gkuMXnF4/epp55aeC/lEqHOBh4b1Ulk7b1MHlm7Iu8438MTP20B65Fy5dGATe2hHEaK3a+FUKPDzcII/Q3pCAk172N/KsQbCyNMwIvloViY8Cw8F8NFc4RBmMGbPZtPybIAgcM9C+OzWph8Y3VBGOMT/MCweJHEeaTwLDwbltJ2FqGuklBjxrLzzjt7RZGERIdxRKizoRAYlKP8MUXCEoEfzjbYF1TtCrUpAJzKQNb5dBUdRBJCTTzeD+7wYHzyySd7Ys7KRbiKDvHHCRrkOzQLxMts69atvUmh5YOzCHU28BjWma7j6+yee+7xgzhMaHFMhrXGWWedtc43geNkqAFbvGzjZKbwtd6hJJ/JqtTkmy05EGoINM6ZcKQ3cuTIdQg1lkY9e/b0lkYrVqwoEJRysheehedyGKnXfVaa2dYGjhmj4NuFLWhg0N6xfPlyP9m/6667en8ybIVjAQDSDbm2eHFn4Vl4jsNGo8NFqEsQarxx0nEVW4FmHxSKoVJzb4i1CHV2FAIzrnQSL730kh8wocyZWaUeabx0AHzuwfa6WYNmjzTeuK2DoM5tBYI4rJTxHFYjiAOeuLb0Fodnh6ttxCUdq27snWZVJOysLD1ptrUCAAAgAElEQVTmg6QNV+QoC540o/F5L++3tJxJz2xxmD68H16rg8sOnsN6y+s1bZMJTzzMzp8/37eDKOZLlV14Fp5L4SPuHhOZ6EzrG4iH/iTMzLkJQ4ejcxk72LMYa7BVhz2khKOP0fPWf1g6Jk/5Zm8SvWzPFp6FZ8NCc59pA+yV5usiePlmzBNi2N7PWITxM5/UYv901KeMxSt2Fp6F52K4SEMYujsc9yfJk+F5AzoO/SqXgQi1FEKShpaVOKYQspJf5VPtrxQGhGfhoxQ+GnWPlWxMvvmWdSV5EJ6F50rwkva4wrPwnHaMVpI/w7MIdZUTCiLUUgiVNLi0xzWFkPZ8Kn9qd0kwIDwLJ0lwsr7isLqNZRFmtIMGDWpisZQkD8Kz8JwEJ1mJIzwLz1nBapJ8Gp5FqEWoK5opTwIuxcmesjSFoLrLXt2pztatM+F5XZkIJ42TyeTJk72/DQh1JXunrc6E58bVndWBzvWrA+G5frIULhsvS8OzCLUItQj12sY3yEYrRVMIjc6H3i8s1gMDwrNwVA8c1esZ7EFlz2m1zxOehedqsZPGdMKz8JxGXFabJ8OzCLUIddWdfLXgU7r0KVNTCKqb9NWN6qTyOhGeK5eZcJZemQnP6a0btZvK60Z4rlxmwll6ZWZ4FqEWoRah1gq19xoefp5Lyju9ylt1U75urIOTrMrLSjJKv4yE5/TXkdpR8joSnpPLSrhKv6wMzxvgXEu/ymWAW/WZM2d6IoIw9ZMMsowBPP3jeTbLZVDe1QYNA8KzsGBYyMNZeBae84BjK4PwLDwbFvJwNjxvwIfY9atcBpDp8ePHO1b19JMMso4ByDR6IOvlUP7VFsGA8Cwc5EkXCM/Cs/AsDOQJA3kqi+lnmXzXaPLtdEgCOZDAv/71L+99NgdFUREkASc8CwR5koDwnKfaVFmEZ2EgTxIwPItQi1DnCdcqS5USMIVQZXIlkwRSJQHhOVXVoczUKAHhuUYBKnmqJCA8p6o6lJkaJWB4FqEWoa4RSkqeBwmYQshDWVQGSUB4FgbyJAHhOU+1qbIIz8JAniRgeBahFqHOE65VliolYAqhyuRKJgmkSgLCc6qqQ5mpUQLCc40CVPJUSUB4TlV1KDM1SsDwLEItQl0jlJQ8DxIwhZCHsqgMkoDwLAzkSQLCc55qU2URnoWBPEnA8CxCLUKdJ1yrLFVKwBRClcmVTBJIlQSE51RVhzJTowSE5xoFqOSpkoDwnKrqUGZqlIDhWYRahLpGKCl5HiRgCiEPZVEZJAHhWRjIkwSE5zzVpsoiPAsDeZKA4VmEWoQ6T7hWWaqUgCmEKpMrmSSQKgkIz6mqDmWmRgkIzzUKUMlTJQHhOVXVoczUKAHDswi1CHWNUGo5yf/73/86fnk8TCHksWwqU8uTgPDc8uo8zyUWnvNcuy2vbMJzy6vzPJfY8NwiCPWCBQvct99+6/5ahDx/+umnbv78+e7dd99133//fdE4xdJ9/fXXbtasWXnGiMoWkcC9997rbrrppkhoPv41hZCP0qgUWZcAE1e//vqr+/nnn5v8/vnPfyYqmvCcSEyKlBEJCM8ZqaicZPM///mPW716tR8Xf/nll7Gl+vHHH30c4lay2CA8x4pUNxosAcYYr732mgOjSQ/Dc24JNeR48eLF7oILLnCHHHKIgwCHxPibb75xEydOdO3bt3f77befa9u2rRs2bJj7/PPPm8QL04TXItRJoZafeBdffLE79dRT81OgoCSmEIIgXUoCDZPATz/95A444AC39dZbu+23377we/rppxPlSXhOJCZFyogEhOeMVFQOsglJPuqoo9w+++zj9t9/f697zzjjDPfDDz8USvePf/zDTZ061e2+++4+zi677OLOPPNMP/lZiFTiQnguIRzdaogE/v3vf7v33nvPnXXWWR7/f/vb3xLnw/CcS0LNjNqJJ57ottlmG9etWzfXtWvXdQj1s88+67bcckv3/PPPu6+++sp9/PHHnnhfeeWVbs2aNWVJtQh1YqzlJqIIdW6qUgVJuQSYEO3evbt7+eWXveUQ//P77bffEuXcOrhEkRVJEki5BITnlFdQjrL3yy+/uI8++sitXbvW/f3vf3dvvvmm22KLLTyBtmKygrfVVls5rD+Jg24+/PDD3Q033OBY3S53CM/lJKT761MCn332mTvooIPctttu6/baay+PZRHq/2fSDaGGGD/33HNu2rRpRQn1rbfe6o4++mhHXFt5njBhgp+Z+OKLLwphdi96FqFen3Bfv+9i9pVOImrCVAmhplOhQdJxxB2QA+IwM1bPA5MVnpukY7P3qoMzSeicBgmsWrXKbbbZZt6csJr8CM/VSE1pohJAR9MfhAd9Q9zEDn0GurdY/xE+o9Jr4blSiSl+vSQA/k866SR30UUXFR55zz33uD59+nisW+Bdd93ljjvuOE/ELSzuLDzHSUbhjZDAJ5984i688EK/Qv3nP/9ZhDpKeO3/Bx54oCihfvTRR92ee+7pZ+KIywzbn/70J2+2Erff2p7JWYS6EbCv/J3UMyb9DHLsYF8mYU899ZQPYkYWLDD5wkTLdttt5zbaaCOPBQZGdkQJ9VtvveXatWvnrr32Wk++b7vtNnfEEUc49uUfeuihbtNNN/VWEKyy2cGA67vvvvPbCzbeeGO3+eabuz322MNP/kCs6WhOO+00/+OaA4J88skn+/xYGJ3ckUce6ejEeCbvvfnmm92DDz7odthhB5//448/3u9DtXeXOquDKyUd3VvfEsD0ilURLIeqOYTnaqSmNEyms/L28MMPuyuuuMJvOeD/xx57zGEKe/755/swJntYjQvJ9quvvur23ntvr9PR/ehsxgocl1xyid/CwFYGO9DbvGPo0KFlJz+FZ5OazutbAoyXDjvssCYr1Fh4gnXGMhxM3l966aXu3HPPLbmIYHkXnk0SOqdNAiLURZyNGfmNI9SsTDMjwSzbjTfe6AkOBOTDDz8suzotQp22JhCfn0oINfuGGDgtX77ck+0dd9zR3XnnnYWV6pBQs03g4IMP9nv0MY3igFCThokZzKTefvttN2jQIG9KYnEwLcGk5A9/+IPf4w/e2IvEXtGHHnrIP4cz+5dwysTBZM+BBx7oB2R0bhxM+uy7775u2bJl/n8INSYrzByT/1deecVPElx++eWJVsDVwXkx6k9KJED7+d3vfueOOeYYv33nuuuuc/i9SHoIz0klpXihBIxQQyCeeeYZr0sZH0CqTzjhBHf//fe7Dz74wOtZSPOLL75YSM5AbPbs2X6SHvziAwACzkQpZBsSvnTp0kJ8yAh6fubMmYWwuAvhOU4yCm8OCbDtEUe94HbIkCFuwIABfhxi72KBgsmgfv36uUmTJrmRI0f6OIxLkhzCcxIpKU4jJCBCXQWhxvkYK4uQEpyWMdvGjDKdpZHxUmetUDcC6pW/sxJCzQSLmV+j8Okk2ItvnoWNUDPoYnX47LPPLsQnZxDqXXfd1W8jsJxiSsIKNJ0TB9sKWB2HJNvBO8eNG+fNTLgmDXiEGHPghX7EiBHe7MoINB1d//79C6aHEGo6vXBF/frrr/cDtnBVxN4ZPauDi0pE/zdSAqxQQ2D49e3b13Xq1MlPRLG3L8khPCeRkuJEJWCEeuzYsYVb9PVMeKKD7WC1Gh2NVZAdrDjbwTX3evTo4XUyVlBsMbvlllssiifsOHPi+eUO4bmchHS/nhLgCzZM/O+2225+nMFEUTi2YGKfsQw+itg7zTgap75JsEw+hed61paeVU8JiFBXQagh06z6QXSYVaMjZY8Iq45JPH2LUNcTws33rEoI9SOPPFLICCZMl112mTfdNrM+CDUEm1XnwYMHF1aQLRGEms4lHFjhGbNDhw4O83CeSbqrrrrKkhTOixYt8sSb+HQ2AwcOdFOmTPHPIh/Tp093DPIwSefARwCrdnZAqMPBGuGsVmO+zsRQuUMdXDkJ6X6jJEB7gsD06tXLt4twYBeXJ+E5TjIKLyUBI9ThqjH6Ez169913F5JiPYTOZdLSDvZVP/HEE554M4nKloVwuxGWR1hB2fYjJmwxBbdJXHtOsbPwXEwqCmsuCbCIAMaZjF+4cKFfKAixDplmIYrPZYFNLPAYk2DZYVZ0pfImPJeSju41UgIi1BUSakytIM733Xdfk9XoN954w+97xYNhqdVp7olQNxLyyd9dCaEmrh1xhJoVB0yrMetm1SE8bA91GBYSaog5WwyMFIfxINwQb/s0xeTJkz15MNNyTMPZiw2hx/SVgdm8efMKj2Bwx/vDQ4Q6lIausy4BTAt32mmnQhspVR4N2EpJR/fiJGCE+sknnyxEMUKNPrUjSqghFlgtMWHK5zj5vBsWTyGhNhNvCArPJL4sLkyiOqdZAiw28AktcItuhTjPmDGjSZYZo7CtwazomtyM/CP9HBGI/k2NBESoKyTUkGE6OvZXoyDst2TJErfJJpt44mJhcWcR6tTgv2RGUPodO3ZsMmuKB2FM7aJOyZIQar5DvXLlSr9XmpXmcHWhHKEmo5iJ43TMzMgt87ybPXe2Gs5eO76/S/579uzpyTuDNj4FR77btGnTZE+pCLVJUue8SgALDD6BqC0Mea3hxperGkKNBQW+NsCmrT4TxsRpSKghEaxKs5IHQcFnS2jNVKr0IiClpKN7zS2BOXPmeELN3mrGKIxVsMYID7aq4VeAxYFyh/BcTkK63ygJiFAHpDhKgOOckuEUCpPvFStWeELNnla8FLJKmMQxmQh1o+Be2XuZJMFc76WXXvIJIcCYSrdq1apqQs0gyEy0MYMycpyEUJMPvnUXmhRC8Dt37tzEfBAcE9a7d29vys07MSnEFJy9/sOHDy+QbwomQl0ZLhQ73RKgTVi7IqeserCPGlKN9Ui5QwO2chLS/WISqIVQs6earQkcjCcgHSGhJnzu3LmeeLOf2pxQFstHNEx4jkpE/zeXBHCoZ5ZyvAMHvmy3wYO3LSCcd955fjscBJuD8Ql+YFi8SOI8UnhurtrTc2uVgAh1FYSaARokpH379t6ZE84VcMLArBudYZSYR/8Xoa4VtusnPYNylD8zp3ikxJEXzmKo72pXqC3neIGFrGOeTQeRhFCTH97P57bwYIwHTSZxWLkI9x7RcY0ZM8aTbyZ97MDLbOvWrb1JoYVxFqEOpaHrrEuAT9hhRYIJLY7JsNYYPXp0k0mkUmXUgK2UdHQvTgLVEGqexSQ8E6AQaKyYcKQ3atSodQg1puL42cDSiHclPYTnpJJSvFolwEQPW2vYXob+xdEq1hQQazvwM8T4Zffdd3ennHKKd76Hx3pWspNYXQjPJkmd0yYBEeoShJo9qBCSYiQZUgyxXrBggWP/dBJnZEasRajT1gzi84OJEuZI1DOdAsqc/Wzm3IgOIPzfngTBBTfWQfB/OHPLShnpLA6DJa7Dgzg4vQtX2ywd2GM22PIUpuMa80HShitylAXsUYbw4L28PzxwFMJscZg+vB9eq4MLpaHrRkuAtsn33Pn82+LFi307iGK+VB6F51LS0b04CTCRic60voF46E/C7NOHhNEnoHNDPxpsReBTifwIRx+zgmf9h6Vj8hRHk0n0suVTeDZJ6NzcEmCMwfYyxib8mPghLHoQxpj5/fff9xNKYVuIxo3+LzxHJaL/0yIBG8eHertc3gzPGxhB1Pn/30udRBYi1OUgpvtZkoAphCzlWXmVBOIkIDzHSUbhjZQAn0Ls0qVL4ZOISfMiPCeVlOJlQQLCcxZqSXlMKgHDswh1idXtUsRahDop1BQvCxIwhZCFvCqPkkA5CQjP5SSk++tTAlgbMWbgW71Dhw5tYrGUJB/CcxIpKU5WJCA8Z6WmlM8kEjA8i1CLUCfBi+LkXAKmEHJeTBWvhUhAeG4hFZ2RYk6dOtX724BQV7J32oonPJskdM6DBITnPNSiymASMDyLUItQGyZ0bsESMIXQgkWgoudIAsJzjiozB0VhP16xfahJiyY8J5WU4mVBAsJzFmpJeUwqAcOzCLUIdVLMKF6OJWAKIcdFVNFakASE5xZU2S2gqMJzC6jkFlRE4bkFVXYLKKrhWYRahLoFwF1FLCcBUwjl4um+JJAFCQjPWagl5TGpBITnpJJSvCxIQHjOQi0pj0klYHjeAEcZ+lUug1WrVrmZM2f6zxchTP0kgyxj4LfffvOeZ7NcBuVdbdAwIDwLC4aFPJyFZ+E5Dzi2MgjPwrNhIQ9nw/MGs2bNcvpVLgPI9Pjx4/03rvnOtX6SQZYxwOdcZs+eLRyrLecCA8Kz9HGW9XE078Kz8BzFRJb/F56F5yzjN5p3w7NMvms0+V67dq3TTzLIOgZ++uknt2zZMmFZ7TkXGBCepZOzrpPD/AvPwnOIh6xfC8/Cc9YxHObf8CxCLUKdiwF0CG5dV66sTSFIdpXLTjJLn8yE5/TVidpJ9XUiPFcvO+EufbITntNXJ2on1deJ4VmEWoRahFqrks4UgpRq9UpVskuP7ITn9NSF2kXtdSE81y5D4TA9MhSe01MXahe114XhWYRahFqEWoRahFoYyJUesA5Og4XaBwuSYeNlKDw3vg7UDupXB8Jz/WQpXDZeloZnEWoR6lwNpKVcqlMuphAkv+rkJ7mlS27Cc7rqQ+2jtvoQnmuTn/CXLvkJz+mqD7WP2urD8CxCLUItQq3VSa1QCwO50gPWwWmgUNtAQfJLh/yE53TUg9pDfepBeK6PHIXHdMjR8CxCLUKdq4G0FEx1CsYUguRXnfwkt3TJTXhOV32ofdRWH8JzbfIT/tIlP+E5XfWh9lFbfRieRahFqEWotTqpFWphIFd6wDo4DRRqGyhIfumQn/CcjnpQe6hPPQjP9ZGj8JgOORqeRahFqHM1kG5OBfPrr786fs35jkY92xRCo96v96ajY8hLPQjPwlNesEw5hGfhWXgWBvKEgTyVxfRziyDUCxYscN9++637axHy/PHHH7v58+e7d999133//fdF4xRL9/XXX7tZs2blklzlCej1LMudd97prr322lzWuSmEespLz9IAoFoMMHGFzv7mm2+a/H788cdE7U94FvaqxV4a0wnPwnM9cblmzRq3ePFit3TpUvfDDz+U1KlvvfWWn9Ap9v7Vq1e7N998061YsaKixQbhWXguhqc0hIHN2bNnx2K+WB4Nz7kl1JBjFMYFF1zgDjnkEAcBDonxF1984a655hrXrl0717VrV9emTRt35plnOsLDeHHXItQtTyGcf/75bvDgwSU7n2KNLQthphCykFflMf9tD/3ao0cPt9VWW7ntttuu8JsxY0ai9ic85x8jLUkPCM/Ccz3w/vPPP7u7777b7bbbbn7cu/vuu7tOnTq5559/vgkh/uWXX/wi08UXX+x69uzpx8Th+yHk1113ndtll13cfvvt58fPo0aNct999530s7aPJcJAiKc0XNM2mBwaMWKEO+KIIxwYT5ov08+5JNRffvmlO/HEE90222zjunXr5hVHlFDffPPNbqeddnLz5s1zxH///fd9vKuuusoLMo5IW7gIdcvr4ESoW16dJ1WoildfbLDyge5+9tlnHdf2K7eaYvVgHZz9r3N960fyXL/yFJ7Xr7zzim8sfv74xz/6FWUWnb766it32WWXub322ssvJlFuwgcOHOjHz5Blfox7Q5ncdtttbuedd3ZvvPGGj4+lJ/p63LhxDjIexi12LTwLz8Vw0aiw5cuXuwMOOMBjfs8993SHHXaYCLWRXQjylVde6Z577jk3bdq0dQg1CuOoo45yY8eObWLmjUkvM3YoB3tW3FmEOr8KgUE7GInul66EUNOpMMNFxxGnJMAWcZgZi4tTTThmsTw3Scdmz1cHl188Wx1n6fzhhx+6zTbbzM8YV5Nv4Vl4rgY30TTo6Ogkjo0JonH5nz6DvqNY/1EsftIw4Vl4ToqVUvEYa4DfMA6LSXvssYcnx4SDXaw358yZ4x555JF1CDUYP+aYY/wKdTjGmDJliuvQoYOf/AyfX+xaeBaei+GiUWG0gXPPPdePN7C8EKEusj8axfHAAw+sQ6ghw8ym3X///U2IM3uiGcQx62adZtxZhDobCsHqn07CGiuztJj5P/bYYz6MvZodO3Z0dAg33nij23bbbd1GG23khg8f7jsXSxcl1Fg3tG3b1mHVQCdz0003+YZI4zzooIPcJpts4rbccks/sWPPIN5nn33mhgwZ4jbeeGOPNyZxZs6c6Yk1Hc3QoUP9j2vSQZAHDBjg82NhDPJ69erlbr/9dv9urm+44QZ37733evMr8t+nTx+ZYMn8qoB7w2AWzuzb23zzzd0777xTVf41YMuGfk4bFplMZ5vBfffd5zB35Zof/QireaNHj/b/M05gQj7c0//iiy9681nubbrppt5Kji1klJGtZ2xhYNxgZaYv4B2DBg0qO/kpPAvPhpt6n/EftM8++7j33nuvgE17x/Tp09ch1IyJWbV++OGHm8QH/+jst99+u0m4PSs8C8/Cc4iHNF2LUMeQ6ThCzeodMxB0juz5MNL8l7/8xZOgV155pRBm96JnEepsKIRKCPXhhx/uB05LlizxZHuHHXZwt956a2GlOiTUK1eudAceeKCf1bJ9QxBq0oCr1157zb3++uvedGr//fcvmI988MEHftB1xhlnOJzl4RRk8uTJbuutt3ZTp071HRHnvffe2ztlQtFg7sozwgEZpLxz585u0aJFPg2Emjh33HGHI//siWKSYMyYMYlWwNXBZQPPaep4mjMvtJ8NN9zQHXnkke6EE05wV199tfv000/LDtQsT8Kz8GxYqORshBq/K48//rjXpZixQqr79u3rJ13Rr+hZSPNTTz1VwCQDMSblIRRMtqKv6QtYFYRsEH/hwoWF+J9//rnX848++mghLC6vwrPwHIeNWsLB5hVXXOHHDjaOCZ9XjFCzKs1Y6bzzzmsytnjooYf8+Bknv+Ezil0Lz8JzMVykIUyEukJCDTm+5ZZb/OrgpEmTvJfvJ554wg/eWFUUoc5PY6+EUGPyYebXnE8//XQ/mLdVCCPUDLogsDixs/goAgh1+/bt/ZYBUwysVmMGhbMDwsaPH+9Xx1etWlXodHgGWxSY5OGamWIchUC2SYPp1Wmnneb69+9fINAvvPCCO/744/3ED3HIT79+/ZqsqGO2BekOV0UsX9GzOrj8YD5at1n8nxVqCAy/Y4891k8Osbdp2bJlhXZTqlzCs/BcCh9x94xQQzIszieffOInPNHBFsZqNToaqyALC81fWX2+/vrrXffu3b2OxgoKRzfof4sPYccpKs+3sLiz8Cw8x2Gj2nAs9VgwwNz76aefLiwchM8rRqi5z7gZS4y77rrLj21If/TRR4tQyyKurC4L8ZXGaxHqKgg1ygSlgEkuJBoywwybTL7z1XFVQqjZAmANnMERq7sHH3xwwawPQs1qGQ47TjrppMIKsqUxk28GUxbGfn48arLixjNJe+mllxbuW7y5c+f6/fvEh1RDjsEnz7rooou8LwAGebyDNDyDVTtLD6EOB2uEs4qC+bqZHVrcYmcN2PKF+2J1nNUw2gDt4tBDD/WTSuH2jbgyCc/Ccxw2SoUboYZIWDz0J3p04sSJhTBW8xgzMGlp8diGQ7phw4Z5Xb7FFlv4yVPDK2bkrOzZ/2wpuvDCC5tMytqzomfhWXiOYqKW/7HSPO644/wCAJZ04ZglfG4coWaRATKN5QaWF+CaLXQy+RZOQ/xk8VqEugpCbSbcrN4xWEPBYHqF58KPPvpIJt85mWmrhFAT1xRAHKFm7xCm1ZjyMSlj8TlDdiG2YVhIqBlw9e7du0CKw3gQbog38QnHiyYr0mZazmo1TvYg9Ji+strBt/LsGbzXyLaFiVCrczMs5OE8YcIEt+OOO2qCKCe6OY2YNEIdmmEboUafWp6jhJoxAzqYCVO+IMLn3bB4wleHEWgz8X755Zc9hokviwvpaMPU+jpDoLt06eL4zBWYLPXeOEJtaRjTgG/GS1h54lOG7Wh2P+6sCSLhPg4bjQ4Xoa6BUBuxRilgwss3yDDPsvC4s/ZQZ0MhPPjgg96kKTR7xoMwij/qlCwJoeY71Jhks1eaVeKoyXcpQo2iAGM4HTMzclMeeKNnzx0dFGHsteP7u+Sf/XxgkkEbe63J9/bbb99kT6kIdTbwaPWtc+X1hcPAfffdV1sYRKjLDtirbV/VEGpW9zCdBZtMzPNuwpjgDAk1JIJtRJdccol3iIrTyLiVwWj+RUAq1xdRGer/tX4cwWQ8DvUgweVkUo5QW3pwDEFnfANWLTzuLDwLz3HYaHS4CHUVhJqVQEg0hJlOEO/I7Ddl714ciQ7DRaizoRBw/IW5Ht+zpaFCgDGVbtWqVdWEms7j1Vdf9WZ9mPwZOS63Qs37yQffR6ejMsUBwec7kKH5II7IcEzG590w5ead4I9Vazx+n3rqqYX38hwR6mzg0epc59L1xeSRtStkhfM9nOzRFpIMBDVgKy1f4a+4fGoh1OhwszBCfzNBGhJqZI7vC4g3pAYT8KT1IDwXr6+k8lO8/09+Tz75pF9gSLINDJnFEWrGzjYZhD5muxyewpN+lUF4Fp7T2iZFqKsg1Lj8x6kIn6xgnyyOGVgNDElzqWsR6mwoBAbl55xzjt/ngxMvfjiLweSp2hVqUwQ4lYGs8+kqOogkhJp4vJ+tBXgwPvnkkz0xZ+UiXEWH+LNnG/IdmgXyaa/WrVt7k0LLB2cR6mzgMawzXcfX2T333OMdNmFCi2MyrDXOOuusggVHOdlpwBYv23Kya8n3qyHUyIstORBqCPQpp5ziHemNHDlyHUKNpVHPnj29pdGKFStEqGVtkRgDtbZLCDB+AFhMKPZjvBF9RxyhZksDE/58/hMLOiY7w0WC6HOi/0s/Sz9HMZGW/0WoSxBqvHHScdlqtJFkwvG8zGcv+O40e0micSxusbMIdXYUAmbUmDG4JKcAAAM8SURBVGm/9NJL3gM3ypz6pl5pxHQ07Puh/sNGzR5pvHHbTCx1bisQxGNmluewGkEc9tVxHT6DODw7XG0jLulYdWPvNIM48hSm4xrLCdKGK3KUBa+w0fi8N/rZC9Kz3zpMH32H/a8OLjt4tjrL85m2iYd8Pv/GZ1hoB1HMlyq/8Cw8l8JH3D0mMtGZ1jcQD/1JmJlzE4YOR+dCkO1ZjCnYqsMeVcLRx+h56z8sHZOnOJpMopft2cKz8GxYqOUMJvHLUuwXTujbO2gHUQxzj3Am+vHrwmfiSBvi3NLHnYVn4TkOG40OR3eH4/4k+TE8b0DD0K9yGYhQSyEkaWhZiWMKISv5VT7V/kphQHgWPkrho1H3WMnG5JtvWVeSB+FZeK4EL2mPKzwLz2nHaCX5MzyLUFc5oSBCLYVQSYNLe1xTCGnPp/KndpcEA8KzcJIEJ+srDqvbWBZhDs42s9BiKUkehGfhOQlOshJHeBaes4LVJPk0PItQi1BXNFOeBFyKkz1laQpBdZe9ulOdrVtnwvO6MhFOGieTyZMne38bEOpK9k5bnQnPjas7qwOd61cHwnP9ZClcNl6WhmcRahFqEWo5RvH7U0PnZ1LSjVfSqoPq68A6OMmwehlKdvWTHftL7ZOI1chVeK5fXVQjf6Wpr/yF5/rKU/hsrDwNzyLUItQi1CLUItTCQK70gHVwGmg0dqAh+ddH/sJzfeQoPKZDjsJzOupB7aE+9WB4FqEWoc7VQFoKojoFYQpB8qtOfpJbuuQmPKerPtQ+aqsP4bk2+Ql/6ZKf8Jyu+lD7qK0+DM8b4FxLv8plgFv1mTNn+pU9hKmfZJBlDODpH8+zWS6D8q42aBgQnoUFw0IezsKz8JwHHFsZhGfh2bCQh7PheYNZs2Y5/SqXAWR6/Pjx/lt87D3VTzLIMgYg0+iBLJdBeVcbNAwIz8KCYSEPZ+FZeM4Djq0MwrPwbFjIw9nwLJPvGk2+nQ5JIAcS+Ne//uW9z+agKCqCJOCEZ4EgTxIQnvNUmyqL8CwM5EkChmcRahHqPOFaZalSAqYQqkyuZJJAqiQgPKeqOpSZGiUgPNcoQCVPlQSE51RVhzJTowQMz/8XvLdPyk+OXwkAAAAASUVORK5CYII=;" vertex="1" parent="1">
          <mxGeometry x="90" y="70" width="395.16" height="250" as="geometry" />
        </mxCell>
        <mxCell id="itkO7vl6pDOI8YGB0cx5-5" value="B" style="shape=image;verticalLabelPosition=bottom;labelBackgroundColor=default;verticalAlign=top;aspect=fixed;imageAspect=0;image=data:image/png,iVBORw0KGgoAAAANSUhEUgAAAlMAAADHCAYAAAA9KdaUAAAgAElEQVR4Ae2dh5cdxZX/9X/s2eM9u+f42Kxtgo0BoZwTyjmOckAJ5TBCOYKQhIQyyjkLBSQkoSwhhBICFBEgWSADu16vbbKo3+9zvfXoaVW/mWFev9c1c/ucN91dnWrut+6tb926VVXu9OnTZt68efpTGWgZ0DKgZUDLgJYBLQNaBopRBu7evWvYyv3tb38zX3zxhZe/zz//3Bw4cMDLvPsq85Lm+969e2b//v2KmUc699lnn5kTJ04oZh5h9umnn5qLFy8qZh5hdvv2bXPz5k3FzCPMrl69av7rv/7rn2Tq73//u/nv//5vL3/8E2+++aaXefdV5iXNN2QMAlzS9+jz2dNZGi14sFXm2ZN5SWX95z//2Vy+fFkx86huw8Px0UcfKWYeYXb9+nXBSzxTSqb8MZAlNbBJeF7JlH/lTcmUf5gpmfIPMyVT/mGmZMoj5psEApTJPCiZ8s9gKJnyDzMlU/5hpmTKP8yUTCmZypkrWcmUfwZDyZR/mCmZ8g8zJVP+YaZkSsmUkiktA0UuA0qm/DPySqb8w0zJlH+YKZnSirTIFWkmu/h4l3qm/DMYSqb8w0zJlH+YKZnyDzMlU0qmlExpGShyGVAy5Z+RVzLlH2ZKpvzDTMmUVqRFrkjVM+WfgmcaMyVT/pUBJVP+YaZkyj/MlEwpmVIyVYbKABOlMifbzyVZSqaSY+S//PJLAx6FYalkKhoz5IccC5Nhtq8rmYrGLNtYFPV7SqbKUEVa1EIRdR9GmTinqOuudGbM5jnXNY2Zyq7BAIfmzZvLzMouPIqSpmQqu5iFMUH+EGLS33jjDTNjxgynbgWfUzIVjdnMmTPN4cOHC5VhUJ7hY2ycbaBMnDixRPpl361kKhozK6NM7YcMGWL+9Kc/lagMkBclU0qmilyIXn31VXPjxo0i30+Lb/DgwbL8iKvgK5nKnsFA/kqmsitvV5kvadquXbvMsWPHRAeVTJUcz0yQqVdeeSVFcFkGJhOeLiVTJce2qLr28ccfp8hwUZ9x3VeATMGwXTf5kKbLyRRe+FD0559/3kydOtWsXLlSvEyrV682Y8eONWPGjDFr164VQ8B6eTt37jSzZs0ysHYKCWlVq1Y17dq1M3v37jXvvfeeyc/PNxMmTDCzZ8+W56isX3jhBTN58mTz4osvGgz/ww8/bJo2bWr27dv3QNlSMlU4ZiXVPQz74sWLBadJkyaZRo0aScv5nXfeSeHHdXQfLFnHjW9u27bN2WJXz1TxMHv99dfN9u3bzZQpU8yIESMM5+CAXqGPyHr37t1m1KhRoodz584VvTx58qRZunRpSgffeustA2b169cXfVq+fLl4ptBd9G/QoEGGZ1zlRT1TBTE7ePCgGTp0qODQr18/KefYM2RPPUIZnzZtmugC2GzYsMF0797dfPDBB4LR9OnTRXfQlXXr1plKlSqZvLw8ec/69etFl7BtND7HjRtnRo8ebTZv3izvBv9Vq1aZl156SRqafNeFWVklU3fu3BFcqKMo/2CBrDgfNmyYYf07ZIMHcMmSJaJTa9asMQsXLhQ5L1q0SOQMbtQ/eG55zi41t2XLFnkX+mY9ksuWLZP6C48vekr9hU7xTrBZsWKFQd+o23AORDkUqCfJH3pdTpeTKah0rkLuaxoGFVJDIeN/oNAeOXJEKlcqUgpAvXr1ZA0vKldIE89Q+AYMGCAF9OWXX065MmHzXKcAtm/f3nzyySdi+KkoqMB5Jwalc+fO5ujRo06DoWQq/vLG2oetW7cWrC5cuGAeffRRIVMYBAwVGFIRUDGAOViBS4sWLcyVK1cewE3JVPEwwyhj+NGJ8ePHm4EDB8rxggULpMFy/vx58/TTT4v+oTNU2hAn9K569epScRw6dEgqbGRPpYzeosN4pqpVqya6DJGCaHFP2EaBsa7N90/csFOtWrUSe0WZb9KkiVSqyK9jx45i57BpzzzzjNwzZ84cwYQ08GHBaLAEPypxZE0ly3WOaZRiS1977TXRJ3Tpww8/NI0bN5a19ubPn286dOggOEHSunbtKu8LY1ZWydTIkSONJUS2DoGkIHPkDUGl7qGRfvbsWSG4v/zlL4Uskf7YY4+ZW7duGeoq6h7KPjoG4QVvbBrvwi5SDjimfkNvwBESDRY0gAiJ4BgCheOAY+6hjgvjxXkBz5SSqeIZSpdAk5pG5fmb3/ymQN8wLbGNGzemCgbu6uPHj4snA2PO/3Lq1CkhXBiFIJl69913pRLu3bu3qVGjhhgMKuNgBUxBVTKV2zJFy8xiicGHULMa/dtvv226dOlinn32WVOrVi2pKKikqfCpDCwpDpdnJVPFw5NKF48ScsQLjFeX4z179kjlgGcD75KNueE6lSyYUTGTjq796le/EozCZIqWNO97//33zUMPPZSq1IO4KZn6CTM85D169EjJGw86Hop0ZMqSJipjvEzoDRXxvHnzRPYuMoV3Y8eOHXIdLPCu0JiBTOFRIY3u2ooVK0rjJYgXx2WVTEEuaehbeVB2sUXUIzT6qIMgTXXq1BFyhE176qmnJI36pkqVKlIHcR+9K7yHuouGCQ0KPIeQZsoARJprkCneA3mCePEM3+AejiFT9l2QLJtu82j3SqbKSMwUbP0///M/hfRY8HFdUtlisPnBvs+cOSNkyhqCIJmilYYbk3txk9tWGoWc1hd77rfvVzL1kxG3Msn2HqMCSea7kCSMDWSK7g0qaTCicrCtQAwLbm8blxPOr5Kp4mFKV4E10JApvEnI1JIpPBjIHxxIp/sdQgWZgti6yJTtsgjGTCmZKhoueF7xpFt50wUEmcIbiDeW9I8++shUqFAh5ZmCwIINJBcyxT10/VgyhQ0Ne6awlegez4Ehz9FNCJlCv0hXMvUgZpAmyjLy4YdXlvADSA+ExpIpelGwWci9fPnyghW4BMkUusQ78EaCJxhDmHiO4zCZolxY3cI2cs7zkCm6DDlWMlVGCBNgR/1QaBS8W7duYhRQaAgQXgkUnEBMChqtL1pOQTJlCx0GZPjw4dLSJv6DLgzeCeuHrOE6rVu3rsRe8U4qXlrX3Hvu3LkH8oaC8ExUnjU9Gs+iygajQMsN7PCA4O4Gd0gTMXHgV7NmTTEwvJMK4ve//70YINc3lEwVDxO6LCyZwsNhyRSEiRhFPBB4OfCQQHppcUN6t27dKpWIJVN4nagEIGFt2rQRo8+78IqAExUQnmdbqQexU8/UT5hRfmn0ITdsHvKGTDGaC9sFXsRE4TGiEqbytmSKipSYQ0gxxMuSKfQI/GhcEpMKfjQ6qfDplsJ7CEng23gqacSCD70AlStXVs9UoN5CR5AxHiRiy5AR+kE6uNGbgteILm1LpugmByvIFHG99I6AG/UZ8qfhCNZ4jqjv0DtINF566iC63sEG3aJ7l29jH/FggRPxjTY8hnqxZ8+ezjpLPVMBIIMGqDQeY5jxHNEatt1xuFQJiiQoE6PL/02hoHXGMcYebxXPQrS4F0PBcxQwujBwX1MYuZ/KmxYEz3COccfo24JGmv0pmfpJFlYmcexpEYMJbm5wASsMEsaDip4fhohvb9q0SSp18HblhWdPnz7tvOa6v6ynUe7RG+SARxCjzzF7SC3HXGeABz87RBv9s8HJVBpU+GCEPqGD6ByVNtjyDtLpprU4kmZ/SqZ+kgUyoexju/BOYAdtt9K1a9fEA4GecA37hK2jochznOPZogHIc9xPOlhCjsGXZ7mPdJ5Dx8DO2keesQHMYE33okvXymo3H3Kj4Y0niDJOeYZQUYcgX/BAvtggrtnrpCFH5El5h0xh83gOzKxeUD+BPXpj6zVIsMWA8Aeuc434RfJz6dIlKTMco5e2ccR58GfrOGOMBqAHBaPHBQtKHPJAAdQzFb+ci4IdWBBPQqsLQx71jJKpZOAVhY8rXcmUf5iVZTLlKsPFTYNMQWSL8xwECq8jHkhigfHmF+d5JVMhdlkc4em9JTNSSqZKJr9Mlj9IEi50WoPp3qtkKjmYpcMpeE3JlH+YKZkqGWZ4s/ASBvWgsGM8jHS1Mw0DIwULuz98XcmUkqliF5pwIfq550qmSmYwfq7cS/Kckin/MFMy5R9mSqb8w0zJlJIpJVNaBopcBpRM+WfklUz5h5mSKf8wUzKlFWmRK9KSeDRcz6pnyj+DoWTKP8yUTPmHmZIp/zBTMqVkSsmUloEilwElU/4ZeSVT/mGmZMo/zJRMaUVa5IrU5V0qSZp6pvwzGEqm/MNMyZR/mCmZ8g8zJVNKppRMaRkochlQMuWfkVcy5R9mSqb8w6wAmWIyMyat8vHHHBHMmOpj3stqnpkYj9mAy+r/7+P/zWR5rOfoY97Lap6ZqJdJEMvq/+/j/81SMyyl4mPey2qemSCUiXS//fZbU+5///d/i9xCLUn3ThzPMoMp6+r84x//0J8nMvjb3/4my2AoZv6UWWwEM3crZn5hxmzbipk/mP3lL3+Rmb4VM38wwwMMbkKm/v73vyuZ8oSIlAYlUzLlj6Gw5U3JlJ+YKZnyCzclU37hhX2ETMGhSs1yMtbo6z75hVHJVPIxCuuRkik/MVMy5RduSqb8wkvJlHqhcur6VzLln8FQMuUnZkqm/MJNyZRfeCmZUjKlZErLQLHKgJIp/4w8mCmZ8gs3JVN+4eUdmbpx44Yh0NwVwK4B6MUrfCzkeO3atWJVpOEun5Keq2eqeJiVVN6FPf8///M/EkCJIf/rX//qLBtKppKFWWGYcl3JVHYw+/TTTw2/MCb37t0zd+7ckXgaew3bx/QH9jy8VzKVHczCck93jk1kbsSoe7yImfroo49kOHbTpk0NBVPJVMkL2owZM8y2bdsiC0ZUgclkupKpkuOYKTwInOzdu7epVq2aqVu3rlmyZImzbCiZSg5mRcVeyVS8mGHH5s+fb9q2bWsaNWpkli1bZkijcTJv3jzTrFkz07VrV/PJJ58IsWXqgH79+kXqGLgqmYoXs6LqDvdBopiqIi8vT6ariHrWCzK1Y8cOs3XrVtOuXTslUz+zW8qO1LQFIR2ZovBggO29tkCh4MG0wo7tN9m77lUylRyDAd4NGzY0eH85jsKMazo1Qny4IXcqYfSF47DOIX8aky59ikrjGe3miw8z7NjNmzeFQOGZKl++vHiomKpn2rRpUhlzD/jgjRo9erSZMmWKWbx4cSSOSqbiwytKT6LSceZMnz5dcGPur6j7vCBT1hMFM1TPlLuQoaydOnVKGeL8/Hxh07glIaFz58413bt3Ny+88IIUBkumrl69Ki2q9957z0yePNm89NJLZsyYMaZGjRrm8uXLYsy5t3///ua5554zzz77rBiEQYMGyVBQsGnSpIlMVkZXa/v27aUrllbaggULTN++fQ15cVXOSqbcWEYpa5zpEGgwx8AfOXLkATJtv61kKh7M8FrUqVNHPBnoEDpIRdylSxfRS+R/8OBBM3z4cDNw4EAzc+ZMg+4++uijhlnpwQX9ZoJOi5XdK5mKBzMr3+D+1q1bpnr16mIDsbVMJo2nat++fUK27L1Lly5VMvUzHQNWhtneo49KpjwD7ecUknRkCpLFdYwqhJSKE4IE2WnVqpXBAPDNSZMmGWZx5ZiYqjVr1ogxwHVNaxlChBHfu3ev2bBhgzlx4oQ5d+6cuKwPHDhgzp8/b8aPHy/38V7bquabGPzw/6VkKntGPiz78DllY+rUqYIlHipIlYsAc596pjKPG2SKMAZwwYtEhcwxjSEaJhyjL3g+3n//fdO8eXOpsNFtuo1oPVepUkXSXNiqZyrzmIXljB0dPHiw2FCwgtyOGDFCelVatmxpWPHBPqNkKn48rKwztVcyVQaIFIUF5Y3yTKHQ9p6OHTumyFStWrWEQPEs16lML168KMcffPCBLPXy2muvmZdffjllBI4fPy5ECq9Vr1695Bn6k4m34T6u8y5az+z58c3PPvssdW7T+S4Vgz3XfTIMDBV4vXr1zJdffvkANkqm4sEIMkVcDTqA953GCMd4fvFOQWzxGuOZIj4HfGisXLlyRbxZdCnZhlBYj8BMyVQ8uFlZYw979OghjUuw4ocNJPCce7CRtleAcyVT8eJhccnkXslUGSFTKG+bNm3Ey8QxLSEUmIoxikytXbtWuuEIROcZF5nC2/TMM8+IZwmPFi0vuoF472OPPSZdf1S6dFHggSKdAqxkyi9jAf42VocFO6nA7XnQICmZigfXwsgUxMl6o9AxdJI0GiR0v9OV7iK/YKdkKh7MrF4QK8PAjbDHduXKlUJw0a3Nmzcb7K19RslUvJhYOWdyX6rIFHE7GjMVXQhR1qpVq5qePXuKpwi3MgaWWCgKFYYXGUKKXnnlFbNnzx4hP40bN5ZYCzxLtLC4l2kT1q9fLySLeCsMOR6mkSNHyvMYCILybBAlAwQw6LbwPv/886ljvonBsdfsXj1T0VhaGWVrT7wbZJzWdaVKlcyFCxcewIu8KJmKBzM8GMQhImO6xNFhjvFMQZbQlSFDhghG3bp1E120ZBcj36FDB7nHVV6UTMWDmZU1sWu//vWvza9+9avUj1gpCHKDBg0EK+JW0TH7DLZ69erVqXObbvcQZdswtWm6jxfHwuRLPYiDIuo+rwLQKVw2GD2813mm/jn6B/KEImJAITwAz7EtABApm4aB5pg0joPP8Ky9zj3Il3fbd5LGdXsP6cHvBI/tN3km+ONZ7eYrKJOgfLJ9TLnBIEThRX7ANdwCz3Y+S+P3wvoTxMDqEvqCDeQ8eJ1g9XfeeaeAbgVlxP3azRefnoEdxDb4s3YSnOwAgSAmQdsZTLfHSqbiw8vKuLh79Mji6nq2AJni5jBJ8eVcyVTyCp+rwAXTlEz5hxk2QslUMnAjDhFv8oQJE1KNmqB+2WMlU8nAy+JRlL2SKf8wg0yB27fffmvKKZnyD8CiKGZS71Ey5V95UzKVLMxsV186HVcylSzM0mFlrymZ8g+zAmQKF5YvnqhwPtUz5V/hUzLlH2ZKpvzETLv5/MJNyZRfeEGCC3TzEdxNDIuPPyadZMSEXR9J9/9cJyrJcsDAE6iZ5Dxq3gqWIzAjOF3lUlAuSZYHwe1MdZLkPGreCpYngtfpTle5FJRLkuXB6hHEyLGVKw2eKflP9I8XErh//75MNuhFZjWTIoEffvhBDLyKwx8JgBmefN38kQBxN3g7dPNHAnjtv/rqK8mwkil/cCsVOVUy5R+MSqb8xEzJlF+4KZnyCy9yq2TKP8xKTY6VTPkHpZIpPzFTMuUXbkqm/MKL3CqZ8g+zUpNjJVP+Qalkyk/MlEz5hZuSKb/wIrdKpvzDrNTkWMmUf1AqmfITMyVTfuGmZMovvMitN2SKCeru3r0bOXWDnRrBPwhyk2NGRTD8NpebkqlcSv/Bb0OUvv/+e/mBjWtTMuWSSrLTwEzJVHYw+vrrr1Mf+vHHH1P6hF4FN67ZYOVguj1WMmUlkZw9NhFcojYvyNTu3bvNU089ZR5//HFZDw7ihHEI/pRMRUHsTp8zZ47Zu3ev+2KWUpVMZUnQRfgMxp1FrH/zm9+Yhx9+2FA+XJuSKZdUkp2mZCp+fNCfgwcPGtZNtA2Rd9991/z2t78Vfapdu7bMUk9OGKXHeqlr1qyJzJiSqUjR5OQCXIO1MU+fPh35fS/I1Pnz5w2eKX4sxHrz5s0CRIp/VMlUJMZyAWX/7rvvUjfNnj1bFjpOJQQOML7WINhk0sKtK3stam+/yd61KZlySSU3aWDRunVrmarim2++icRayVS8+KArQT0LHvNlcArqcVFyo2SqKFIq2T3z58+Xhn7Tpk1TtpOKd926dQZ9sh4N6qp+/fpJw2XFihWRH1UyFSmarF9g/s1hw4aZvn37mhMnTkR+3wsyZT1QLLTLCuofffSRkqkQpBjZrl27ppR2/Pjx5u2335aFGfv06SOKXq1atVRryJIpZNqsWTNz8eJF88ILL5iNGzfKCvTly5eXblUM8b59+wxGolGjRoaVs2lZDRw4UN6NYWdFdDDCAOTl5cn1Xr16GQxMrVq1ZP0wF6FSMhUCMYenVNp16tQRY3H79u1UhRDOkpKpsEQyc85iuC1bthQ9rVq1qlm7dq0ZN26cqV69urGVLosZt2rVytSrV89s2LBBGpVPP/20oWsJXRo1apQ5derUAxlSMvWASGJJYHLUIJk6fPiwWbp0qbl+/XrKLtsPr169OoWrTQvulUwFpZGM45kzZ5YeMjVlyhSTn58vXihLsOy+rHum0pGp9u3bi8Gljx43NBUnZAri1LFjR3Pt2jUprdOnT5euP65jlLdt22auXLkihIilX1BwDPzx48fN+vXrZVblW7dume7du5tz584JyWUFe4hTixYtJCAPstWlSxchXmGVUDIVlkjuzsGcbj68U5UqVTK7du1yZkbJlFMsJU6ETNFYQceIZ4RQ4dHAvqG/bJyjT+w7dOggjZYmTZqI/tIoevLJJ1NdScEMKZkKSiO+4zCZgvy2adPGNGjQQBqs4GY3JVNWEv7sSwWZYpr2AQMGmMWLFxuMjiVQwb2SqWjPFASUDfLSuXNnMciQKYw3ffeks1FYrl69Ksd4/3BREweAN8puZ8+eNdu3bxciNXr0aLNgwQLz5ptvmhEjRpiVK1eaI0eOyK30L9sNMmWn2bdp7JVMBaWRnGMWz23cuLEQ8HCulEyFJZKZc+waIQxsdBe0bdtWjvE6kU4D5bXXXhN9pcGCxxfihUeZihm93Lp1q9wXzpGSqbBE4jkPkyn7FeSPI8DaVtKVTFnp+LMvFplCiYMEJSnHVNp0WaXLT1knUxhbWrCM0OMYb5Ht5osiU3iX6OJjrTWecZEp4tXousNwQ34gVkePHhWDT6DyoEGD5LhChQrSzWhJ09ChQ1NaomQqJYrEHoC/JdXoGR7LYEvaZlzJlJVEZveFkSn0D68hmHBMlyB78KAhQxc9y4G5NiVTLqlkPi1MpvD2stmeAGJ97aZkykrCn31RyBT1H3pZLqlkqnLlyjLKyI6MwBMSJlZlnUxRJBctWmRq1KghXjzcy4WRqT179pgvvvhCWrkQKheZoluBrj1ayj179jTEQtFdSMU7cuRIiYfi2xgH4qiolNmUTIkYvPmDB6RTp05Cjunme+utt5x5VzLlFEuJEwsjU+gbHioaJr179zYNGzYUo82Hp02bJvppyXA4M0qmwhKJ5zxMpgiTINgcW0wXOrbUbkqmrCT82ReLTCV1oWPml2K1evuDACiZerAQYkyJnSC+iRYsRpQNpmw3621AsW3LiYqUc+6zBpm9vQ5BQt68217nfVy39/At13e4j/dbkmXzwZ530Z2oWzIkQLlB1yDLLrzIpZKpeLBC3lY3OUZn7GbT0VFIF3oWvP7iiy+akydP2tsf2CuZekAksSSEcQMvRqBjO4N2k49jN7ketYGxLnQcJZ3cpIOXrVNdOfBqNF+YQAXP1TPlgjfZaUqmko2PK3dKplxSyU0ahIqBIsQnpjPySqZyg09JvqpkqiTSy82zSqZyI3f9qnqmvCwDSqaSAxst5Q8++MA5gi+YSyVTQWn4caxkyg+cgrlUMhWUhh5nVQLqmcqquDPyMSVTGRFjVl+iZCqr4s7Ix5RMZUSMWX1JATJFV9knn3zi5e/jjz82LDuD61t/fsiAmACGCytefuAFTmBGnJti5g9mxMIyd5Vi5g9mVMzUx4qZP5gRy23j3MoRg8SIBB9/kEBGpzFHjv78kAHl7dKlS4qXR2UWAw8BVh3zQ8fACcwgwIqZP5gx0AACrJj5gxkD5BjEw1YuqaP5goHmUccYDKZMgBnqzw8ZUPDef/99xcujMkuL+cMPP1TMPMMMQ6920Q+7CE7MF2g9HYqbH7j9+c9/Ts31pmTKIwNZGhRMyZQfRiJY1pRM+YmZkim/cFMy5Rde2EglU0qgctZiVTLln8FQMuUnZkqm/MJNyZRfeCmZUiKVMyJF4VMy5Z/BUDLlJ2ZKpvzCTcmUX3h5RaaYfZu4KI2ZykwhI7CRipFCkKufkqncyd6FOTGT9ue6TpqSqWRhFoVTMB3MlExlHzerS3YfxIQ07F8wLXisZCr7eAXlH3UMblHXvOjm2759uyzc26pVK5n+wEWoNAC9eIWPBYt37doVWTCiCkwm05VMFQ+zTMo+/C6MxKxZs2SNNxbMXrt2rbNsKJlKDmZhDKPOlUxlHzNs24QJE2TxefSJRaqtvWW0fP/+/aVOYz1VVwWtZCr7mEXpD+n37t0T+8iapVH3eUGmbt26JcFdjPxq2rSprE8VJlRKptIXPhQWo2oLwowZMwwLcdrz4B5DEFZw0oLPB+9Pd5zuGSVT6TFLJ9dMXwMLjD5TVTAsG2Pu+gZ46mi+eHEDCyv7sP6E9djel27PO9QzFS9mLvlTJ6FLrM83efJkc/PmTVnflAWrWYQeHaPHxfWskqns4+XCgTTmsGzbtq1p3ry5OXTokBMv7vOCTEGcKJgswtq5c2cZMqpkqmBhwwB36tRJ5iUB2Pz8fHPs2DGRFSuWDx061PzLv/yL2blzpxQGS6ZQ5tq1a5sDBw6YqVOnmr1795rHH3/c/O53vxN5Y7yZV+ixxx4zv/zlL+X5v/71r9Kq4lkMdV5enhgM0jt06CAGhJYX3/jXf/1Xs2zZMmcBVDJVEMMoZc5GOtjVqVNH5iMKVubhbyuZigcz5snr2LGjQVf//d//3Rw5csT069fP/Nu//ZvZsWOH6M+5c+fMI488Yn7xi1/InHoXLlww1apVS+k8Ffbrr7/+gK4pmYoHs7BuRJ2fPn1aGiro1eHDh023bt0kXCWqwcJ7lEzlFjMXltOmTSs6mbIrXIeJSq7Pr1+/bmDzsMN9+/Y546bKumcqHZlq1qyZeBPwKHTp0kUIEESHrpzhw4cLgeL5iRMnmiVLlshkcVzDc8XaX1WrVjVgcPv2bTEEx48fNwsXLjTvvfeeuXHjhmnTpo05e/asHMUymuIAACAASURBVD/33HMSC9CoUSN5Fpc2lQT4hAso39R5ppJhNCBTlA1aX02aNImcs03JVDx4QaZq1aolrWB0qWLFiqJz6AddROgOng08TPxotNAShkyho9ju8uXLSwMorGdKpuLBLCznqPPx48cLllxfvXq16dmzp5kyZYrsCbfADoafVTKVW8zCeHBeFDJFLxr1ZGLnmaIixljQBdGyZUuZoT1M8JRMRXumIEwUBpQWYkPFCZmCZOHBssqMZ4rWLvdioJcvXy5Ei3tt4cLbtWHDBnPmzBkzadIkIV9btmwx48aNM2vWrEl1HQ4cODD1DN8EP/sOu1cylTyDATYYAwgVOmaxsnslU/FgBpnq2rWryJv4DOwcMgcDSC7HxGtg0GlUVqhQQbwX+/fvl0YR1+bNm/dA9zzPKZmKBzOrE+n29KbgbbT34KXHa4/to+J99NFHxZNvr9u9kqncYWYxCO+LQqboyfFmBvQhQ4aYK1euPOCdUjL1N/EQ2T54ughsN9+IESNEmcNkaunSpebJJ58UpabgQKYuXrwo91oyhVu6b9++KcK1fv16CaSEHD300EPSFYHBePjhh6Wb0cZmKJlKnjEIG4eocww5RNvlTVQyFQ+uYTLFYBvwsWQKTCBYYEJjCG8waRzTWJo9e7YEybowVTIVD2YuWYfT8PCvWLEiRaboWcF7T6XLcjF02+JhDD+nZCp3mIWxsOelgkzxT8yZM0fifjAcTLOvnqkHCxvddL179xZZ0c1WGJmiG+/y5csS1E+XnYtMIWv6+MeMGWOmT59uMPIQJgx09+7d5RkMw0svvWT69OmTahkrmXoQH6uUSdxjvPE00u1AXOLmzZtTWAbzq2QqHlwLI1PIHQ8v3UPYQ+LbwAxs8C63a9dOdDKIlT1WMhUPZla+UXvkThft+fPnU2QJe0rICrZ0wIABhgat7RkIvkfJVG4wC2IQPi4VZIrKGzf2tWvXZPRDmEhxXtY9UwCP8hLbRJwSSkurFaJjvVXcw+gS0pAXc03ZNCtD3mHfZY019xOvgfztde7hur2HbwU9Ga5v8kzwp918BeURlE22j8GYckM3L15Hzl15AH8dzZd53NAFdBaZI3v01B7bdHQUjzF6ZvWYe2hoMn2MCy/SwMx6jKPu0fTMY4pM6bINkyVsJbFwdKdHyV3JVDx4RMm7KOnoHdhF3evNaD4XgQqm8Y/qQsfJK4BRBY90JVN+4QVmSqaSgxlYWI+WbRi59E3JVHIwc+HjSlMy5R9mSqZC3hJXwda0eAq2kql45BpneVUylRzMMN4ENDN1STrMlUwlB7N0OAWvKZnyDzMlU0qm0hrioIJn+ljJlH8GQ8mUn5hpN59fuCmZ8gsv6sYCZIr+QBJ8/NE3/cYbb0ifJv+H/pIvA7omCIBXrJKPlcUII09cnj3XffKxAzO6AxWr5GNlMSLmlDrNnus++dgxOpN4R5kaAfAIjPPxx2g0RiARrKk/P2RAEC0jXRQvP/ACJxpa2AfFzB/MsOsMIFHM/MGMipkAdcXMH8xYdgbPvTfzTAWDzoPHNgBd/hP944UE7t+/L8uXeJFZzaRI4IcffpD5cVQc/kgAzLCVuvkjgW+//VbCL/zJseYUIvXVV1+JIBI7A3qQNEUdK5nyrzArmfIPMyVTfmKmZMov3JRM+YUXuVUy5R9mpSbHSqb8g1LJlJ+YKZnyCzclU37hRW6VTPmHWanJsZIp/6BUMuUnZkqm/MJNyZRfeJHbAmSKk6hutKSnazdf8Qrfjz/+WLwHYrhbyVQMQo35lUqmYhZwDK8HMyVTMQg2xlcqmYpRuDG9Gv7EqEuwK5d0MnX06FGzdetWJ+FTMlW8EsLimyxinMtNyVQupV/w25DrPXv2yIK5LE9y8uTJgjf835mSKadYEp2oZCo38FCfLlmyxMycOVNsLTpGRbtjxw4za9Yss3LlSvPNN984M6dkyimWnCUSWL53715ZUi0qEwXIFHMkJNUDxbwbLBrZv39/Zx6VTEVB/FN60BvFKvNUnq4teJ+9Tpor3V6P2qd7RslUlNSynw4WLMDKtAfMS2RHpYRzomQqLJHMnwd1Jnhsv+RKs9dceyVTLqnEn7ZgwQIhUcyn16VLF1lPkXUt9+/fb77++muzfPlyM3nyZKddVTIVPz5F/QJTi9SsWdNUr17dnDhxIvIxyJS1m4kdzQdRguHTYlYy5cYSA4tifvfdd3IDq5GzKCrgzp8/X35169Y1Z86ckeuWTNEyeu6552SB23Xr1sm8T3l5eaZt27apOTOY66R9+/amWbNm5u233zYYZ1Y951kqYVayh4iTPnHiRBnSC1br16839erVE+PhyrWSKZdUcpP2/fffm/r164vBT5cDJVPppPPzr9GInTRpkpk3b55p3Lix6C46+swzz8gi77z5o48+Mu3atTMNGjQw77zzjpxjD8GObe3atZIezoWSqbBE4j/HDnft2jU1vcGBAwfM66+/XoA4nT17Vu7BDoY3JVNhieTuHCyZExEPo/dkii4HjAYVuZIpd6FCIVFelJBt/PjxIi9IjjXOeB3wPnAvhpqV5hcuXGhWrVolRGjatGlSYFh6gusYACaPq1y5srl06ZK5deuWadiwocxaDkG7c+eOFDJIFrNiM6Fjv3795F3cd+7cOXmmY8eOTne2kik3lrlIxWC0adPGtGzZ0vTu3dtcuXLFmQ0lU06xlDgRY121alXpRiCcoWLFitLAgTTRkGFjtQAmBmQ2czwdeBCffPJJg76yNFOVKlVEB8OZUTIVlkj859i2/Px8c/z4cZnJHNv66quvpj4MXmPHjk01blMX/u9AyVRYIrk/955M4WLr3r27zOD71ltvmT59+pjPPvvsga6+st7Nl45MjR49Wkoi93Tu3Fm8V5AljDQKTzrbiy++mKpEaQXjqSKuinS7QWghYbSqIGJbtmyR+3jf7t27zaZNm+TWIUOG2EfE8BOYF974Lt/RLVkSQL9atWqV8nIGc6dkKiiNzB1DpmjosNFdALFlozvIpkOeaMRUqlTJ/PGPf5SG086dO0XvaChFdRkpmRJRZv0PHn26hyDJxPru2rVL8kCjk16Cffv2ReZJyVSkaHJ2wXsyRbBeixYtTLdu3aTr6fHHHzczZsxQMhUqUhATPEAYXzbIDMQHzxSEiS1MppAjHiTi0dgoLKxAz2bJFC2rUaNGpdzTxFnhruYZWsVDhw6VlhctabyGVMRspNuNVrSSKSuN5O/pvm3atGmq/z+YYyVTQWlk7jhMpuhmZ7NkCs8heoTHkHu5ToXLdbzQDCgh3bUpmXJJJTtphF9gdxctWiQeRbyIeH+xr+li35RMZQef4nzFezIVDIinq0m7+dzwo5jDhw+XmIuDBw9KrFJhZApihIcJoooH0EWmaA03adLEbNiwQQLWIV93796VOA1az8RLYSyIlXr22Weli48cKply45TUVCprvBxHjhyRxgpdEi5jr2QqHgQLI1PERXXo0EG8GzQwa9WqlerSp7ED0bKxU+EcKpkKSyQ75xCmY8eOmWXLlok9RMdYP5YeAUby8QNLF25KprKDUXG+UqrIFG5T4gWCBMsel/VuPgoFSnnt2jXxDtFVgPJSIdI/bzdGlpCGx8oOy4Uw/eMf/5A0q9gYYDsygWMWSsVrZa/zPlrF9h6+xTvtFvRE8U0IV3gjTbv5wlLJzTllAq8iBByvo4tIkTMlU/Hggy6gJ2wco5Ns4GDT0TUWdEfPuG4xolKmSz5qUzIVJZl407GpxLzR+LRYgSENV/uL0jUlU/Fi83Pejt6BS9TmxWg+S5jS7ZVMRUGc3HQlU8nFJipnSqaiJJP9dEu68AgHGzLhnCiZCksk+edKppKPUTiHSqbCEtHzrElAyVTWRJ2xDymZypgoS/wivBpMa3Lx4sW071IylVY8ibyoZCqRsKTNlJKptOLRi3FKQMlUnNKN591KpuKRa5xvVTIVp3TjebeSqXjkGudbC5ApTgiE9PHHcFPmRcJw6M8PGRB/xYzAipcfeIETsXGMSFLM/MGMipl4U8XMH8yIRyXWVTHzBzNiG20McTmCu5nLycff6dOnZXgwhl5/fsjg9u3bBtwULz/wAicwO3/+vGLmkZ3BrhO4rnrmj54xMOfGjRuKmUd6xuAvO/AqscvJpAs8t9dsADojKPTnhwxoeTHZoOLlB17ghPcab6Ji5hdmECnFzB/MGK2JN1Ex8wczesfsQJByGEpLTnzbK5nyp9BZA6Fkyj/MlEz5iZmSKb9wUzLlF17UaZApcKNbXcmUerWy2hJSMuWfwVAy5SdmSqb8wk3JlF94PUCmcFH55pGy+VXPlH+FT8mUf5gpmfITMyVTfuGmZMovvCyZSnXzKZnyD0DbZVbcPVgX95lM369kyr/ypmTKT8yUTPmFm5Ipv/CibiwQM5VUMsWoBtaR48faYXihrEfK7tUzVbzCxxIUhw4dyimhUjJVPMwyTWbD72OU3htvvCFTjHzwwQfOsqFkKlmYhTF0nYOZkqn4cWPZmDfffFOCkMEBQkR9tW3bNoM+Ub/yY9QXaSwiDzYuzJRMxY+XS+5RaYzSu3DhgmAXdY8XZGrjxo2yKOSZM2dktl8lUyUvaDNmzBCFjioY2UhXMlVyHDOFE1j07NnTvP766zL1AcPpXe9WMpUczFz4uNKUTMWP2dy5c03FihVN48aNZX4ocFi+fLlZvXq11FmtWrUyn376qUx3wCLVTFUxa9YsqddcmCmZih8zl9xdaUwHU7duXVOhQoW0DggvyBQFlfmIrBfKtS/rnilaPGvWrEm1dHbv3m2uX78uraPt27cbfqwuf+nSJakkLZmCcS9YsECmKMArgZJzberUqeIBpHCxAO60adPM+PHjzbvvvivGYv369TKnBpXw2rVrBRuOMR4Ygq1bt4qXY/To0YKdq5AqmUqOwaDCxWB8/PHHThJl8VMyFQ9mTJSM/uKxGDt2rOju5s2bzZgxY1I6CzboZX5+vugp56+88kpK5/fv328uX778AH5KpuLBzOoEexYIZ1Hjhg0bin3Ernbt2jU1vcGOHTukoXL27FnTuXNnuefw4cNm+PDhKU9W8H1KpuLHLCjvdMdMUQG+1IHpenO8IFMzZ840DRo0ML169YokVWWdTEFMOnXqJCvMUzAwuMeOHRNlrl27trifcUGj4BAvCBPGGuM9YcIEIUYTJ040gwcPlpYUa34xozzdA08//bQQIyZzffzxx8VgY9Qx5rS26tSpY65cuSKro2MoMCRUzLt27TJ4E9u2bStp4QKrZCo5BoPZe8GsWbNmBgKsnqnsYoO8n3zySXP06FFDQ+Wpp54S/SG0oXXr1kKQ9u3bZ6iMz507JxXynTt3zEMPPSR6iP2rWrWqeD7CeqZkKjtY0ni1ZArb1rdvX7GVVMYLFy6UH3o2cuRIIckdO3aM7H5VMpUdzMK6ku68VJAp3Gz0OWNIGjVqJMYj7J1SMhVNpiBIFBJLuCA7kKkePXqYgQMHiieJ61OmTBEZc4yHasWKFUKoIGYQMNIx6JAwGDpubFpc8+bNE+/W3r17zeLFi+U+u5I9z0Dy7t27J+mc25+SqZ9kYWWSqz34UqHfvHlTSHiXLl2cBFg9U/Fghuzz8vJEN9AVSC1lAbtGA4Vj9HbVqlVSYUO8qHAXLVoksaR4nNFldCpchpRMxYNZWM5BMsU1JiSuXLmyqVmzphApSPKpU6dM9+7dxb6uW7dOGq8uzJRMZQezMIbpzksFmQoSp0GDBgmxCqZxrGTqb6Z9+/bS3UaBGDJkSMozNWLECDGwKC2tIUumBgwYUIDo4G1iBXqeh7xCliBP48aNS5EpWsp4s1juoHr16mbo0KHm6tWrBu8X3+SY5zHstmDyTboK7bndK5lKnsEAGwz5M888Y7788ssHMFMyFQ9mkCm8xsgfMkWMDcfYNktsafzQeEFHmzdvLjjRPYhnma52AputbgX3SqbiwSwoY47DZIo0bBzyX7ZsmYRI0C1LXCLXCFj/wx/+4NQzJVPZwSyMYbrzUkGm6IumG+ngwYOmZcuWUjErmSpY2PAsYIwhO4x+rFKlSqFkirgm7odU4Yp2kSmM/BNPPCHrNeKtoqVFiwt3NQSKOCwMBu/o1q1bKn5DyVRBfNIpaRKuQbCJh2OpmE2bNkl8nPVGBvOnZCoeXAsjU+gbto+YKOwhXXpUuGCD7kG4uCeIlT1WMhUPZla+dh8mU4RA3Lp1S+qtNm3aCF40Tmlcci8Dqzp06OD0ACuZyg5mFrui7EsFmaJ7j+BMYnBofYWJlHqm/lnwiGEi0JwhtxhcvEEYUipJW1iQJZUk5BQDDhE6ceKEIf6CNLseFF4JuwYbBoEuPIiXHeLL+7gfo8Ax77LB7ZxbDxfH5IXKmuPgTz1TBeURlE22j8GCgNgtW7ZIfJ3LK0WelEzFgxmVJ7FQyBhdIeCVY3Cx6ejXzp075ZwBOVzjHuJxGBnmIr8WM50aIR7ckK/9UQ+Bi8UB7z1efEIiIFYWC2wwgwWIYbX21r7D7pVM/SRXK5Nc76n78CZG5cOLAHQXeQqnlfVuviiAk5yuZCp5BqOw8qJkKjmYUWlTGROfmM7Iq2cqOZgVpl/2upIp/zBTMhVoWdiCrPvsFGQlU9mRcybLs5Kp5GDGYAHmNrIxOFE4K5lKDmZRGIXTlUz5h5mSKSVTkW7LsIJn+lzJlH8GQ8lUsjCzXUrpdFPJVLIwS4eVvaZkyj/MCpAp+upxG/v4Y1QLAepU0PrzQwYYeYLaFS8/8AInbAQDHBQzfzAjMJ2YSMXMH8wIY6FOU8z8wYwYZUjwt99+a8oR3M1EjT7+mL17/vz5EiBNoJj+ki8DRgVCgBWr5GNlMYL8MhmsPdd98rEDMybcVaySj5XFiMEGrJVpz3WffOwYaIV3SsgULuNwYLcv5zYA3ejmjQTu378v81V5k2HNqPnhhx9kZJKKwh8JgBl2XDd/JECFTJefbv5IgJ6Wr776SjJcTsmUP8CVhpwqmfIPRSVTfmKmZMov3JRM+YUXuVUy5R9mpSbHSqb8g1LJlJ+YKZnyCzclU37hRW6VTPmHWanJsZIp/6BUMuUnZkqm/MJNyZRfeJFbJVP+YVZqcqxkyj8olUz5iZmSKb9wUzLlF17k1isyxbIorE2FYQj/NAC9eIWPZWdYsiKXm5KpXEr/wW8TPIlB4PfNN988eIMxGoDulEqyEyHASqaygxHLxvz444/yMfacs6xMcAMPRs4zzUjUpmQqSjK5S//6669l2qioHHhBplgDjoUiV65cKYuwsqq6kqkoSIuWPnv2bFlrr2h3x3OXkql45Ppz3goWLEvCqvbr16+XtRVd71HPlEsqyU5TMhU/Prt37zZ5eXmyGDW6xAaJeu2118yqVatMq1atDJUxc7S1b99e0kePHi3r9rlyp2TKJZXcpDFP2/Dhw039+vVlHduoXHhBpqZPn26OHj1q8D6FSZQ9L+ueKVpBLC5sFZmWDxOIYUgho8xTgsIzERybJVPczxw0dmFj9ix4y+Kc3333ndyLEeCcxTl5nm/hJeRZ+93vv/9eji9cuGA4Zg4pFkrmmyyy6tp4Ptxqc92nafFLgHLSoEEDQ0Ml3aZkKp10fv41Kk/0F73Zt2+f6C7zQ7HAuNVZJnBkcVwWHGdiZc5ZWNfqPMvLkB7elEyFJZL5c+ZmZEHqpk2bpvCwX8GOdu3a1VApL1++3GzdulUuXb161dSpUydlZ+397JVMBaWR22M4BvMhzpw5038y1bNnT7Nu3TrTsGFDM3fuXCepKutkCoOKwqKEbOPHj5duPKa7qF27thhlVpzv27evkB5LppgYbsCAAdJqmjZtmngnIFe0ns6cOSMroFetWlUMAIb817/+tcymPHnyZDH4vL9mzZrizsa4d+rUSYwDLH7Tpk1CwkizBj+oFkqmgtLI7TEGv3r16qZDhw4y+a0tR+FcKZkKSyQz5xCmP/7xj9JgWbRokalSpYp4CDds2CAeD76ya9cuaVQeP35c9JQJAv/jP/5DGpjgV69ePXPr1q0HMqRk6gGRxJLALPNBMgUmNGpffvllk5+fLzZwxYoVol9kADL1+OOPO+eTUjIVC0QlemmpIFO0mLdt2yYzwvbr10/YofVI2b2SqWgyNXDgQCFQGNUuXbqI5wgyhZuZrh1IENsLL7wgrSuOMQIYcogVz1sytGPHDiFmeKow7syGzXMQp1OnTpkFCxbIu3r16iVeMU74Ji7Q8KZkKiyR3J2DBeQZXDH4I0eOTOEXzJWSqaA0MncMmerYsaO8EA9G48aN5Zg4NvSHDdnjoZ8wYYKpUaOGxLXhtT9x4oR4eLmPCjy8KZkKSySe8zCZwqNPvUV4CvoElhDgPn36CKaTJk0yTzzxhDRkwzlSMhWWSO7PSwWZ6tGjh2HdG4jTq6++KhW3JVF2r2TqvuncuXMqcJiWEAHmeI44ZqPC5B4MLmQK7xN9wSg9G4WF1hIb3W94A3Fvzpo1S9L4g+EmDoCuO1phzz//vLl+/brECmAcOGYbOnRo6hmMvCvYUslUSkSJOsCQ04BxzcCsZCoeqCBT2Dk2Gh5t27aVY3STdHRl0KBB0lihgdOiRQvxQkO80Fu6A63uhXOoZCoskXjOw2Qq+JWFCxdKA5U0QiPQMQZTtW7d2tloUTIVlF4yjksFmZoxY4ZU4BAmvCT0TVsSZfdlnUyhoJAjyBDGs1q1aoWSKTxLBBvTZYexdpEpDMQjjzwicRu0rGgRE9eBslesWNGMGjVKPF3dunUz3bt3T3UzKplKhgEoai4oM5Y8oV/Dhg1LeSOD71AyFZRG5o4LI1PoW8uWLcW7QVwjXbKksWET6b5PNwITO6lbvBIIkynILXYZctyuXTuxoTa2FHtLzwA9AK5NyZRLKrlNKxVkCi8J3hG8KZs3b9aYqYgyRcAqctq4caMhPuru3bvihSKgnA3FxqtEhUiXDsqOl4rRJrdv35ZgVgw1G8HrtJx4hgUcFy9eLF5B4qYwBGzEbnCNDRJHEKbdgsd802XoeY8GoFuJ5XaPkaccgDNdta5AZnKoZCoenPAgM1iDDV2he4gNXEhHDwlMx8PBtCZ0q4MFGzFWEydOlHskIfSH+5RMhYQSwyned3ABK7aTJ0+aJUuWiE4RDkE69nX+/Plm6dKlMpggKhtKpqIkk7t0BntQT0ZtXozms96ndPuy7pmKAjjJ6UqmkoyOO29KptxyyUUqlTONocGDB0ssTlQelExFSSa56UqmkotNVM4KkCkbl5SOtCT1mpKpKIiTm65kKrnYROVMyVSUZLKfjueZUX9btmxJ+3ElU2nFk8iLSqYSCUvaTEGmPv74Y/FelcPVnFSyVFi+lEylxTmRF5VMJRKWtJlSMpVWPFm/CB6FbUqmCpNQ8q4rmUoeJoXlqIBniiHykBIff/RFM6wb17f+/JABZIp5cRQvP/ACJypmPCKKmT+YEXeFTVfM/MGMuDmcG4qZP5gVIFPMWE2wso8/AqMJnv3kk0/054kMcIkSpKmY+VNmGTBw9uxZxcwTHUO3wIwVC1TP/NEzZrNnpJ9i5g9mrDLCVCVspaKbj+Hd+vNDBnhCmWZB8fIDL3Ci9UWjSzHzCzPmhVPM/MGM0dSMqFXM/MGMCVnxJiqZUhKWdcVVMuWPobBGXcmUn5gpmfILNyVTfuGFfVQypSQq6yTKVsxKpvwzGEqm/MRMyZRfuCmZ8gsvJVNKpHJGpCh8Sqb8MxhKpvzETMmUX7gpmfILLyVTSqaUTGkZKFYZUDLln5EHMyVTfuGmZMovvLwhU59++qkMx2ZINj8C88LzTtl5pvin9Fe4DN544w1z/vz5nMpKPVOF45TNsowBZ4oRfoxKcX1byVSyMHNhFE5TMpUdzBidzOi7sPwhstg60llyxuoYe+qt8P2cK5nKDmYu2UelYROZ2DzquhcxU6w7NWDAAPmxgC+rpiuZKllhY/Fo1v+KKhjZSFcyVTIMM4kRWPTq1cv06NHDDBo0yOzYscNZNpRMJQezouKvZCpezNCdl156yYwdO1bqKOorZM46bqwn27RpUyFH4HXkyBHRL3SsU6dOpk6dOqlrQTyVTMWLWVDWhR1Del999VXTvHlzmcsy6n4vyJQlTrD+Pn36qGcqwvsG6BZoZIZCM1ST1g/XkJ/1OFgyxXU8fbSYUGCewfuHN5BrvA9jQRrGgftIC7aoeLe91x5znTzQWuO9Nl/BvZKp5BgMcK9Xr55MohrEKHzMfTo1QuZxQ3/QHX537twRPUSHgjqHvqCX6DF6yPnnn3+e0i30zepnEDcw026+zGNmZQx2yJ5z8CtfvrzYSxaeZ/7Dfv36OW0gCx7jGLDvCe6VTMWHV1DORTmmDlu2bJmZNm1a6SFTY8aMkRYzBTf8w/BQcIsinNJ4D4aVlo4lS/n5+YaVyiFKjRs3NitWrDBTpkwxo0aNEuJjydTFixdNly5dhPRMmjTJjB49Wlh4w4YNZXJG5NqzZ08zffp08/LLL5v69evLvSNHjhSXJ9dJY2JADEn79u0FG1pjsPlZs2aJMSF/YbmTpvNMJcNoUG7w+oL/xo0bnZUy+CmZigcvCFLlypXNqlWrzLBhw0SX586da8aNGyeeDGS/e/duQwU8b948wYmJHR966CFz7949watVq1bm3LlzD+iZkql4MAvbM86vXr1qatSoUYA89e/fv8A599E4HThw4ANY2XcqmcoeZlbmhe1LDZmCFOAaxZUWJlKcK5mKJlPdu3cXAgV5ycvLE8MLmaJwQMBoCVOQJk+eLG5ojomnWr16tcxQ3qFDh5SXi1nmd+3aZbZv3272799vTpw4YSBWdAudPn1aSBctNZ6xrWS+AW7hwqpkKjkGAyzAG/KLnkGeSQtjpmQqHswgUy1bthR5U9HS/YPsbQOFY/C4dOmS2bx5szRgsHvPPfecOX78ErnEagAAFhhJREFUuLlx44ahAeTyAiuZigezsG7gZYI4nTlzpoDehMkU9pHuP2xo+B32XMlUdjCz8i7KvlhkCqVzEZUkpNEqw9MRlRclU9FkasSIEaK0GOOOHTumyFT16tXFWwXuFKapU6caPFUcMzX+8uXLzc6dO6UlbAsbhnvDhg3mypUr4oV6/vnnxYMFYYKgsdQI9wZbXXzTFbhHftQzlTyjgSGvXbu2eDUt7navZCoevCBTXbt2Fd3B04SXCZlj7/AcUwEPHTrUDB48WBoueJvBiYbQzJkzpWHz9ttvyzMWK7tXMhUPZla+7CFSnTt3Fi9hMJ3jMJmia7Zu3bpO/bLPKpmKHzMr66Lui0KmwI1FqssllUzROmvSpIm0wJRMuQsZxrZNmzZCciApDRo0SHXzRZEpSBHeqEWLFkmr10Wm6PevVKmSxGpQUOjGO3XqlHgCn3jiCTHuYNKsWTMxJpBaCqeSKTdORVXcbN9HmQFHvguh7t27d8qzGMyLkql4cC2MTKF7BMCiX5AtyC5p6D2DcyBZVveCeHGsZCoezKyc8SRWqFAhMi4tTKbwLg4fPlyws+8I78GW3phwup7Hi2U6+RaLTKGYUWQll+l0ETHKiECwqHyUdc8UhWDfvn3SumU0CcCjtMgLjx7XwfeFF14Q47pp0yYhp8htyJAh5sKFC+JxoruAe4mB4n08Q7cCXT905xGzgXEmfeXKlakRgYcOHTILFixIKX/wmG+6DIN6pnJnGMJGA+MNvsTaoWvEfoTv4VzJVDyY4bllRBgypvFIfCPHxLKRjr7NmTNHdJUGECPHbDc6nimCnLknCjMNQI8HN+R969Yt06JFCyG7EF5+ly9fTmGBzbRYcf8777yTNpCZe5RMxYeXS0eKkobzwRWTaJ/1ajRfFJEiXcnUPwsfBjXKqFrQf84+jvcqmUqWwSgKxkqmcouZS7dpDF27di1VeYf1Wz1TucUsjEdRzpVM+YeZkqmIaQaKUuD1npIVeCVTJZNfLsqfkqnkYMa0Cc8++6yMsnWRLFs+lEwlBzOLSWF7JVP+YaZkSslUZIu2MIUv6XUlU/4ZDCVTycIs2H0UpY9KppKFWRROwXQlU/5hpmRKyZSSKS0DRS4DSqb8M/JKpvzDTMmUf5gVIFO4jRna7uOPYcHMk0PgtP78kAGBm0y1oHj5gRc4Mfs5uqaY+YUZIzQVM38wu379uozMVsz8wYxpfhgwwlaOfvd0Qd5JvmYD0OU/0T9eSOD+/fti4L3IrGZSJPDDDz/INBkqDn8kAGbYbt38kQBzFdHtp5s/EsAD/NVXX0mGlUz5g1upyKmSKf9gVDLlJ2ZKpvzCTcmUX3iRWyVT/mFWanKsZMo/KJVM+YmZkim/cFMy5Rde5FbJlH+YlZocK5nyD0olU35ipmTKL9yUTPmFF7lVMuUfZqUmx0qm/INSyZSfmCmZ8gs3JVN+4UVuvSFTLLfAyAaMguunAejFK3yMPGCR1FxuSqZyKf0Hv/3999+bb775Rn4cuzYlUy6pJDsNzJRMxYvRjz/+KDKmQg1u3333nazOEUzjXpYMssHKwWv2WMmUlURy9tjEdIMCvCBTx44dk4U9WSl9woQJUhDDhErJVPEK3ezZs82ePXuK91CG71YylWGBluB1GHjWd6tSpYro2rJly5xvUzLlFEuiE5VMxQsPusN6iR06dDD169eX6V74IotXU2e1bt3aPPfccwaCxI+1Stu2bSvr+eEgcG1KplxSyU0aJOr8+fOmW7du5uTJk5GZKECmOAmTlCScjxs3zrAAL2x+xIgRsrBkOF9KpiIxlgsoPApqt3RkisKDAQ5upAWfD16LOuabeDrYuzYlUy6p5CYNvJs0aSLeSo7BxrVx7dNPP3Vd0rQMSABdwZvBFtZZ0pA/OlWcjWewl7rFJwG8TOjMBx98YOrUqSM4bdu2zdy8eVPSV6xYIbrFvHo9e/YUjM+cOWMaNWpksK3hTclUWCK5O6dXjMXEn3/+eXPixInIjMCfWJEA7MollUwxGefixYvFk8LK9vxzSqYKYooid+3aNUV4xo8fL5MrMndYXl6eWbBggTDruXPnyoOWTNHV1759e1H6GTNmmFdeeUUKTc2aNSWNgjFv3jzTv39/aV0NGjRIVjQfNmyY9BFj2FkxHaL79ddfy7cwLJ06dTJLly6VtcMmTpzoJFRKpgpimMszKvDatWubNWvWyKS9VMCuTcmUSyolT/v8889NgwYNzMKFC0Ufp0yZYl588UXTpUsX2fMFWsXDhw83AwYMED39+OOPzR/+8AdZ2BxcWKePFnR4UzIVlkjmzyFEzIC9bt06sbUQYSa/nj9/vjl16pTBHlPRYhN3794tGcBm/v73vxf8wjlSMhWWSO7PIVRFJlNJnbTzwIEDwuCbNWtm8FJheJRMFSxc6cgUBpnrGFUIF4oPmaIrp02bNkJOedv06dPN0aNH5cXvvvuu2bx5s2GPq5rKFgMxZ84c8+abbxpaXefOnZNZejHuFLKrV6+aSZMmyX28F4PAxjdZhy+8KZkKSyR355SJadOmSVcflfqqVaucBFjJVDwYYdOaN28uL8e21ahRQ46xyXQfsaF/NHhpALVq1UpibmgoXb58WSpyumhdcThKpkR8sf7505/+JHUUXeVXrlyRb9GbAk7t2rUzgwcPFmyokJmNng1y9cgjjwim4cwpmQpLJPfnRSFTVv8SOWkn7L1Xr15S4XMMCaDCVzJVsHClI1P5+flyM/d07txZiBFyrFu3rhAo0tkoLBAiNvryaWW98cYb0tKSRGPMO++8Y7Zv3y7drhgOnnnrrbfEc0WrGtc125AhQ+wj0rrGcIQ3JVNhiSTjnCBLCJU1DMFcKZkKSiNzx5CpHj16yAshTMTUsOHtJR0ihZdjzJgxZtGiRYIPFS5LMi1ZskS8H4cPH3ZmSMmUUywZT0TOkKpKlSrJsiJ47wk/AbtDhw6ZnTt3Sg/Lvn375NvUZ3gWXUHNSqYyDk+JX1gqyBSeFQopBAr3NwHpSqYKlg0Ulu66e/fuifJijFlDjZZtFJnC89S3b1+DcvO8i0wx6o9YGt6D92L06NHm9OnTco6LeujQoWIMiBMgQM96oEi3G/gpmbLSSOYe/G2sDrrWvXv3lGcxmGMlU0FpZO64MDJF5YqXA3JF5Yu3mDQaJFTadCO5KmVyqGQqczi53oTeWPt29+5dU7VqVSFTBJ0TksIGkeKHV79Pnz5iS238FPiENyVTYYnk/tx7MgVp2rp1q6lYsaK4wWmlaTefu2Bt3LhRWkUEOKKwFy5cEAMLAWXD8BL7BCmidUv3KSSpYcOG0mVHvBSuaTZGoiB3niHeii7Wjh07mlGjRsnzVL6MSrGjvl577TVpNcvD///P2LFj7aF8k9Z2eFPPVFgiuTunkmbUEWXn6aefTnVVhHOkZCoskcycf/HFF9IVxNtokIADG7gQp4iu0EABIxot6CIVLhtGnhhF7nFtSqZcUslc2l/+8hdTvnx56UHB209jk42GaOXKlSWOlLAHPL22QUroA2nYX9emZMolldym4RmmFyZqo46z3vxEdvNBpnCVwvBh/bhGw14pew+svyxvEBxapwSFo7TWuAZbPqSzkWavk8Y5P97Bxt5et+9F8e117uF68B7Xd7jPflNeHPjDs1FDgwO36WGWJEC5YdVz66FyfRaMdTSfSzIlS0OvgnriOkb2EC32wetMF0PcVNTG/dhI3eKTAOQH71R4pKUlRWBgN+weFW86PbPP2Wd0n3sJgKGt71y58YJMuchTOE2nRnDBm+w0JVPJxseVOwyKkimXZLKfhvFmdBhzHKUz8kqmso9NSb+oZKqkEsz+80qmsi9z/eL/SUDJlH9FQclUsjCj0i1sUzJVmISSd13JVPIwKSxHSqYKk5Bej00CSqZiE21sL1YyFZtoY3uxkqnYRBvbi5VMxSba2F5cgEwxEow5Mnz8MfPsli1bJOaDuA/9JV8GBG4yj5VilXysLEZ0r1+7dk0x88jGgBkTfFoMdZ98fWNAAnHCilXysbIYEdNtR7MnNgA9HB/lOrcxUwRg688PGVDwGPGiePmBFzjR+vrwww8VM4/sDJgx3YXqmT96RkMTQqWY+YMZM+Db0ZlKpjwykKVByZRM+WMobHlTMuUnZkqm/MJNyZRfeGEflUwpgcpZ60fJlH8GQ8mUn5gpmfILNyVTfuGlZEqJVM6IFIVPyZR/BkPJlJ+YKZnyCzclU37h9QCZwlC64pF8SNOYKf8Kn5Ip/zBTMuUnZkqm/MJNyZRfeFkyBW6MxCyXZDJFfySTBUYROyVTxSt8zDyOPCkEufopmcqd7F2Ygwc2gB/HrnuUTCULMxdG4TQwUzKVfdwIRrb6xN7iQjoreTAKzKaF90qmso9XGIPwOTYxHWZwlBSZAuQospLL9DNnzsh6Yax/xDpxrrwomSpe4WM9r+3bt0cqc7ggxXGuZKp4mMWBgX0nuj948GDzyCOPGBawnjVrlrNsKJlKDmYWu8L2SqZyg9nZs2fNo48+KvrEmn2sKYvNY9b6WrVqyWLVTEfkwk/JVG4wc2FBGtMeYB+PHDnixIt7vAhA79Wrl7l+/brMu/Hss8/KYrxhQqVkKn3ho7IMsuoZM2aYbdu2OQsGxjfsmSCNtaeiCpsr3X6Tveu6kqn0mLlkFlcaWLRs2VKmqkC3orBWMhUvZuhKUPbBY7AHp6AeF6U8KJmKF7MoDKh4V6xYIY1/yBH3nTx5Uharpr7as2eP6dChg3ivwu9QMpUbzMI4cE4vzoABA0z37t3NoUOHnHUZ9yWeTDHXBiuk2wWOp06dag4fPvyAd6qskymMLCvHW0Obn59vjh07JnOVQEYnTpxoKlSoIMoN8JZM3blzR1pIp06dMlOmTDFr1qwxLVq0ME888YTMJ4QhRumfeeYZU6dOHTNnzhzBAlILNnyP1c9h7hy3b99e0il4s2fPNlWqVBEvh4tQKZlKjsGg0qa1TAVw8+ZNmS/FZViUTMWD2SeffGKaN29uWLQYPV21apUZOXKkqVixonn11VdTFXGjRo1M9erVzerVq2Vx46effloWgkeXhg8fbljsPYybkql4MAvLOXy+f/9+s3jxYmmgWLu8cOFCs2HDBsEIzB977DHnfFJKpnKDWRjD4Pm0adP8JlO0kqm4YfgYegz+vn37lEyFYp3SkanWrVuLwkJ+8vLypOULmcIgQ1TPnz8vlSeEa+vWrUKKDh48KEp/4cIFU6NGDYM7GixGjBghBWr58uWGa8w8zzshYxxzHeLUtGlTicnCKEDyXBPQKZlKjsGATPXr108q9EqVKqX1WuqknZnHjYq1QYMGomM3btwwlStXlkYLjR0aKxh1dAh9Qg/btm0r5zxz6dIliYmiAUTrOFgBcKxkKvN4hWXsOj9+/Lh4e+vXry8NVLCjQn7rrbcEI2zq7373O7Gt4eeVTOUGszAOwfNSQaZws7344osGVj9p0iTz9ttvK5kqBpmC4FAoIC+QJypOyBTepnHjxqW69PD6QZC4F2IEYdq9e7d56aWXUgYaA0HL6ty5c9ISfvnll8VzNWzYMIkFeP311+XegQMHpp7hmyyNECyYNj86A3ryjAYDEygbeHvDmKlnKh68IFNdu3YVeVPJtmrVSo4hTl26dJEGCt3y48ePN0OGDDHVqlUTYnX69GmzbNkyc+LECbN27VqnR1HJVDyYhXUj6hx7O3bsWCG92EtsKvcyKICYKmKpws8qmcotZmE8OC8VZAqjjlGh8OGlYs958FfWu/nwBtGCpSLkGMNsu/miyNTKlSul0oSc8gxk6uLFi6LYlkzRx49nCeWGjNHNh/uaFvBvf/tb079/f2lZPfXUU3KfJU1KppJnDFwGwqaBP/hyThmiLKFf9rrdK5mKB9fCyBT6R/c7mHBMlyB78IBcobuuShnclEzFg5nViag9JIpr7Bnwc/nyZfH80x2LrkGEGzduXCBGzr4LbF3efHtd99nHtFSQqblz5xo8Hw0bNpTuhyCJssdlnUyhXBCd2rVrS7AchrcwMkVLlwVQa9asaRgx6SJT9PUTu9GuXTvTs2dPaSUTv4YxYHQDHkO+vWTJEtO3b99Uy1jJVPaVvSQGFv3p3LmzGTRokMS5RQVaKpmKB9fCyBT6hoeKRlLv3r0NXUdUuGCOtwpPliXD4XKgZCoezMJyDp9v2rRJGpvYThqd2FJsZ7du3aRLnQEfUV3mSqZyg1kYw+B5qSBTtJTfffddp0dKydRPhQ5jevv2bfEaIReMKB4Ha3QpGFSa7EmzLSfSUHR+1iCzt9d5B7EbGHx7nXdwnWc45lvB7/B90vnxft5hz+2ed2k330/4Wbnkao+3kVGztIhdeJEvJVPx4IW8rc5wbPUUmdt0dI2QB/QseB0jf+DAgQf0y5YjJVPxYGblG7UHL8gSPSlhu8kgj3SeJzBOdz3qm5oeH9Zggi5FyTjxo/kwJEX5YVxcI1mi/nFNj6/QFVW2SqZyj0FRsbL3KZlKDmbYRWIYGTiQzsgrmUoOZlaPCtsrmfIPMyVToUDuwgq5Xs9cIVcylTlZZqtcKplKDmZUuIwMs3GKUWVAyVRyMIvCKJyuZMo/zJRMKZmKdFuGFTzT50qm/DMYSqb8xIyupkzrr74vvrKgZCo+2cZVbguQKdzGxNz4+COeh8kli9IlqPcUres0bjkRjMnowbi/o+/PHN5gduXKFcWsiOEHSSh7xN4Qu5OEvGgeiqaLVMyuUesqv6LJLxdygjfhIGArR9wRpMTHH6PS7PwdcTFPfW9mWwsUPKZgULlmVq5xylM9U/5gZcsBA0XUM+UXbuqZ8gsvdK2AZ8qOKMkFqyvpN20AutBC/eOFBO7fvy+jk7zIrGZSJPDDDz/IPFQqDn8kAGbYV938kcC3334rjUx/cqw5paH51VdfiSDKEchYUlKTq+eVTPlXmJVM+YeZkik/MVMy5RduSqb8wovcQqboIaO7r5x6pvwD0OccK5nyDz0lU35ipmTKL9yUTPmFF7kt4JlSMuUfgD7nWMmUf+gpmfITMyVTfuGmZMovvMhtYskU3XbhLkNXmr1Hu/mKV/ioFCEzudyUTOVS+j/v20qmfp7ccvkUmCmZyiUCxf+2kqniyywbT/z444+Rn0kcmWLo9fbt283SpUtTZIphvb169ZK1w9asWSNLKVgSZfdKpiIxdl5YvHixLEHhvJilRCVTWRJ0ET6DkVi4cKGs/da9e3dZA9P1mJIpl1SSnaZkKjf43Lp1S9bhQ59Y3Jjg5O+++07WmSWNH4sfuzYlUy6p5C4NooR9vHTpUmQmEkWmmA8F0tSxY0eTn5+fIlMs5Hn48GFz9+5d06lTJ8O6RpZE2b2SqUiMUxcwqnabPXu2zMtlz4N7SE6YgZPGr7hb8JvhZ5VMhSWSu3OwyMvLk7X5mLLim2++cWZGyZRTLBlNDOpZ8JiPoJfpdMqVEe7HTuqWXQkwO/3KlStl7iFCaMCOfaNGjWTBY/Ts+++/d2ZKyZRTLDlJvHfvnmGx6hYtWpgTJ05E5iFIpv4fhMjUQQB0PqgAAAAASUVORK5CYII=;" vertex="1" parent="1">
          <mxGeometry x="500" y="70" width="595" height="199" as="geometry" />
        </mxCell>
      </root>
    </mxGraphModel>
  </diagram>
</mxfile>
